<mxfile host="app.diagrams.net" agent="Mozilla/5.0 (Windows NT 10.0; Win64; x64) AppleWebKit/537.36 (KHTML, like Gecko) Chrome/128.0.0.0 Safari/537.36" version="24.7.14">
  <diagram name="Page-1" id="2YBvvXClWsGukQMizWep">
    <mxGraphModel dx="3292" dy="2416" grid="1" gridSize="10" guides="1" tooltips="1" connect="1" arrows="1" fold="1" page="1" pageScale="1" pageWidth="850" pageHeight="1100" math="0" shadow="0">
      <root>
        <mxCell id="0" />
        <mxCell id="1" parent="0" />
        <mxCell id="aQoF5F5WLzF5CA5ig07Y-1" value="Descripción: Un usuario desea intercambiar una criptomoneda por otra dentro de la billetera virtual." style="text;whiteSpace=wrap;html=1;fontColor=#1D3557;" parent="1" vertex="1">
          <mxGeometry x="-205" y="-610" width="530" height="50" as="geometry" />
        </mxCell>
        <mxCell id="aQoF5F5WLzF5CA5ig07Y-2" value="persona: Persona" style="shape=umlLifeline;perimeter=lifelinePerimeter;whiteSpace=wrap;html=1;container=0;dropTarget=0;collapsible=0;recursiveResize=0;outlineConnect=0;portConstraint=eastwest;newEdgeStyle={&quot;edgeStyle&quot;:&quot;elbowEdgeStyle&quot;,&quot;elbow&quot;:&quot;vertical&quot;,&quot;curved&quot;:0,&quot;rounded&quot;:0};fillColor=#A8DADC;strokeColor=#457B9D;labelBackgroundColor=none;fontColor=#1D3557;" parent="1" vertex="1">
          <mxGeometry x="-535" y="-500" width="100" height="1240" as="geometry" />
        </mxCell>
        <mxCell id="aQoF5F5WLzF5CA5ig07Y-3" value="" style="html=1;points=[];perimeter=orthogonalPerimeter;outlineConnect=0;targetShapes=umlLifeline;portConstraint=eastwest;newEdgeStyle={&quot;edgeStyle&quot;:&quot;elbowEdgeStyle&quot;,&quot;elbow&quot;:&quot;vertical&quot;,&quot;curved&quot;:0,&quot;rounded&quot;:0};labelBackgroundColor=none;fillColor=#A8DADC;strokeColor=#457B9D;fontColor=#1D3557;" parent="aQoF5F5WLzF5CA5ig07Y-2" vertex="1">
          <mxGeometry x="45" y="70" width="10" height="1150" as="geometry" />
        </mxCell>
        <mxCell id="aQoF5F5WLzF5CA5ig07Y-4" value="inicia sesión" style="html=1;verticalAlign=bottom;startArrow=none;endArrow=block;startSize=8;edgeStyle=elbowEdgeStyle;elbow=vertical;curved=0;rounded=0;labelBackgroundColor=none;strokeColor=#457B9D;fontColor=default;startFill=0;" parent="1" source="aQoF5F5WLzF5CA5ig07Y-3" target="aQoF5F5WLzF5CA5ig07Y-6" edge="1">
          <mxGeometry relative="1" as="geometry">
            <mxPoint x="-355" y="-490" as="sourcePoint" />
            <mxPoint x="-255" y="-400" as="targetPoint" />
            <Array as="points">
              <mxPoint x="-425" y="-390" />
            </Array>
          </mxGeometry>
        </mxCell>
        <mxCell id="aQoF5F5WLzF5CA5ig07Y-5" value="billetera: Billetera" style="shape=umlLifeline;perimeter=lifelinePerimeter;whiteSpace=wrap;html=1;container=0;dropTarget=0;collapsible=0;recursiveResize=0;outlineConnect=0;portConstraint=eastwest;newEdgeStyle={&quot;edgeStyle&quot;:&quot;elbowEdgeStyle&quot;,&quot;elbow&quot;:&quot;vertical&quot;,&quot;curved&quot;:0,&quot;rounded&quot;:0};fillColor=#A8DADC;strokeColor=#457B9D;labelBackgroundColor=none;fontColor=#1D3557;" parent="1" vertex="1">
          <mxGeometry x="-166" y="-500" width="100" height="1240" as="geometry" />
        </mxCell>
        <mxCell id="aQoF5F5WLzF5CA5ig07Y-6" value="" style="html=1;points=[];perimeter=orthogonalPerimeter;outlineConnect=0;targetShapes=umlLifeline;portConstraint=eastwest;newEdgeStyle={&quot;edgeStyle&quot;:&quot;elbowEdgeStyle&quot;,&quot;elbow&quot;:&quot;vertical&quot;,&quot;curved&quot;:0,&quot;rounded&quot;:0};labelBackgroundColor=none;fillColor=#A8DADC;strokeColor=#457B9D;fontColor=#1D3557;" parent="aQoF5F5WLzF5CA5ig07Y-5" vertex="1">
          <mxGeometry x="45" y="100" width="10" height="1120" as="geometry" />
        </mxCell>
        <mxCell id="aQoF5F5WLzF5CA5ig07Y-7" value="swap: Swap" style="shape=umlLifeline;perimeter=lifelinePerimeter;whiteSpace=wrap;html=1;container=0;dropTarget=0;collapsible=0;recursiveResize=0;outlineConnect=0;portConstraint=eastwest;newEdgeStyle={&quot;edgeStyle&quot;:&quot;elbowEdgeStyle&quot;,&quot;elbow&quot;:&quot;vertical&quot;,&quot;curved&quot;:0,&quot;rounded&quot;:0};fillColor=#A8DADC;strokeColor=#457B9D;labelBackgroundColor=none;fontColor=#1D3557;" parent="1" vertex="1">
          <mxGeometry x="150" y="46.22" width="90" height="687.56" as="geometry" />
        </mxCell>
        <mxCell id="aQoF5F5WLzF5CA5ig07Y-9" value="swap" style="html=1;verticalAlign=bottom;startArrow=none;endArrow=block;startSize=8;edgeStyle=elbowEdgeStyle;elbow=vertical;curved=0;rounded=0;labelBackgroundColor=none;strokeColor=#457B9D;fontColor=default;startFill=0;" parent="1" source="aQoF5F5WLzF5CA5ig07Y-6" target="aQoF5F5WLzF5CA5ig07Y-29" edge="1">
          <mxGeometry relative="1" as="geometry">
            <mxPoint x="-109" y="-151" as="sourcePoint" />
            <mxPoint x="15.470000000000255" y="-151.01" as="targetPoint" />
            <Array as="points">
              <mxPoint x="-28" y="-140" />
            </Array>
          </mxGeometry>
        </mxCell>
        <mxCell id="aQoF5F5WLzF5CA5ig07Y-11" value="alt" style="shape=umlFrame;whiteSpace=wrap;html=1;pointerEvents=0;fillColor=#A8DADC;strokeColor=#457B9D;movable=1;resizable=1;rotatable=1;deletable=1;editable=1;locked=0;connectable=1;labelBackgroundColor=none;fontColor=#1D3557;" parent="1" vertex="1">
          <mxGeometry x="-435" y="-310" width="1025" height="890" as="geometry" />
        </mxCell>
        <mxCell id="aQoF5F5WLzF5CA5ig07Y-12" value="[usuario.getDadoDeBaja() == false]" style="text;whiteSpace=wrap;html=1;fontColor=#1D3557;fontStyle=1;fontSize=9;" parent="1" vertex="1">
          <mxGeometry x="-465.00250000000005" y="-349.93023255813955" width="227.5" height="47.44186046511628" as="geometry" />
        </mxCell>
        <mxCell id="aQoF5F5WLzF5CA5ig07Y-13" value="[usuario.getDadoDeBaja() == true]" style="text;whiteSpace=wrap;html=1;fontColor=#1D3557;fontStyle=1;fontSize=9;" parent="1" vertex="1">
          <mxGeometry x="-465.00250000000005" y="607.9962790697673" width="227.5" height="47.44186046511628" as="geometry" />
        </mxCell>
        <mxCell id="aQoF5F5WLzF5CA5ig07Y-14" value="[usuario.getSeguridad().getVerificado() == true]" style="text;whiteSpace=wrap;html=1;fontColor=#1D3557;fontStyle=1;fontSize=9;" parent="1" vertex="1">
          <mxGeometry x="-435" y="-280" width="210" height="47.44" as="geometry" />
        </mxCell>
        <mxCell id="aQoF5F5WLzF5CA5ig07Y-15" value="[usuario.getSeguridad().getVerificado() == false]" style="text;whiteSpace=wrap;html=1;fontColor=#1D3557;fontStyle=1;fontSize=9;" parent="1" vertex="1">
          <mxGeometry x="-435.00250000000005" y="499.9997674418605" width="227.5" height="47.44186046511628" as="geometry" />
        </mxCell>
        <mxCell id="aQoF5F5WLzF5CA5ig07Y-16" value="alt" style="shape=umlFrame;whiteSpace=wrap;html=1;pointerEvents=0;fillColor=#A8DADC;strokeColor=#457B9D;movable=1;resizable=1;rotatable=1;deletable=1;editable=1;locked=0;connectable=1;labelBackgroundColor=none;fontColor=#1D3557;" parent="1" vertex="1">
          <mxGeometry x="-465" y="-380" width="1075" height="1070" as="geometry" />
        </mxCell>
        <mxCell id="aQoF5F5WLzF5CA5ig07Y-17" value="alt" style="shape=umlFrame;whiteSpace=wrap;html=1;pointerEvents=0;fillColor=#A8DADC;strokeColor=#457B9D;movable=1;resizable=1;rotatable=1;deletable=1;editable=1;locked=0;connectable=1;labelBackgroundColor=none;fontColor=#1D3557;" parent="1" vertex="1">
          <mxGeometry x="-406" y="-247.44" width="976" height="727.44" as="geometry" />
        </mxCell>
        <mxCell id="aQoF5F5WLzF5CA5ig07Y-18" value="[usuario.chequearHabilitado() == true]" style="text;whiteSpace=wrap;html=1;fontColor=#1D3557;fontStyle=1;fontSize=9;" parent="1" vertex="1">
          <mxGeometry x="-406" y="-217" width="210" height="47.44" as="geometry" />
        </mxCell>
        <mxCell id="aQoF5F5WLzF5CA5ig07Y-19" value="[usuario.chequearHabilitado() == false]" style="text;whiteSpace=wrap;html=1;fontColor=#1D3557;fontStyle=1;fontSize=9;" parent="1" vertex="1">
          <mxGeometry x="-406" y="400" width="210" height="47.44" as="geometry" />
        </mxCell>
        <mxCell id="aQoF5F5WLzF5CA5ig07Y-20" value="opt" style="shape=umlFrame;whiteSpace=wrap;html=1;pointerEvents=0;fillColor=#A8DADC;strokeColor=#457B9D;movable=1;resizable=1;rotatable=1;deletable=1;editable=1;locked=0;connectable=1;labelBackgroundColor=none;fontColor=#1D3557;" parent="1" vertex="1">
          <mxGeometry x="-375" y="-182.44" width="925" height="562.44" as="geometry" />
        </mxCell>
        <mxCell id="aQoF5F5WLzF5CA5ig07Y-21" value="[opcionTransaccion == swap]" style="text;whiteSpace=wrap;html=1;fontColor=#1D3557;fontStyle=1;fontSize=9;" parent="1" vertex="1">
          <mxGeometry x="-375" y="-152" width="210" height="47.44" as="geometry" />
        </mxCell>
        <mxCell id="aQoF5F5WLzF5CA5ig07Y-22" value="alt" style="shape=umlFrame;whiteSpace=wrap;html=1;pointerEvents=0;fillColor=#A8DADC;strokeColor=#457B9D;movable=1;resizable=1;rotatable=1;deletable=1;editable=1;locked=0;connectable=1;labelBackgroundColor=none;fontColor=#1D3557;" parent="1" vertex="1">
          <mxGeometry x="-318" y="-54" width="828" height="294" as="geometry" />
        </mxCell>
        <mxCell id="aQoF5F5WLzF5CA5ig07Y-23" value="[hayStock() == true]" style="text;whiteSpace=wrap;html=1;fontColor=#1D3557;fontStyle=1;fontSize=9;" parent="1" vertex="1">
          <mxGeometry x="-318" y="-24" width="210" height="47.44" as="geometry" />
        </mxCell>
        <mxCell id="aQoF5F5WLzF5CA5ig07Y-24" value="[hayStock() == false]" style="text;whiteSpace=wrap;html=1;fontColor=#1D3557;fontStyle=1;fontSize=9;" parent="1" vertex="1">
          <mxGeometry x="-318" y="208" width="210" height="47.44" as="geometry" />
        </mxCell>
        <mxCell id="aQoF5F5WLzF5CA5ig07Y-25" value="alt" style="shape=umlFrame;whiteSpace=wrap;html=1;pointerEvents=0;fillColor=#A8DADC;strokeColor=#457B9D;movable=1;resizable=1;rotatable=1;deletable=1;editable=1;locked=0;connectable=1;labelBackgroundColor=none;fontColor=#1D3557;" parent="1" vertex="1">
          <mxGeometry x="-292.5" y="10.56" width="782.5" height="160" as="geometry" />
        </mxCell>
        <mxCell id="aQoF5F5WLzF5CA5ig07Y-26" value="[confirmarTransaccion==true]" style="text;whiteSpace=wrap;html=1;fontColor=#1D3557;fontStyle=1;fontSize=9;" parent="1" vertex="1">
          <mxGeometry x="-292.5" y="40" width="210" height="47.44" as="geometry" />
        </mxCell>
        <mxCell id="aQoF5F5WLzF5CA5ig07Y-27" value="[confirmarTransaccion==false]" style="text;whiteSpace=wrap;html=1;fontColor=#1D3557;fontStyle=1;fontSize=9;" parent="1" vertex="1">
          <mxGeometry x="-292.5" y="123.12" width="162.5" height="47.44" as="geometry" />
        </mxCell>
        <mxCell id="aQoF5F5WLzF5CA5ig07Y-28" value="aplicacion: Aplicacion" style="shape=umlLifeline;perimeter=lifelinePerimeter;whiteSpace=wrap;html=1;container=0;dropTarget=0;collapsible=0;recursiveResize=0;outlineConnect=0;portConstraint=eastwest;newEdgeStyle={&quot;edgeStyle&quot;:&quot;elbowEdgeStyle&quot;,&quot;elbow&quot;:&quot;vertical&quot;,&quot;curved&quot;:0,&quot;rounded&quot;:0};fillColor=#A8DADC;strokeColor=#457B9D;labelBackgroundColor=none;fontColor=#1D3557;" parent="1" vertex="1">
          <mxGeometry x="10" y="-500" width="100" height="1240" as="geometry" />
        </mxCell>
        <mxCell id="aQoF5F5WLzF5CA5ig07Y-29" value="" style="html=1;points=[];perimeter=orthogonalPerimeter;outlineConnect=0;targetShapes=umlLifeline;portConstraint=eastwest;newEdgeStyle={&quot;edgeStyle&quot;:&quot;elbowEdgeStyle&quot;,&quot;elbow&quot;:&quot;vertical&quot;,&quot;curved&quot;:0,&quot;rounded&quot;:0};labelBackgroundColor=none;fillColor=#A8DADC;strokeColor=#457B9D;fontColor=#1D3557;" parent="aQoF5F5WLzF5CA5ig07Y-28" vertex="1">
          <mxGeometry x="45" y="70" width="10" height="1150" as="geometry" />
        </mxCell>
        <mxCell id="aQoF5F5WLzF5CA5ig07Y-30" value="listaStocksCripto:static List&amp;lt;Stock&amp;gt;" style="shape=umlLifeline;perimeter=lifelinePerimeter;whiteSpace=wrap;html=1;container=0;dropTarget=0;collapsible=0;recursiveResize=0;outlineConnect=0;portConstraint=eastwest;newEdgeStyle={&quot;edgeStyle&quot;:&quot;elbowEdgeStyle&quot;,&quot;elbow&quot;:&quot;vertical&quot;,&quot;curved&quot;:0,&quot;rounded&quot;:0};fillColor=#A8DADC;strokeColor=#457B9D;labelBackgroundColor=none;fontColor=#1D3557;" parent="1" vertex="1">
          <mxGeometry x="240" y="-500.00000000000006" width="125" height="1240" as="geometry" />
        </mxCell>
        <mxCell id="aQoF5F5WLzF5CA5ig07Y-31" value="" style="html=1;points=[];perimeter=orthogonalPerimeter;outlineConnect=0;targetShapes=umlLifeline;portConstraint=eastwest;newEdgeStyle={&quot;edgeStyle&quot;:&quot;elbowEdgeStyle&quot;,&quot;elbow&quot;:&quot;vertical&quot;,&quot;curved&quot;:0,&quot;rounded&quot;:0};labelBackgroundColor=none;fillColor=#A8DADC;strokeColor=#457B9D;fontColor=#1D3557;" parent="aQoF5F5WLzF5CA5ig07Y-30" vertex="1">
          <mxGeometry x="57.5" y="70" width="10" height="1150" as="geometry" />
        </mxCell>
        <mxCell id="aQoF5F5WLzF5CA5ig07Y-33" value="chequearSaldo" style="html=1;verticalAlign=bottom;startArrow=none;endArrow=block;startSize=8;edgeStyle=elbowEdgeStyle;elbow=vertical;curved=0;rounded=0;labelBackgroundColor=none;strokeColor=#457B9D;fontColor=default;startFill=0;" parent="1" source="aQoF5F5WLzF5CA5ig07Y-29" target="aQoF5F5WLzF5CA5ig07Y-6" edge="1">
          <mxGeometry x="0.4328" relative="1" as="geometry">
            <mxPoint x="60" y="-80" as="sourcePoint" />
            <mxPoint x="400" y="-101" as="targetPoint" />
            <Array as="points">
              <mxPoint x="-10" y="-90" />
              <mxPoint x="-30" y="-100" />
              <mxPoint x="-60" y="-80" />
            </Array>
            <mxPoint as="offset" />
          </mxGeometry>
        </mxCell>
        <mxCell id="aQoF5F5WLzF5CA5ig07Y-35" value="notificar" style="html=1;verticalAlign=bottom;endArrow=open;dashed=1;endSize=8;edgeStyle=elbowEdgeStyle;elbow=vertical;curved=0;rounded=0;labelBackgroundColor=none;strokeColor=#457B9D;fontColor=default;" parent="1" source="aQoF5F5WLzF5CA5ig07Y-29" edge="1">
          <mxGeometry x="-0.698" relative="1" as="geometry">
            <mxPoint x="-110.5" y="649.05" as="targetPoint" />
            <Array as="points">
              <mxPoint x="40" y="649" />
              <mxPoint x="100.5" y="679.05" />
            </Array>
            <mxPoint x="240.5" y="649.05" as="sourcePoint" />
            <mxPoint as="offset" />
          </mxGeometry>
        </mxCell>
        <mxCell id="aQoF5F5WLzF5CA5ig07Y-36" value="notificar" style="html=1;verticalAlign=bottom;endArrow=open;dashed=1;endSize=8;edgeStyle=elbowEdgeStyle;elbow=vertical;curved=0;rounded=0;labelBackgroundColor=none;strokeColor=#457B9D;fontColor=default;" parent="1" source="aQoF5F5WLzF5CA5ig07Y-29" target="aQoF5F5WLzF5CA5ig07Y-6" edge="1">
          <mxGeometry x="-0.6988" relative="1" as="geometry">
            <mxPoint x="-116" y="710" as="targetPoint" />
            <Array as="points">
              <mxPoint x="-10" y="530" />
              <mxPoint x="125" y="710" />
              <mxPoint x="145" y="700" />
              <mxPoint x="101" y="710" />
            </Array>
            <mxPoint x="246" y="710" as="sourcePoint" />
            <mxPoint as="offset" />
          </mxGeometry>
        </mxCell>
        <mxCell id="aQoF5F5WLzF5CA5ig07Y-37" value="notificar" style="html=1;verticalAlign=bottom;endArrow=open;dashed=1;endSize=8;edgeStyle=elbowEdgeStyle;elbow=vertical;curved=0;rounded=0;labelBackgroundColor=none;strokeColor=#457B9D;fontColor=default;" parent="1" source="aQoF5F5WLzF5CA5ig07Y-29" edge="1">
          <mxGeometry x="-0.6996" relative="1" as="geometry">
            <mxPoint x="-110.5" y="439.04999999999995" as="targetPoint" />
            <Array as="points">
              <mxPoint x="30" y="440" />
            </Array>
            <mxPoint x="240.5" y="439.04999999999995" as="sourcePoint" />
            <mxPoint as="offset" />
          </mxGeometry>
        </mxCell>
        <mxCell id="aQoF5F5WLzF5CA5ig07Y-38" value="notificar" style="html=1;verticalAlign=bottom;endArrow=open;dashed=1;endSize=8;edgeStyle=elbowEdgeStyle;elbow=vertical;curved=0;rounded=0;labelBackgroundColor=none;strokeColor=#457B9D;fontColor=default;" parent="1" source="aQoF5F5WLzF5CA5ig07Y-29" edge="1">
          <mxGeometry x="-0.6988" relative="1" as="geometry">
            <mxPoint x="-110.5" y="334.52" as="targetPoint" />
            <Array as="points">
              <mxPoint x="40" y="335" />
            </Array>
            <mxPoint x="240.5" y="334.52" as="sourcePoint" />
            <mxPoint as="offset" />
          </mxGeometry>
        </mxCell>
        <mxCell id="aQoF5F5WLzF5CA5ig07Y-39" value="notificar" style="html=1;verticalAlign=bottom;endArrow=open;dashed=1;endSize=8;edgeStyle=elbowEdgeStyle;elbow=vertical;curved=0;rounded=0;labelBackgroundColor=none;strokeColor=#457B9D;fontColor=default;" parent="1" source="aQoF5F5WLzF5CA5ig07Y-29" edge="1">
          <mxGeometry x="-0.6979" relative="1" as="geometry">
            <mxPoint x="-110.5" y="230" as="targetPoint" />
            <Array as="points">
              <mxPoint x="30" y="230" />
            </Array>
            <mxPoint x="240" y="230" as="sourcePoint" />
            <mxPoint as="offset" />
          </mxGeometry>
        </mxCell>
        <mxCell id="aQoF5F5WLzF5CA5ig07Y-40" value="" style="line;strokeWidth=1;fillColor=none;align=left;verticalAlign=middle;spacingTop=-1;spacingLeft=3;spacingRight=3;rotatable=1;labelPosition=right;points=[];portConstraint=eastwest;strokeColor=#457B9D;dashed=1;perimeterSpacing=0;movable=1;resizable=1;deletable=1;editable=1;locked=0;connectable=1;labelBackgroundColor=none;fontColor=#1D3557;" parent="1" vertex="1">
          <mxGeometry x="-455" y="594" width="1055" height="8" as="geometry" />
        </mxCell>
        <mxCell id="aQoF5F5WLzF5CA5ig07Y-41" value="chequearStock" style="html=1;verticalAlign=bottom;startArrow=none;endArrow=block;startSize=8;edgeStyle=elbowEdgeStyle;elbow=vertical;curved=0;rounded=0;labelBackgroundColor=none;strokeColor=#457B9D;fontColor=default;startFill=0;" parent="1" source="aQoF5F5WLzF5CA5ig07Y-29" target="aQoF5F5WLzF5CA5ig07Y-31" edge="1">
          <mxGeometry relative="1" as="geometry">
            <mxPoint x="105" y="-150" as="sourcePoint" />
            <mxPoint x="229.99999999999955" y="-149.80999999999972" as="targetPoint" />
            <Array as="points">
              <mxPoint x="110" y="-20" />
            </Array>
            <mxPoint as="offset" />
          </mxGeometry>
        </mxCell>
        <mxCell id="aQoF5F5WLzF5CA5ig07Y-43" value="mostrarTasaYComision" style="html=1;verticalAlign=bottom;endArrow=open;dashed=1;endSize=8;edgeStyle=elbowEdgeStyle;elbow=vertical;curved=0;rounded=0;labelBackgroundColor=none;strokeColor=#457B9D;fontColor=default;" parent="1" edge="1">
          <mxGeometry x="-0.5128" relative="1" as="geometry">
            <mxPoint x="-111" y="36" as="targetPoint" />
            <Array as="points">
              <mxPoint x="102" y="36" />
            </Array>
            <mxPoint x="297.5" y="36" as="sourcePoint" />
            <mxPoint x="1" as="offset" />
          </mxGeometry>
        </mxCell>
        <mxCell id="aQoF5F5WLzF5CA5ig07Y-44" value="" style="line;strokeWidth=1;fillColor=none;align=left;verticalAlign=middle;spacingTop=3;spacingLeft=6;spacingRight=3;rotatable=1;labelPosition=right;points=[];portConstraint=eastwest;strokeColor=#457B9D;dashed=1;perimeterSpacing=0;movable=1;resizable=1;deletable=1;editable=1;locked=0;connectable=1;labelBackgroundColor=none;fontColor=#1D3557;fontStyle=1;spacing=6;" parent="1" vertex="1">
          <mxGeometry x="-318" y="180" width="808" height="8" as="geometry" />
        </mxCell>
        <mxCell id="aQoF5F5WLzF5CA5ig07Y-46" value="" style="line;strokeWidth=1;fillColor=none;align=left;verticalAlign=middle;spacingTop=3;spacingLeft=6;spacingRight=3;rotatable=1;labelPosition=right;points=[];portConstraint=eastwest;strokeColor=#457B9D;dashed=1;perimeterSpacing=0;movable=1;resizable=1;deletable=1;editable=1;locked=0;connectable=1;labelBackgroundColor=none;fontColor=#1D3557;fontStyle=1;spacing=6;" parent="1" vertex="1">
          <mxGeometry x="-395.5" y="390" width="945.5" height="8" as="geometry" />
        </mxCell>
        <mxCell id="aQoF5F5WLzF5CA5ig07Y-47" value="" style="line;strokeWidth=1;fillColor=none;align=left;verticalAlign=middle;spacingTop=-1;spacingLeft=3;spacingRight=3;rotatable=1;labelPosition=right;points=[];portConstraint=eastwest;strokeColor=#457B9D;dashed=1;perimeterSpacing=0;movable=1;resizable=1;deletable=1;editable=1;locked=0;connectable=1;labelBackgroundColor=none;fontColor=#1D3557;" parent="1" vertex="1">
          <mxGeometry x="-425" y="490" width="995" height="8" as="geometry" />
        </mxCell>
        <mxCell id="0O0PceOjvOKP3MbgqYix-2" value="alt" style="shape=umlFrame;whiteSpace=wrap;html=1;pointerEvents=0;fillColor=#A8DADC;strokeColor=#457B9D;movable=1;resizable=1;rotatable=1;deletable=1;editable=1;locked=0;connectable=1;labelBackgroundColor=none;fontColor=#1D3557;" parent="1" vertex="1">
          <mxGeometry x="-341" y="-120" width="871" height="470" as="geometry" />
        </mxCell>
        <mxCell id="0O0PceOjvOKP3MbgqYix-3" value="[chequearSaldo()==true]" style="text;whiteSpace=wrap;html=1;fontColor=#1D3557;fontStyle=1;fontSize=9;" parent="1" vertex="1">
          <mxGeometry x="-340" y="-90" width="210" height="47.44" as="geometry" />
        </mxCell>
        <mxCell id="0O0PceOjvOKP3MbgqYix-4" value="" style="line;strokeWidth=1;fillColor=none;align=left;verticalAlign=middle;spacingTop=3;spacingLeft=6;spacingRight=3;rotatable=1;labelPosition=right;points=[];portConstraint=eastwest;strokeColor=#457B9D;dashed=1;perimeterSpacing=0;movable=1;resizable=1;deletable=1;editable=1;locked=0;connectable=1;labelBackgroundColor=none;fontColor=#1D3557;fontStyle=1;spacing=6;" parent="1" vertex="1">
          <mxGeometry x="-273.5" y="120" width="733.5" height="8" as="geometry" />
        </mxCell>
        <mxCell id="0O0PceOjvOKP3MbgqYix-5" value="[chequearSaldo()==false]" style="text;whiteSpace=wrap;html=1;fontColor=#1D3557;fontStyle=1;fontSize=9;" parent="1" vertex="1">
          <mxGeometry x="-333" y="295.56" width="210" height="47.44" as="geometry" />
        </mxCell>
        <mxCell id="0O0PceOjvOKP3MbgqYix-6" value="" style="line;strokeWidth=1;fillColor=none;align=left;verticalAlign=middle;spacingTop=3;spacingLeft=6;spacingRight=3;rotatable=1;labelPosition=right;points=[];portConstraint=eastwest;strokeColor=#457B9D;dashed=1;perimeterSpacing=0;movable=1;resizable=1;deletable=1;editable=1;locked=0;connectable=1;labelBackgroundColor=none;fontColor=#1D3557;fontStyle=1;spacing=6;" parent="1" vertex="1">
          <mxGeometry x="-332" y="290" width="842" height="8" as="geometry" />
        </mxCell>
        <mxCell id="0O0PceOjvOKP3MbgqYix-7" value="" style="html=1;verticalAlign=bottom;startArrow=none;endArrow=block;startSize=8;edgeStyle=elbowEdgeStyle;elbow=vertical;curved=0;rounded=0;labelBackgroundColor=none;strokeColor=#457B9D;fontColor=default;startFill=0;" parent="1" edge="1">
          <mxGeometry relative="1" as="geometry">
            <mxPoint x="65" y="65.65000000000009" as="sourcePoint" />
            <mxPoint x="150" y="65" as="targetPoint" />
            <Array as="points">
              <mxPoint x="342" y="65.65" />
            </Array>
          </mxGeometry>
        </mxCell>
        <mxCell id="0O0PceOjvOKP3MbgqYix-8" value="guardaTransacción" style="html=1;verticalAlign=bottom;endArrow=open;endSize=8;edgeStyle=elbowEdgeStyle;elbow=vertical;curved=0;rounded=0;labelBackgroundColor=none;strokeColor=#457B9D;fontColor=default;" parent="1" edge="1">
          <mxGeometry x="-0.0444" relative="1" as="geometry">
            <mxPoint x="-111" y="84" as="targetPoint" />
            <Array as="points">
              <mxPoint x="30" y="84" />
            </Array>
            <mxPoint x="55" y="84" as="sourcePoint" />
            <mxPoint as="offset" />
          </mxGeometry>
        </mxCell>
        <mxCell id="0O0PceOjvOKP3MbgqYix-9" value="notificar" style="html=1;verticalAlign=bottom;endArrow=open;dashed=1;endSize=8;edgeStyle=elbowEdgeStyle;elbow=vertical;curved=0;rounded=0;labelBackgroundColor=none;strokeColor=#457B9D;fontColor=default;" parent="1" source="aQoF5F5WLzF5CA5ig07Y-29" target="aQoF5F5WLzF5CA5ig07Y-6" edge="1">
          <mxGeometry x="-0.6988" relative="1" as="geometry">
            <mxPoint x="-118.5" y="100" as="targetPoint" />
            <Array as="points">
              <mxPoint x="-10" y="110" />
            </Array>
            <mxPoint x="10" y="100" as="sourcePoint" />
            <mxPoint as="offset" />
          </mxGeometry>
        </mxCell>
        <mxCell id="0O0PceOjvOKP3MbgqYix-10" value="notificar" style="html=1;verticalAlign=bottom;endArrow=open;dashed=1;endSize=8;edgeStyle=elbowEdgeStyle;elbow=vertical;curved=0;rounded=0;labelBackgroundColor=none;strokeColor=#457B9D;fontColor=default;" parent="1" source="aQoF5F5WLzF5CA5ig07Y-29" target="aQoF5F5WLzF5CA5ig07Y-6" edge="1">
          <mxGeometry x="-0.6988" y="1" relative="1" as="geometry">
            <mxPoint x="-102" y="149" as="targetPoint" />
            <Array as="points">
              <mxPoint x="-1" y="149" />
            </Array>
            <mxPoint x="64" y="149" as="sourcePoint" />
            <mxPoint as="offset" />
          </mxGeometry>
        </mxCell>
        <mxCell id="K810_eMav5t4Bzsohy6R-1" value="" style="shape=image;verticalLabelPosition=bottom;labelBackgroundColor=default;verticalAlign=top;aspect=fixed;imageAspect=0;image=data:image/png,iVBORw0KGgoAAAANSUhEUgAABQQAAANiCAYAAAA348TmAAAAAXNSR0IArs4c6QAAAARnQU1BAACxjwv8YQUAAAAJcEhZcwAADsMAAA7DAcdvqGQAAP+lSURBVHhe7P0PdFXlnej/f46i1apjq7WaCR5A+BXGu8bYlsZISFhOoQXke1Gvhp9IgCb2d0eDlbsEcpdXSYKO6xLCWqBGZ75tqBCYjqlLy10KKHa8ENEDzcxYZ61e6AWRI5lo/TNa/2Cn2PPbn/3nnH1Ozkn2Pjk7OX/er7UOOXufnSfPfp5n72R/eP6EKioqYgIAAAAAAACgJJxhfwUAAAAAAABQAoo2IBie9HvpqvlA/ubKP9p7UAhOf3utvPWDR+Wd71baewAAAAAAAJBLYzJkWIN1LeNPy2tHLpZHfjf0jw+F/igrZn4sV9vbpvcvkMbfnGVvDBYKfSH/5Vsfybwv69aXpOvl8+WVWP6NjM7m3IpZKDRefn/Df5cPv2K8l3+Vi5/4f+XclHoLhSrl/eVL5VN7W4Wi22T8Lw/ZWwl+jkV60xa0y4PLqyU8wdg4sUOW3vK4HM7DawkAAAAAAHhXlD0EY7Ez5dAH48z3b79/dl4GA4ud09PP/Tr5g7XyzndvkFMXh+yjksViJ+Xc6O/M92dF/2VQMDDf6Dm+84P/KqdC6c+n0IUWtMu2FjsYCAAAAAAAikbe9xB0i/eoK8JedMV2bhosG7jq6/ZWsky9//xyegB+5qHXn59jvTr13Ufl/XBuziUfXb/xgLTUivR2N8g9Dx+x9wIAAAAAgELHoiII1Hn775LLf7rCfIWf+J/ylahITP5STl1hH4D8dmKH/PiR39obAAAAAACgGAzZQ9DqySey+18ulEOXfCL/dfwf5DL94LMvye4j58tTnyS+NVOvv9DXP5WfTP2DvH3yQvkfx8809/lJ1224XnRZzTd4/h/lv4RPybyLT9t7xslrJ8+TR+y8Zstvul56CDppftNI0ywvw9tGmT1nlNkrKWWm8yheO/Fzud4pW8Pb739ZnoueO6JjvXJ6CGpA8KJjrvYw+b9KtPYvk/ZnO9dfrnsI6hyGn33revn9VX8p/6Hb8js5K7pHLv7HX8k4uwegk/+hnP36/5RL/+mkveUtXeXk8Y/G91/2zyK//6sG+TBs9bI8O/qicfzO5OMvrpTfXz1XPjOO0XTV2R/+q/zZ/v9Xzn0/cVy2zB6CE5g3EAAAAACAYuOph+A3p74vLa5gkXz5DzLvmx/JzeePbO60b079KJB0vQqd/7k8+M2PXUE7dVquHv/piPIQRLrmQilTrTTj5WW4zCizxm9+IjNS5rG79i8+kkZ32Rouu/gzaQw7oaMEP8eOhBnAuuovzSHD575h78wjn/3Vf5f37KCdisnX5T/CS+XtGxbK6RHME+g73a9Ml/eX//d4MFD9R3i2vP1X37G3tD2Ml9/XLjWPcdfSf3zlL+X9//z/K9p5DQEAAAAAwMh5CAielsu+rD3GLpC2ly+W21++ULpO6oIdp+Wbl7gDXn5puqdzmm4sdpY80nuRNBqv21++QF6z96djBdg+M4NgTh6s79N8ZN87MKh0Tae0B+WFZnrxNN/XD/4g377EPMKkvQ2/fbHx5v0vx3++vtqOfFleO2Ud4/BzbDY+rX0kvqhI9D8vlY/kRbn4fyXPuReLHZKL4sOKt8l59v7RpD3/3gsbX6PbpOwJa5izDnH+WvR3EvvKbPm9PcQ5duzv4kOgvxY1jpd/la/ZxzuvpN6BHtN10+DfZ/I7+cr+/2kd/7/sMgl/MznQ9/t/jR+TSFcDjiMfkh2adqf8Va29AQAAAAAAioqnHoLmcN/fnCXRWMxcwffVN881g22XXfRHCY+gJ1JQ6Xpy3h/lm182vr5/QTwPSvPxyvHzMg5bHlZA6er3P/Ub4/t/lwgqmmX23pfsrTQu/g+pdAVXo787Rx45nmH4tJ9jR0CDYO/XjqzHXRA+m2j1XHQP49VVj7/8j3vMYNxnExO98/zIJl1r0ZUH5IJjVmAx9v4hOTdqvo3TNC745d/Fj1Fmum/+q72VnWk/+pkc+tUBOdh9m9ScOCDd9zFcGAAAAACAYuMtIPip9txzO0MGPrPfjkBQ6Xry5S/MXnyvvXe2tZ0rQaVr0DkE7/r276Wr5oP4S+dnTKU9JR898iV5W07LvKkfGcf9Xu6a9LnMSDNc2c+x2UhaVOR/6aIiVs+4979Vbh8x9nT47ek/M8pC/lLeW57o0Wj2anTmNvyzP/cdxMw63ei/DFq1+NxfrpDxP/27pP06BPuDG9cmpzvM/IYAAAAAAAAlu8rw5ed9Yb/LraDSdeYlvPrL3oZTx353ntz38oXW0N/PdP7Cz6Txm+/L31z5R/uIBD/HjkTs/ZPyZ3bPuD+Gp+ddL8FCErr4Bnn7Py+VT7+SmGcwFw4/fKtUfqdalrbtkOiEaqn/4Vz7EwAAAAAAUCyyCwg6w2JPnRkfEpvJtV/zESDzke5IvfWpNfT2svNGMg/iYEGle23YnpfwZGJeQn3dfiTzkGEdUmwO/f0na77B3Z/pYiGn0i5s4ufYYqNDbcf9XiT04Yvxef5SX+Of+UXSCr8Jl8rpi+y3KUaW7tA+u3q2uZjI2a8n5ibUV3j/yIYMOw4/+5j8dL/xZsIkmUbgFgAAAACAouIxIJgIbumw1RX2ohnuYbFOIOzqr50y5//TxTVmXPl7aUxaaTdVcrrOYhxBDLcd5N2zrfkKx38kfzMpMWehme9JI1hlOKh0bW9/ekY8WBr++uey4vLBQ4a1N+FdV+qw30QwVgN+hz6wFm0p06Crzc+xI6VDaD/7q7nmUNmzon1ZBcKCctaH9lDmv/qOnL7YWx2Z3yNfN+cBzNTbMZt0/Tjrw3+Ll+PpyTfI+1cxZBgAAAAAAAwtVFFRkTEqE570e2kZnyGg9/4F0vibxKITulrtipkfy9X2dtxn40R0NWFdQOS4FTT0le7XP007T57Dna6fY1Xm48fJ7n+5MOsFQLym6ye/Q5aZ4bUjF8sjv7PTNYcXW8HVwb4kXS+fL6/YQSQ/x/px+ttrZeCq9MNZQx/+q1z8i8RKw7oS71Bz3539+v+Mr9wb2LGh8fL7G/67fPgVc3MQnQvxomPJ5ZAp/WzTDYUq5f3lS+Wz6DYZ/8tD5r5MhipflS6/fl2/8YC0TNghS29hYREAAAAAAIqJ/yHDn42T13TY6v9J7sVnLk7xLzoHnb1D7OP+2Vo52O2td8+V3e+Pk7fdC4iY6V6YFAwMms6dZ82b517cRPMxglWGDUGkGz3+Z9J2Uhf/cBjl975RvsbPSeyzxD45R/5OFwpJWqDFPj4lwOfn2JEKffg7Oe/1bXKZKxiYL3R475/94n/K16K/E6/9U2PH/k7K9v+rnP2hvSONbNL1Ytw/rZOy142fbW+HxEg/us3Iz4s5/TkAAAAAAKD4eOoh6O59BqA0mD0Eaw9IW2WzPEcPQQAAAAAAikbJrjIMwItq+cFdc1lYBAAAAACAIkJAEIF57dc32u8sbI/ttl+7frxDosbXcP19su3Qy3LoqTsJDAIAAAAAUAQICCIQGoy6uuKZeFCK7bHdzkbs8GNyX9sOiZ6wdwAAAAAAgKIw5ByCQDacYJSD7bHdBgAAAAAAcCMgCAAAAAAAAJQQhgwDAAAAAAAAJYSAIAAAAAAAAFBCCAgWoEmNPdLzfEQ2t82394y+oPJQaOkWGsoBAAAAAAAQECwwodBUmVEdNt+XVV0ns0Ih8/1oCioPhZZuoaEcAAAAAACAIiBYYGKxI/LKgaj5fiDykuyLjf6aMEHlodDSLTSUAwAAAAAAUKE7fnRPLNL7j/KnP/3J3gUAAAAAAACgWJ3x7apaWfLD/yZnnEFnQQAAAAAAAKDYhR79ydbY2ed/TQ7uf1H6Dvyjvbsw6YIJ6+vC0tdxrbTvTQyHDM3ZIE+uqpGBnmVyd9cRe681p1ptw+1yU12NlNn7BiLb5enuTtl3NPH9vtOdMl8W1y+XyqpwIt3+Xnn6oTVJ6YZC82X1nrVSbnz/yi0ii1sfkIXG9yjNx6bWTjluD+t0jp1ubtki66SuZZe9kcw8NyO9m4bJgx9+8mCVmcjOpvvl5CxXGRt52GnkYUeacvB6bsopY6e8RKLS13O/tCfVr88y81hvfnltZ2rwsVHj2CeMtrA73hYcXtMNqu34qWMAAAAAAJA/zrjgqxfJ2WeF5D99u9reVTpqW7dKkyuYosqqlkhT/Tx7yz8Npiy+d60ZqEpKt7xGmjrb0y/kEJ4jq/dsdQW3rHysb80uH2YeuoxzS5uHJ+W2KaO1mERYKu9NKWMjDwszlYNHoSkrZFOnVcYJYZle90DW55ZVvXnkp50NPtbIT9VaWd/VJJNS8hBY+/XVdoKpYwAAAAAAEJwz9uyJyHkXXihnnXOBvas0aK+pa6qMN5Ht0jz3Wqn7fpX5au7YLn3WugvZe6tXdnYsi6e5aO4y6YzoBzVyzWzziCQaxJku0fj3LGpaJ336gWsl2Fhsl7TH07M/z2BiwwOysNx4079dOpusc7PyoCcWloVZBoz85MFRZuRjILLOLONM5eAnXStwt8QMPjnpxs+v54R1kM13fn3Wmxd+2pn2OG0yj005L6238iVyiysPftINuu14qWMAAAAAAJA/zrh+wSz57OPP5LNPPrJ3lZiqWpkx+xv2hsjxvY9Ke1fmoarD0ZVcd7Sslh17E0NXdd/+l3vtrXR6pXPuovj3xI7ukoNmUMU/DZjNqNaec0aajYmho2YeWu+Xnf3GhivQGLjIOrm7ZZc53NVdDuXhRJn7MnmOVGrAypWu0rT3dRnlnuUw1ezqzQcP7ax2Zo3xr1FvruHBVr09YQbxps9ME8jNYfvNuu3kuo4BAAAAAECgzvjk9x/KZ6f+IIdfe9XeVRq019SGjl4Z0F5Pq7ZKz/M9sqZxhczKwXBanYtuzZYeI81I/KVzDWYUeUn2pcwPt69Fe3StHrR/eJOl3AyYDU5TgzUn39J3E2T8ZHNX4Ppe3m2/y5FJE8zegTlP1+C73jzw2s40GDf+cn1XI017Xk3OgzP/3+VXxIcNB9N+s2s7QdQFAAAAAAAIzhmh0Dny+w/el9ci/9veVTpie1fLyrnLrGGW/ToH3RJp6nxVNrfNt4/wz5nfbnq5e3475MrE8AT7XW4FWW9BtDMVVLoAAAAAAKC4nfFPkX3yD12b5E9/+pO9q/jUzswcRNKeT+YwywZrrjQdFllWtdzT4hTp0q2tt+e360nMA2fOw9aRo6GnXqUZ2pnohXZCTh4zdxWcN6PWPIG5Ho4adL0N187iPfD6k+cETHo1PDpopeGRtN+MirTtAAAAAAAAyxkHe18smmCgEyyaPtNakVWDGLPaeswVU1Npj7A1bTrEcqq9xwquvHLAWjyhfJK1T/lJ19EfPRYP3kyas0JW3zqyoade6VBSa/7BGmlqnRcfYqp5rm21F4xIMyS0YLz4kjmfXlndVtncOD/p/GY1bhhZIMyQ63rz086iUWvxkJVab8Och590vSr6tgMAAAAAAEyhioqKonm615VXVzvzrbn1a6AlLAM9y+TuLmvRCGuIqNUrbDBd5GNNPPDhJ91JjT2yvi5zoLCv41pp35uSbmSd1LUMvRCErkA71Hx2SeeWKb+qXxeMSJybH37y4JSD+3yVk0ZSfn2kqzIfH5WdTYviC4tkk99MUs/DK3/tbKos7tpqBd7SSGo7ftL1UQ5+2o6fOgYAAAAAAPnjDPtrUTAXWmjS+dTsHRKVPh0C2mit0uoWO/qobNJFGeLHqqgMRHTIaHLAzE+6x7vqpLlHF3tw2Gl2bHftC5aV33WyM6K9xRx2PrIMBuYTnTvPmjcv+fz6eu7PepXhoOrNXzs7In/fuEw6jXob7mf6SdePYm87AAAAAABAiquHIAAAAAAAAIChFVUPQQAAAAAAAABDK7qA4Gu/vtF+Z2F76G2/cv3zC33bi1z/zELfBgAAAAAAY6uoAoIaeLi64pl4AILt4bf98JJeKWz74TXNYt8GAAAAAAD5o2jmEEwNPLDtb3s4uf55hb7tRa5/ZqFvAwAAAACA/MCiIgAAAAAAAEAJYVERAAAAAAAAoIQQEAQAAAAAAABKCAFBw6TGHul5PiKb2+bbe3IrFJonG59ql+tDIXtPaQm6fOGfUyc9W1bIpBJtl7CEQlPlti1GW3i+R26bMrK2UOr3OgAAAAAoFCUfENSH4RnVYfN9WdV1MivHD7Ka/oqf3yc1E4yNqda+UhJ0+cK/0JwNsr7OqJP+7dLc2CnHY7mdRlTT12Djmjk5vpYCSteP0cyDE7QN/GdNniOV5fomLJWzvmHuypre4yZUS8uh9YEFBactaJennjogh35lvJ66U6ZxTwEAAAAA30o+IBiLHZFXDkTN9wORl2RfjoMj8zu2SP2EqHTXN8tzh0tv/Zagy7fUadBo8/MbPAdaQ1NWyKZVNSKRdYEEA1GAju2VQ/36JiqH9v3W3JWt2OHdsqp+h5FStbR0zLX35k5oQbtsa6mWsP4HCwAAAAAgawwZNhzvqpO671fJ3S277D25oQ+vLbXGY3Z3qzxSgsFAR1DlC5FwOCxl9nsvYkcflbuNuqgz6oJgIJQG7Xc0GG3i+3Wy4+jI20Ts8GNyX3dUpPY+2bggt7335l9XbX7t7W6Qyu9US+XNj8lh2jEAAAAA+EZAMCDmUOHlxsPriR1y3yMj63UDAIXkyCPbpNf4WrP8jtwP6TXuqT/mngoAAAAAIxKqqKgoqu4VGoirbbhdbqqrifecGohsl6e7O2Wfq/dLKDRfVu9ZK9PtbVNkndlzKhe0d+DBlmqJdjfIzQ8fsfcm0+GeOpdbX8e10r7Xlbc5G+TJVTUy0LNM7u5KfK/Xc/Od7pT5srh+uVRWJXqbDfT3ytMPrUlbZuXG96/cIrK49QFZaHyP0nxsak0MQfVbvua5GendNEwe/LDKQWRn0/1ycpar3Ix0dxrppvaGCiIPanC9RY3yesIor92Deul5qWOnHoeSbR37Fc9vtZFfcx66hEHtz0cefKUbdL15zYPHOvYq0X4XySuz2mXlcO3X63U8RPtJPS+VbduZ9qOfybb6sPS2zZR7ns2uDFJdv/GAtEzYIUtveZyegQAAAAAwAkXXQ7C2das0uYIpqqxqiTTVz7O3Roc1tC0q+17IXU+WIM5NAxmL711rBvaS0i2vkabO9vRz04XnyOo9W+PBQKX5WN+aXT7MPHQZ55Y2D0+OcOXTsFTem1JuRroLU84tyDwMrjfjZ1StlfVdTYNW+M2bOvbADII5+U0JmKXykwff6QZQb37yoPzUsV+V9z4p691pm+03+dz8lK8fI0n3yAu9xh1QpOa63M8lCAAAAAAYmaIKCGqvtGuqjDeR7dI891pz3jp9NXdslz5rXYu4WGyXtNufL5q7Tvrs/bmgD9FX6KT3J3plb/rOgb75OTff3uqVnR3L4mkumrtMOiP6QY1cM9s8IokGqKYbj/rO9yxqssvPtYqwn/Kd2PCALNSgS/926Wyyzs3Kg55YWBaOMJirAZ0BXUTDKLdM5xZUHrQ3VpNZb9bPT0q3fInc4sqD1zqO7V0d/8w6l17pdB2vL3fvQJPPOvZk9u3WubnKTF/NHTpYNA2vefCRbmBtx0ce/NSxf2Gj/YaT22+PdW6DVgT2WL7u9uO8ms00M8i27Rz5pew7YXydMCknw4ZD0+6Uv6q1NwAAAAAAI1KccwhW1cqM2YmH5eN7H5X2rtFc0OIKmWgGBI/nflhbjs/NXFCgZbXscEUudd/+lzMEdUwagFoU/57Y0V1y0AwQ+KfB0xnV2tPQSLMxMSzWzEPr/bJTVz91BRqzEllnLmhy3KgL97mVh61yDDIPtTN1aKaRrmvoqJXuE2aQdPrMNAGrvKjjoZk9x261z81VZupN+6ub1zz4STeoevN7blnVsQ/m8G93+91ipVtWPSfe+9Br+fo1knT1uDfMgOBEmWztyooOPT70qwNysPs2qTlxQLrvY7gwAAAAAIxUUQUEtVfaho5eGdCeQau2Ss/zPbKmcYXMGtGQ0/wQ5LnpHGFrtvQYaUbiryHnqIu8JPtSHsj3tWjvodWD9g9vspRrD680aWpA4eRb+m6CjB9BRKHv5d32u0yCyYMGlsZfru9qpGnPq8nl68yvePkVrqBOHtWxV/0nzGGhXvjKg6d0A247HvLgt46z0R9NnXbgmPRrsDNFUHUcWNsBAAAAAIyZoushqMPhVs5dZg2z7A/L9Lol0tT5qmxum28fUbiCOLfQlBWyqXOtTC9PzAeIsVM4dWwH4zzyngd/6QYjH/LgT1DXcT7cHw4/fKtUfqdalrbtkOiEaqn/IXMSAgAAAMBIFeWQYe0dZA6zbLDmu9Khg2VVy0e4OIUfb8ibI5g7q3amjjdObyTnli7d2vol5mIBAz2J+c/MecLSzJUWqDRDOxO9r07IyWPmrmDlOA/xXmr9yXMCJr0aHh20Cq3/Oh66F1wwdWz3UiufIKmhImsIbTLvefCXrinnbcd7HrKt4xGZPEcqNWD51hvxdIO6jkeSrtaBNZfqm0aJjtzhZx+Tn+433uRoTkIAAAAAKGXFtajIlBWypk2HWE6191gP7K8csCbhL59k7Qua/kxr7qwamZPIyiBvRvUgnWPMWolUH6BntfWIrpiays+5+UnX0R89Fg8uTJqzQlabc6gFT4fJWvMP1khT67z40ErNc22rvWBEmiGhuRRkHqJRo37Kl8hKTXeYoG027ddM3/isclYi35nkso7jgTCjzG5qsOdinDJfbtsSsRbYyGC4PPhJN6h683tufuo4O4n5JDUfi++1gnTphsIHdR1nle7U78qsoOZSBQAAAACMSKiioqJontSs4W3Ww/JgvdI5d008OKArgw41D5Y5kX/qSq0+hBa0y8GWaol2N8jND6dPR1eVXe3MM+bWrwGGcFIefJ2bj3QnNfbI+rrMgcK+jmulfW9KupF1Utcy9CIXfso3Y35Vvy7skDg3P5xzc5+DcvI2GnnQ4NTirq1WcCqNpPL1UceOTOWcbR37kSm/A5Fekaoa6Xel66ud+Ug3sHrzlQfvdezHkGWWcg2OtI4zXSsjSVcXA9lWH5betplyz7P+zz+d6zcekJYJO2TpLSwsAgAAAAAjUVyLihx9VDZ19MqADveLixoP8TrcLbvAQNae65LuEyLh+ka5PkPPLXMRiSadK87eYeS1T4fmNVqriLr5OTc/6R7vqpPmHl3IwmGn2bHdtS9YVn7Xyc6I9nZz2PnIMqDjV1B50N5mf9+4TDqNdIcrz2zar8452Dzoe5IFVcea35WahvOz+4121rFMVmrDT+EnD37SDazefOXBex378ea+J8zzSqpbzUfPskEB+aDqONt0NUg6pzYscmKH/Pg5eycAAAAAIG8UVQ/BfOOllyAAjDWrJ6DIzqZFsuPoyH8lBNE7UJk9BGsPSFtlszw3Cv9RAAAAAADFqigXFckXsWfXSNt+7SXYKndNC2JuMQDwTnvu3da2IWmeSp2X8BZzWHBuFu8JTbtTHqw30tv/YE6DgQnV8oO75rKwCAAAAACMAAHBgO1a9aD0Sljqu9fL9WmCgq/9+kb7nYXtobcLUa7LIOht5I9c1+2/vHalyOU10tS5VXqej5ifP9lpzcE40PMT2fzaDdaBNr/ph6bNk47u2yR8YocsXbXH3jtyzs/Z9eMdooPDpzSeI9sOvSyHnrrTDAym5gMAAAAAMDQCggGLxXbLqsoHpVenHksZNawPsVdXPBN/mGV7+O1C4+Wc8mkb+WO4usp2e/W310tff1S+cdl6+e3bzeZXnR9x1o+uHFH6Jr3HnTggbTlc9MP9c2KHH5MpZ3fI0f+7Ss42vqp/eO2GwfkAAAAAAAyJOQTHiPOQ62Db33YhyPU5j/Y2xk6u63K0t3NlrH4uAAAAABQ7AoIAAAAAAABACWHIMAAAAAAAAFBCCAgCAAAAAAAAJYSAYAGa1NhjrhC6uW2+vSe3QqF5svGpdrk+NHhV5FIQdPkWGqc8eraskElF0iaCquNibDulfj8AAAAAgGJEQLDAhEJTZUZ12HxfVnWdzMrxQ7qmv+Ln90nNBGNjqrWvlARdvoUmNGeDrK8zyqN/uzQ3dsrxHK0cO5ayqeNJRjls3hKxAqP2a82c5O/Lx7aj9Zcur77ofWBCtbQcWu8rKDhtQbs89dQBOfQr4/XUnTKtxK8lAAAAAMgnBAQLTCx2RF45EDXfD0Rekn05DtDM79gi9ROi0l3fLM8dLr31ZoIu37Gkvdc2P7/Bc6AqNGWFbFpVIxJZVzTBQOW3jrXc1hvlUFZu78igWNtO7PBuWVW/Q6JSLS0dc+29QwstaJdtLdUS1v9YAAAAAADkndAdP7onFun9R/nTn/5k70Kp0of4g8ZDfLS7QW5++Ii9F8ViVltEmqp6pXPumqIKdAZJe/0t7toqC8ujsrPjftmxt7CuC+0h+OSqGunruFba946szqf96GeyrT4svW0z5Z5nh07r+o0HpKVWpNe4l9zDvQQAAAAA8s4Z366qlSU//G9yxhl0FixlGvhYsbxa5MQOue+R39p7gVI3Wcq1Z2DkiYILBubakUe2Sa/xtWb5Hd6G/xr3kh9zLwEAAACAvBR69CdbY2ef/zU5uP9F6Tvwj/ZujBYNxNU23C431dVImb1vILJdnu7ulH1HE71wQqH5snrPWplub5si66SuZZe9MTJeegeaQyfrwoN6Gzm9kAZ6lsndXYnv9XpuvtOdMl8W1y+XyqpwIt3+Xnn6oTVpy6zc+P6VW0QWtz4gC43vUZqPTa2JYbB+y9c8NyO9m4bJg1+Dyyxq5PUJI6+7Bw3Z9VK+ThkOJdvy9cocety5RMoyzENo9VyMys6mRbLDybfHcgiyjlX8e4ZsC1mka5exk1c9v76e+6XdVQ/KT13Ey6zaKLOU4c2Drq0s26/XXoJmD8EJO2TpLY/L4ZT6BgAAAACMvTMu+OpFcvZZIflP3662d2E01bZulSZXQEeVVS2Rpvp59tbomH+d1n9U9r2Qux49QZybBjIW37vWDKQkpVteI02d7ennxwvPkdV7trqCL1Y+1rdmlw8zD13GuaXNw5Ny25Q0efBocJkZP6Nqrazvahq0wm/elO9wju2VQ/3G1/JamTHZ2uXQYNo1Vcab/v3yyjFrn/JTDqYc1rEGMDfbC4c86QT6jJ/tXlBkJCsuWwFSq4wTwjK97oGktuOnLqwAn11mw8x1OJL2e+SFXuMuIVJznbe5BAEAAAAA+emMPXsict6FF8pZ51xg78JoiQdDItulee61Uvf9KvPV3LFd+qy1CeJisV3Sbn++aO466bP354IGCK7Qyf9P9EquRkX6OTff3uqVnR3L4mkumrtMOiP6QY1cM9s8IokGhqaLzgFnfc+iJrv8XCvB+infiQ0PyEINuvRvl84m69ysPOiJhWVhlgE57c3XZJbZuniZxdMtXyK3uM7Na/nG9q6Of2aVkc4hmDheX+7egSaf5TscXWzj73+mg03DUjnrG9ZOx+zrzIBb389cPfl8lIMj13Xsh590rSDfEjMQN5B6fj0nrIPcvNbF7NutMnO1SX01d2i5JxtR+z3yS9mn2ZwwKeOw4dC0O+Wvau0NAAAAAEBeOuP6BbPks48/k88++cjehVFXVSszZicCJcf3PirtXbkZCuzNFTLRDAgez/3wvhyfmwaXdrSsTprPTfftf3lw4CNBg2CL4t8TO7pLDppBFf80oDOjWnt2GWk2JobmmnlovV92ak84VxDKj9qZOrTXSNc1LNZK9wkzyDR9ZppATV6UrwcvvmSeQ1n1nKSedc45H3zR2lZZlUMO6zh29FG5Ox6AswN8OgTY3me+Gh5NGrrs2eQ5UmnOSbhO7m7ZlXR++7qMcncN1/VaF2aQ8Va7zFxtUr1pf3WMtP3qcW+YAcGJktLZ0xxOfOhXB+Rg921Sc+KAdN/HcGEAAAAAyFdnfPL7D+WzU3+Qw6+9au/CaNGeRRs6emVAe+Ws2io9z/fImsYVMmsEQ07zRZDnpvOqrdnSkzSEc8h58iIvDVpVd1+LBnZWZ7HarrPIxOA0NVhy8i19N0HGp0ZLhqGBmvGX67saadrzavK5OcNWL78iHkzLq/L1QPNrBuhcw4YTvRwTZem3HOJyWscBmjTB7B3Y9/Jua3sYvuqi/4Q5nHdowbRfAAAAAEBhOSMUOkd+/8H78lrkf9u7MJp0SOfKucusoZ79Oo/YEmnqfFU2t823jyhcQZybM//a9HL3/GulqdDKd3/3djOAGR82bA4XjsrObm/BsWIwMaxdcb3xXhd2kG+MHX74Vqn8TrUsbdsh0QnVUv9D5hkEAAAAgHx1xj9F9sk/dG2SP/3pT/YujDbtmWMO9Wyw5vLSYXtlVctHtDiFP2/Im8PMCzaU2pmZgxwjObd06dbW2/Ov9STmXzOHdqaZKy1QaYZVJnq3nZCTrgUyvIj3ztKVeFPm+Iu/0gxT9V++Q/f+CrR87cVFnGHD5tDglMVEsi2HQvFm1JonsDycMpdiGt7r4pj061Df8gmSGjq0hl+nkWX71WOs+UbfNH5qeoeffUx+ut94k+X9BAAAAAAQvDMO9r5IMHCMaA+gNW06zHOqvccKiLxywJrcv3yStS9o+jOtecFqZE4iK4M4wYzpM62VXjU4MKutx1ytNJWfc/OTrqM/eiweFJo0Z4WsNudQC1586KsOaW2dFx+6qnmubbUXa0gzHNOLaNRaNGOlpjtMwDSbtmOmb/bQS+Q7kyDKN54/c9jwPHO48MCBvYOCe37KoeA4cynWbZXNjfOT2s+sxg1pA7nD1YWWqxlENdrkTQ1WoFGHGt+2JWItNOIy4vY79bsyK6j5RgEAAAAAoyZUUVHBU90YsYYEWr2ABtNFEtbEH8x15dWh5nEb6Fk2eLVYH0IL2uVgS7VEuxvk5ofTp6Nzvq125nFz69cATjgpD77OzUe6kxp7ZH1d5kBhX8e10r43JV1dEKJl6IU2/JRvxvyqfl2sIXFufmhQZnHXVisok0bSufkoX0emc8y2fLPhlJ1EemV6laTPp59yCKiOHV7S95tu5uOjsrNpUXxhEV9tPUN7GDDKWapqpD9dmZlbKYZpv7pwyLb6sPS2zZR7nk1/jLp+4wFpmbBDlt7CwiIAAAAAkI/OsL9iDOhqppt0YQgd7hcXNR7idYhgdkGlrD3XJd0nRML1jXJ9ht5j5kIWTTpfnb3DyGufDmdstFZ/dfNzbn7SPd5VJ809upiGw06zQ+enGx1WftfJzoj2uHPY+cgyGKi0p9ffNy6TTiPd4c4lm7ajcw42D/qeZEGXr9NDbXpVTcaeaH7KoRBZ9aDtPbn99PXcn7TKsJ+60PawUvc7dWuk3dexTFbqRZ0i2/argdo5tWGREzvkx8/ZOwEAAAAABYkegojz0ksQQGny2jtQmT0Eaw9IW2WzPJdlgBwAAAAAEBx6CCIu9uwaaduvvQRb5a5p6XsJAig9oWl3yoP1YZH9Dw4bDEyolh/cNZeFRQAAAAAgDxEQHGOv/fpG+51lrLf/ZnaH9EpY6rvXy/XTQjlPn2223djO720VmjZPOrpvk/CJHbJ01R5779B2/XiH6IDkcP19su3Qy3LoqTsJDAIAAABAHiEgOIb04fvqimfiD+H5sv3dszuk94TI3zx5Q07SY5tttgtz26SzB5w4IG0+FgiJHX5M7mvbIfYC4gAAAACAPMMcgmPEefh2sM0222w78m0bAAAAAFBcCAgCAAAAAAAAJYQhwwAAAAAAAEAJISAIAAAAAAAAlBACggjcpMYe6Xk+Ipvb5tt7cisUmicbn2qX60t0FdOgy7fQOOXRs2WFTCqSNhFUHRdj2yn1+wEAAAAAeEFAEIEKhabKjOqw+b6s6jqZleOHdE1/xc/vk5oJxsZUa18pCbp8C01ozgZZX2eUR/92aW7slOMeV8VN5QTK1szJbXlmk66XOg6F5ssaDYK6X8ME+fKx7Wj9jbjc9T4woVpaDq33FRSctqBdnnrqgBz6lfF66k6ZVuLXEgAAAIDiRkAQgYrFjsgrB6Lm+4HIS7IvywBNJvM7tkj9hKh01zfLc4dLb32coMt3LGnwbPPzGzwHqkJTVsimVTUikXUjCgbmm6Dq2E+6futiLMUO75ZV9TskKtXS0jHX3ju00IJ22dZSLWH9jwUAAAAAKAEEBBG44111Uvf9Krm7ZZe9Jzf0Ib6lViTa3SqPlGAw0BFU+Y61cDgsZfZ7L2JHH5W7jXKoM8qhWIKBjuHqOBbbJe167sZr0dx10mfvH47XtuO3LsZa7PBjcl93VKT2Ptm4YPgg5vzrqs2vvd0NUvmdaqm8+TE5XGRtCAAAAADcCAiiIJlDhZcbD/Endsh9j/zW3gsAliOPbJNe42vN8ju8Df817iU/5l4CAAAAoESEKioq6AYBzzQQV9twu9xUVxPvMTQQ2S5Pd3fKvqOJpqRzmq3es1am29umyDqz91YuaO/Agy3VEu1ukJsfPmLvTabDHHU+ub6Oa6V9rytvczbIk6tqZKBnmdzdlfher+fmO90p82Vx/XKprEr0shro75WnH1qTtszKje9fuUVkcesDstD4HqX52NSaGAbrt3zNczPSu2mYPPg1uMyiRl6fMPK6e1AvPS/l65ThULItXz/cdfzzcLusdPJspLvTSHdHSrpe82ClK7KzaZG8MmvodLO9huLfl+FYr+kGXRfx9lBtlEG5vdM26NrKsv1O+9HPZFt9WHrbZso9z2Y+7vqNB6Rlwg5Zesvj9AwEAAAAUBLoIQhfalu3SpMroKPKqpZIU/08e2t0WEP8orLvhdz16Ani3DSQsfjetWZgLynd8hpp6mxPPydbeI6s3rM1HgxUmo/1rdnlw8xDl3FuafPwpNw2xUPvqQwGl5nxM6rWyvqupkEr/OZN+XoWlfJbn5T17jwb6S5MSTebPFTemy7dkdXFWPNTDnpsvD2kBANTjaT9Hnmh16hFkZrrvM0lCAAAAAClgoAgPNOeRddUGW8i26V57rXm3GP6au7YLn3W2gRx2c5p5oUGCK7Qyf9P9Mre9J0DffNzbr691Ss7O5bF01w0d5l0RvSDGrlmtnlEEg2STZdo/HsWNdnl51oJ1k/5Tmx4QBZq0KV/u3Q2Wedm5UFPLCwLswzIaQ+yJrPM1sXLLJ5u+RK5xXVuXss3tnd1/DOrjHql03W8vtw90kw+y9e7sJSVh2XAPr8h0/WVhzTp9lh1UTnrG9YhhqCuIa/pBloXs2+32o6rTeqruUMH+SYbUfs98kvZd8L4OmFSxmHDoWl3yl/V2hsAAAAAUCIICMK/qlqZMTsRuDi+91Fp78rNUGBvrpCJZkDweO6H9+X43HQl1x0tq2WHK3Kp+/a/PDjwkaCBl0Xx74kd3SUHzaCKfxo8nVGtPQ2NNBsTQ3PNPLTeLzv7jQ1XoNGP2pk6nNRI1zU82Er3CTPINH1mmkBNXpSvD5F15oIben7udMvD7sCd/zyYQ23d6W6xyqyses6gnpWFwms5mD3+brXbjqtNqjftr46Rtl897g0zIDhRJlu74nQ48aFfHZCD3bdJzYkD0n0fw4UBAAAAlA4CgvBMexZt6OiVAe2Vs2qr9DzfI2saV8isAh7m6Ajy3HRetTVbeow0I/HXkHOzRV6SfSmBiX0t2oNq9aD9w5ss5dq7Kk2aGiw5+Za+myDjU6Mlw9BAzfjL9V2NNO15NfncnPnpLr8iHtzKq/L1oe/l3fa7ofnNQ380daj7MenX4FaB81UO/SfM4bxDC6b9AgAAAECpIyAIX3QY4cq5y6yhnv1hmV63RJo6X5XNbfPtIwpXEOcWmrJCNnWulenlifkAS1Wxli91bPFeDnaQb4wdfvhWqfxOtSxt2yHRCdVS/0PmGQQAAABQOggIwjftmWMO9Wyw5vLSYXtlVctHcUGEN+TNYeYFG0rtTB1vnN5Izi1durX1S8yFEAZ6EvPsmXOgpZkrLVBphlUmevmdkJPHzF2exXtn9SfPCZj0anh00ErD/st36N5f+VC+OcnD5DlSqUGyt94YVGb5I1d1YfeGLJ8gqaFDaxh6Glm2Xz3Gmm/0TeOnpnf42cfkp/uNN1neTwAAAACgEBEQhGfaA2hNmw7znGrvsQI8rxywJvcvn2TtC5r+TGtesBqZk8jKIG9G9SCdy85a8VaDA7PaeszVSlP5OTc/6Tr6o8figZ5Jc1bIanMOteDpUF1r/sEaaWqdFx/Cq3mubbUXa0gzHNOLaNQom/IlslLTHSZgmk3bMdM3Pquclch3JmNVvm7+8pCYg1CH2S6+1wqmeR2iPNpyWRda72Yw2WiTNzVY5aBlcNuWiLXQiMuI2+/U78qsoOYbBQAAAIACFqqoqOApCZ5YQwKtwMVguhDGmviDua5AO9QcauaiCqkrlPoQWtAuB1uqJdrdIDc/nD4dXdl2tTOfnVu/BrLCSXnwdW4+0p3U2CPr6zIHCvs6rpX2vSnpRtZJXcvQC234Kd+M+VX9ulhD4tz80KDM4q6tVlAmjaRz81G+jkznmG35+uGkm/r9Tp6yzcOQx6bUu686DuhYR67rIlN7GIj0ilTVSL/72BG0X104ZFt9WHrbZso9z6Y/Rl2/8YC0TNghS29hYREAAAAApYEegvAsdvRR2aQLQyQtfhA1HuJ1iGB2QaWsPdcl3SdEwvWNcn2GHkvmQhZNOl+dvcPIa58OZ2y0VnR183NuftI93lUnzT26mIbDTrNju2tfsKz8rpOdEe3l5bDzkWUwUGlPr79vXCadRrrDnUs2bUfnHGwe9D3J8qF8/eThzX1PmPWQdE792n6WDRsEHku5rgttDyt1v5OelkHHMlmpF3WKbNuvBqzn1IZFTuyQHz9n7wQAAAAAmOghiILlpZcggNLktXegMnsI1h6QtspmeW40/2MDAAAAAMYIPQRRsGLPrpG2/dpLsFXumjb0vGYASkdo2p3yYH1YZP+DwwYDE6rlB3fNZWERAAAAACWBgCAK2q5VD0qvhKW+e71cnyYo+Nqvb7TfWdgeehsodNqmO7pvk/CJHbJ01R5PbX7Xj3eIuWxK/X2y7dDLcuipOwkMAgAAAChqBARR0GKx3bKq8kHp1anHUkYN64P/1RXPxAMAbA+/DRQybcPfvPpz+e7ZHdJ2y+PyD6/dMGSbd8QOPyb3te0QewFxAAAAACh6zCGIouQ8+DvY9rcNFBraOAAAAAB4R0AQAAAAAAAAKCEMGQYAAAAAAABKCAFBAAAAAAAAoIQQEARSTGrskZ7nI7K5bb69J7dCoXmy8al2uT7PVzENuhww9qjjsVco9wMAAAAAxYWAIOASCk2VGdVh831Z1XUyK8cP6Zr+ip/fJzUTjI2p1r58FHQ5YOxRx3lC7wMTqqXl0HpfQcFpC9rlqacOyKFfGa+n7pRp1B8AAAAAHwgIAi6x2BF55UDUfD8QeUn2xXK75s78ji1SPyEq3fXN8tzh/F3PJ+hyyCQ0ZYVsfj5i9lrL/OqR26YQ/BipsarjoGmgc1ZbT1I72rxlg8yakp8R+Njh3bKqfodEpVpaOubae4cWWtAu21qqJaz/sQAAAAAAWWCVYWCU6EP8QeMhPtrdIDc/fMTeCzcNCG7qXCJl9nZ6UdnZtEh2HOXWhWSh0HxZvWetTLe3k/VK59w1eRv4nPajn8m2+rD0ts2Ue54dOo/XbzwgLbXGGRn3knu4lwAAAADIAgFBYBRYQ4W3SL3skKW3PC6Hi6Q3VtBCczbIk6tqpK/jWmnfS5lhaLPaItJUpT0e18mm1t1y3L7OQlPmy+L6K+Rka2feBgR1LsGOQ/dJzYnh7xFmQHAC9xIAAAAA2SMgiKKmgbjahtvlprqaeK+zgch2ebq7U/a5epil7VkUWSd1LbvsjZHx2jvQzG/rA3JTVTiR3/5eefqhNUn51cUg1teJ2VPulVntstI5P+PYncax6XrPWUGR5bLQSNsSlb6e+6W9K5Efv+XgP7/3y8lZrvoYIr9quICgk9/ynmWycovIYiMvzvlpPW9q7YwHhZRTBpU5zq/Xdqa85sHhpd4chVjHuWQFBIfvQWodl7nHYLyMXOXiv+14vzYdXnsJEhAEAAAAMFLMIYiiVtu6VZpcQRpVVrVEmurn2VujY/511ca/Udn3wm+tHWlo4GVxl5FfV8BBlZXXSFPnk2nnzau891VZ7z4/49iFaY61huKudQWKVFim1z2Q9Xx8/vMbNvKbUh9mfttHvqBFeI6s3rM16fy0nte3JurZzO+9VhkMzm+6PHjPr9d25jcPfuqt6OvYs7AsNMp90hA/LxrVuRMnyPjJ1vYgk6+QcuPLQPSYuem/7Xi/Nt2OvNBr3CVEaq7zNpcgAAAAAGSLgCCKlvbyuabKeBPZLs1zr5W671eZr+aO7dJnraUQF4vtknb780Vz10mfvT8XNJhwhU7+f6JX9g4x3dfEhgdkoUYh+rdLZ5OV30Vzl0lnRDNrBTmShaXMOF6HR+r5mcf2WMdWzvqGdYjBCmZY8/I5x8bT7jlhHWTzUw7+86sBlJT8RnRvjVwz2/w4axp8my5R2dmxzMpHk5331NVz3+qNH5PIr36QPg9e8uunnZk85sFPvRVaHc9u+ZXs3j3E68c/kil2vfk5dn+rcT79xpuqtbJ+z5OypnF+2sDgm1Etk7CUT7K2tSdq0mI1kyaYZdkfdQXwfbUdb9fmIEd+Kfs0axMmZVw1ODTtTvmrWnsDAAAAALJEQBDFr6pWZsxOPIQf3/uotHflZiiwN1fIRDMgeDzj8D4N6Myo1p5dvdLZmBhmqivB7m+9X3aaQY6U4JZhoGeZ3N2yyxwWax675QkzwFNWPScRCJk8Ryo1qBNZFz9W6fH7ulZnNZQz2/y682Ae+3Kvubs8PESQxBMd/rlIdtgR19jRXXLQDNYk6M/b0WKcrysq685DWn7y66Gd+cqDn3oriToengY7NzRq8K1XBkR7R2pg8FXZ3LZCZrl75h0/YXyeyNNEc7ne1GBdVPqPW+/0PPy2HU/XZgo97g0zIDhRUjsv6nDiQ786IAe7b5OaEwek+z6GCwMAAADIHgFBFC0zONBhBQYWrtpq9gBa05gSGMgbk6XcDOi8NGhOMw0SnHxL3w0e4pjUg8l0TPo1UONm93bqe3m3tZ0T2eU3t3lwSZOPfS3ak2t10n6dB27Nlh6jLUTiL52jMBMv+fXbzjznwU+9FVgdv9j2HZk3b4jXDx+Wo/bP9HOs0rxpEPTu71dJs/YUNa4Hc/i2e7jusTfEuUycwGdfpDcerLMChCfkpDVi2OS37Xi6NgEAAABgjBAQRFGL7V0tK+cus4Zv9muPIQ0MaI+h+fYRxc8KbsCZY296uXuOvdzw2s785MFPvVHH6R0/ukvaG6qk2R6umxjibAXnysIazdTAZ68c7D4hA+W1MsPYFQ4b9dN/wpzPTwXZdrw6/PCtUvmdalnatkOiE6ql/ofMMwgAAAAgewQEUfS0x5A5fLPBmvdLhzqWVS3PeqEF/96QN4eZFywuzRBM7cE0/nJ9l9xjKS1n6Ohbb8SHjVrzpQU0ZHOk+R1FtfX2HHs9iTn2zLngOoYYMuyDl3bmJw9+6q3Q6jioOQQzedMeriuXX2H2AIz3cDS2J86+TqZr8O/YXjnU7xo27LqGctJ20lybqbRcrflG35RMxXr42cfkp/uNN17uJwAAAACQAQFBFC3t1bPGnDtsqr3HCtq8csDqLeQsKBA0/ZnWvGA1MieRlSQ67NSa865GmloTK6RqgKC21V7YIc3QTZFEAEiHNK62F5ZIGrb54kvW3GV1W2Wza5EFTXtW44asAqPZ53fs9UePxQMyk+askNW3Zh726UU27cxTHvzUG3Vs5EuH9BrnalxkTl5VyKiX2tblMl03XME4c6Xh8gkyY2aNDBzYa+y36qys+na5xgx2Duav7Xi4NlNN/a7MMgOCmecbBQAAAIBcCFVUVPDUgaJkDfOzHsIH00Uo1sSDGbrK6FDzgZkLBHQNsUTwMEIL2uVgS7VEuxvk5ofTp6MBjdV71lqBi1T9urBDIr+TGntkfV2G4YuRdVLXkryYRebzi8rOpkXxRSf8lEM2+e3ruFba9yZuOc7Py1S+zuep3+eI5yHNOacasswM7p/hJ79+2pmfPCiv9aa8Hpv5OMto13GuDJlXk5HfJiO/djkk6iJRPu6ycec3m7aT1jDtVBcO2VYflt62mXLPs4kyTHX9xgPSMmGHLL2FhUUAAAAAZIcegihasaOPyiZd7CFpIv+oDBgP5c2uIM2oeK5Luk+IhOsb5XpX7yU3c3GKpnWyM+LMXKbs/LoCLxn1R6VPhzS2Du6BpHPcWfPbJafd13N/VivQqhHnd5Qd76qTZnP1WYedV6NcEvv889PO/ObBT72Veh2785pUlkZ5mPl1BQOVM8w6adiz3dNSuRcFGXHbGeLadGjPyzm1YSM7O+THz9k7AQAAACAg9BAERomXXoJeZeqNBWBsZXtteu0dqMwegrUHpK2yWZ7Ls8A7AAAAgMJAD0FglMSeXSNt+7WXYKvcNS19L0EApSc07U55sD4ssv/BYYOBCdXyg7vmsrAIAAAAgKwQEARG0a5VD0qvhKW+e71cT1AQKHmv/fpG6ei+TcIndsjSVXvMbbfUbbXrxztEB3GH6++TbYdelkNP3UlgEAAAAIAvBASBURSL7ZZVlQ9Kr05fFtz6CgAKgAb7vnn15/Ldszuk7ZbH5R9eu0GurngmHgTUr+5tR+zwY3Jf2w6JT4MIAAAAAD4xhyAAAKPMCfY5htsGAAAAgFwiIAgAAAAAAACUEIYMAwAAAAAAACWEgCAAAAAAAABQQggIAhhVkxp7pOf5iGxum2/vKR7FfG6AG229MFFv+YO6AAAAY42AIIBREwpNlRnVYfN9WdV1MisUMt/nm1BovqwxHtT0YS3+GuahrVDOrViE5mww62XNHMp5tI2krQdVb7SH4XGPCoYT2PPT9qgLAACQDwgIAhg1sdgReeVA1Hw/EHlJ9sWKZ02jYj43FD8Namx+foOnwARtvTAFVW9+2g4sXEMAACAfEBAEMKqOd9VJ3fer5O6WXfae/BOL7ZJ2I4+az0Vz10mfvX84hXBuQDrhcFjK7Pde0NYLUxD15rftwMI1BAAAxhoBQQAAAAAAAKCEhCoqKhinAOQBHXa1vi4sfR3XSvvexGWpc2M9uapGBnqWyd1dR+y91hxEtQ23y011NfHeGQOR7fJ0d6fsO5r4ft/pTpkvi+uXS2VVotfHQH+vPP3QmqR0dZ691XvWSrnx/Su3iCxufUAWGt+jNB+bWjvluD0Myjl2urlli6yTugw9I8xzM9K7aZg8+DW4zKJGXp8w8ro7ntdU8bxnyG+259Zkl1WyqOxsWiQ77HPMJr9DCU1ZIZs6l0i/0RYOznzSykP/dmlu3Csz7PobMPLu7rHitS6sdiZG/u+Xk7NceTaO3Wkc65yTw8+5xY+tNo4tt3faBrVrj+3XK6fMysxySrRpx6y2iFGOyfXml5Nn5/rRsujruV/aXdel8npuXuvCuQcMxX1/yKqtB1BvftL1KlFmi+SVWe2ycrj2G8B9UuW6/So/9RZU21Fer3m/ZaZyeQ35vU/6aTu+r6GA2hkAAICihyBQoGpbt0pT/MHKUla1RJrq59lb/ukD2+J715oPEknpltdIU2d7+jmiwnOMB5GtrgcxKx/rW7PLh5mHLuPc0ubhSbltSpo8eDS4zIyfUbVW1nc1yaRRmP/KfW5eBJXf8lvth1xzo1ZucT08llUtj5ex/7oIS+W9KXk2jl2Ypu14PTcziOAcmxL8SZVV+x3Osb1yqN/4apTTjMnWLoc+hF9TZbyJPDGCYKAGH6w8J4Rlet0DSeXr/9y810UQgqo3P+lmo/LeV2X9oDJLbutZtTMP98ms0g1EMG3H9/3M4++WoK4hr/dJR+W9Tw7bdvwIqp0BAAA4CAgCBSgRiNguzXOvNech0ldzx3bps+Ypz95bvbKzY1k8zUVzl0lnRD+okWtmm0ck0YeN6RKNf8+iJnvOPdfKiX7m5JvYYDx06YN+/3bpbLLOzcqDnlhYFmYZ8NQeLU1mma2Ll1k83fIlckuac/PC13yDs2+Pn1s8D055Sa90znX1Dgwov6qsPGz23lnU0WtsGQ/OxsOj9qxq7rHKuHySeVhWdaFBGu09o3nO1HZ8nZtRZuaxrjzoq9nMexo+2+9wdPL/v/+ZVU6Vs75h7XTMvs7s6dP38m5r2yfrgX+J+bDvlFk8zz0nrIPc/F6bw9RFbO/qeFrWZ9oGE2WsL3cPL79tPZB685uuL+HBZWZfE4PqPoD7pCnH7VdlMydqrttONvczL2UW5DXk9T5p0bZj9Rwcqu34roug2hkAAICBgCBQyKpqZcbsxMPG8b2PSntX+qFHXmjwY0fLatmx1x0EOCL7Xx7qYdsOZNnfEzu6Sw6aDyz+6cPdjGrt2WCk2ZgY+mzmofV+2ak9tbJ8sKmdqcPbjHRdw9OsdJ8wH5imzwy+B8XE8ATza9/PEsO3tLx+bj44TpDxrh5ogea3f7ts2vJbe8NgbP/8RZE3o4kH6Kzrwngg1qF0mmd32ykPJ9qp13MzH/ZvtY915UG9aX910zT8t18PXnzJzFdZ9Zyknkzmedhll5XJc6RSA66uMlOa531dxnm4zjerc/NQF0EIqt78ppsNc5iru8y2WG3SXfde85vMyPMw98ns0g1IjttOdvez4css0GvIw33SzUvb8cN3fk0eygwAAMBGQBAoQNrLYENHrwxIWBau2io9z/fImsYVMivLoUluOmfRmi09RpqR+GvIuaIiL8k++yHMsa9FezOsHrR/eJOl3Hy4G5ymPgidfEvfJQfOvNBAwvjL9V2NNO15NfncnPmcLr8iq4c2P5wHyekzE0PktLxvqdPA2wk5eczcFXh+Bw7sjT84q9RtS3Z1MVxvuazOrf+EaMjUC9/t1wO93sygrWvYsA5TvKkqU9l5NGmC2bPJaw9Dv+eWbc/FnAmq3nyk61d/1BUAMh2Tfg1+pwjqPhlE+81GLttO1vczL2UW4DXk7T6Z4LXt+BFUOwMAAFAEBIECpUO2Vs5dZg0T7tf5kpZIU+ersrltvn2Ef85cTNPLE/MPIYde/Inds26JrLcfjJ/U8tbP0jzIwQ5KehRk+31z334zAO8M/5s4q1bKpFeedvcg8snpMepFYV2bQdWbv3SDElRdcP/1r3ivIdoDAAAIHgFBIM/Vzsz8wKM9tcxhwg3W3EIabEo32Xk66dKtrbfnYupJzMVkzkOUk/m5fEgzFDXRyyTRk86reI+2/uQ5F5NeDY9m39PLK3sOwYF+d/8mXQ1zWdIqk3mTXzWmdWH3sCmfIKmPxNYQxGSBtl97cRFr+J89nHqEQVynx6iXYZijc236732bXlD15i/dnHCGpL71Rvx6C6ou8ub+m5XMbSfI+1n+XUMuadqOH4XdHgAAQCEgIAjkidThpBp0mdXWI+lWpNWeA2vadIjwVHuP9dD1ygENNCVPdu4nXUd/9Fj8AWbSnBWy2py3K3g6NNOa76hGmlrnxYeQaZ5rdYVHfbjKMggTjeqQzyWyUtPNwdDqbDjzaD390P3SHF8QoU7aXZPvO8Y6v/lQF/FAgpGHmxqsB34dQnfbloi1QEEGQbRfzYu5uIgugNCgD/pR2dk9wmGVztyEdVtlc+P8pDKe1bghbWA/qGvTrBOzB2SirrMVVL1lm64/icCSpr3aXrAi3ZDUoOpirO6/2fLSdgK7n+XRNZTadpzFTkY6/LrQ2gMAACgcoYqKCuuvDABjSlcOXu3Mp+SmvcnKrdUOnVUbraFE1sPGYDqp+Jp4oMZPupMae2S9OZ9derrCYvvelHQj65J6t6WjK0wONe9R0rllyq/qN86tMXFufugD4uKurVYgK42kc/OTXx/HDlW+A8a5Pf2QcW72JPh+8uuV027EzpOTdyePzraTtp+6cM4tNV+pP8Pc56cuMrT1gUivSFWN9LuO9dN+s5FUHtrbqTGxOEy2MrefqOxsSqw67efc/NSFI1M+sm3rQdWbn3T9GDIPKfc4X/n1cZ/0k64ffuotsLbj55r3UWYq8/lldw35vU/6aTuZ82pJVxeZjKTMAAAAFD0EgTxhLhTSpPMB2jvMoaTrpLnRWqnQLXb0UdnU0SsD8WNV1Hgo1qFFyQEzP+ke76qT5h5drMRhp9mx3bUvWFZ+18nOiPY6cdj5yDIYqMweXo3LpNNId7TOJdWb9qqTKrnuRMrKa6Spsz0+PDcf8psPdaFtfaW2P6e8+o3227FMVnZbPV/dgm6/iV6TRv2NZDERF50L1JoHNLmM+3ruT1ohNfBzM/ORek/JXlD15ifdEdO09V7ZmtzDK6i6yIf7bza8tJ0g72djfQ29ue8J8x6ZdP5m20meCsKvQm0PAACgcNBDEABGQaKHTK90NiV6Airzs1bjs6rsewFhdMxq0+Gpyb1wUfgy9YwDAAAAihU9BAFgVCRWSB3vmmtKTZxsfGbOgRaV/uPmLuQZDdpac2/qsL6fEAwEAAAAUNAICALAqLBXSJUaWdi5VXqej8Rf6zuteekGUoa4BeW1X99ov7OU+vZQdM4vraMn92wVcyGe/u2yactv7U9RTL5x2Xr7nSXX7SzX2wAAAMBIEBAEgFGQNIdWylxbuqDIzo7Bk/UHQYMKV1c8Ew8ulOq2f/b8XTlYSAT555kf/Ux++3azLO64wdz22o7GahsAAAAYKeYQBIAS4QQVHKW+Dahct6vR3gYAAACyQUAQAAAAAAAAKCEMGQYAAAAAAABKCAFBAAAAAAAAoIQQEAQwqiY19pirtm5um2/vKR7FfG4ABgvqmudeAgAAgKAREAQwakKhqTKjOmy+L6u6TmaFQub7fBMKzZc1xsO4PpDHX8M8mBfKuRWL0JwNZr2smUM5Y2x4ueadwJ6fdsq9BAAAAKOBgCCAUROLHZFXDkTN9wORl2RfrHjWNCrmcytWGniZ1dYjm12B381bNsisKVPtI4DMgrrmuZcAAABgNLDKMAAMQXsLrt6zVqZH1kldyy57L8aa9hB8clWN9HVcK+17/f8ai9ervZ2sVzrnriEQgxHTHoLr68JZt1MAAAAgKPQQBACUnNpWKxg4EFknzXOvlbrvV5mvRU3rZGfkhHUQAAAAABQpeggCeSJTTxKnJ9RAzzK5u+uIvVd7OE2V2obb5aa6Gimz9w1EtsvT3Z2y72ji+32nO2W+LK5fLpVV4US6/b3y9ENrktJ1eliVG9+/covI4tYHZKHxPUrzsam1U47bPazS9sYaosedeW5GejcNkwe/BpdZ1MjrE0Zed8fzmmq4HoLZnluTXVbJorKzaZHssM8xm/wOJTRlhWzqXCL9Rls4OPNJKw/926W5ca/MsOtPA2R3u/LutS6sdiZG/u+Xk7NceTaO3Wkc65yTw8+5xY+tNo4tt3faBrVrj+13VlvEOP/k8k7HOi5zj8F07cNrHhJltkhemdUuK4cpM6/8phvENa+8puuH7zz4vIacPDtp6vF9PfdLe9K91/s176cu/KTrtxwAAACAVPQQBApUbetWaYo/5FrKqpZIU/08e8s/fXhefO9a88EyKd3yGmnqbE8/uX14jvFgutX1AG3lY31rdvkw89BlnFvaPDwpt01JkwePBpeZ8TOq1sr6riaZNAoT97vPzYug8lt+qx0MNDdq5RZXMKGsanm8jP3XRVgq703Js3HswjRtx+u5mQEd59iUYGAq/+03LAuN62WosoxGdS63CTJ+srU9yOQrRLM1ED1mbvrPgxhl9qqsH1RmI2vryku62eTXyzWfVbp+eLzv+LmGrIC5leeEsEyveyAHdfFkIHWc6/svAAAASgcBQaAAae+Qa6qMN5HtScMdmzu2S581F3323uqVnR3LEkMo5y6Tzoh+UCPXzDaPSKIPn9O1Z5v9PTrksk8/cK2OGYvtkvZ4evbnGUxseEAWaoSlf7t0NlnnZuVBT8wK4GRDe0Q2mWWWGCIaT7d8idyS5ty88HNuMvv2+LnF8+CUlzlvnat3YED5VWXlYbNn6KKOXmMrLNOrrB6kzT1WGZdPMg/Lqi40aOcMw83Udnydm1Fm5rGuPOir2cx7Gh7b7/5Wo9z7jTcaHNrzpKxpnJ82MPhmVIcPJ8pE897zfE8ikDNpghnk6Y/+1tpWvq6h8OAys+uhctY3rEOy4iPdAK55k890/fCSBz/tzApgLjHr0j2M3Cq35CHkvq55k9aF1ft2qLrwn66PugAAAABSEBAECllVrcyYnXigPL73UWnvSj9U1Qtd3XJHy2rZsTcxPE737X85Q/DFZAey7O+JHd0lB82Hfv/0oXxGtfZ0MdJsTAx9NvPQer/sNAM42T3o1s6sMf410nUNFbTSfcJ8gJ4+M/geNRPDE8yvfT9LDOfT8vq5GRxI7oUWaH77t8umLa4AlrH98xed4Jcl67qIWEOONc/utlMeTrRTr+dmBmlutY915UG9aX910zS8tl8Nvmxo1MBMrwyI9gLTwOCrsrlthcxy99o6fsL4PJF/qw5Tg2pR6T9uvfOTB4c5bN9dZlusciirnjOinqBe0s0mv2Z9DHPNZ5euH8Pnwdc1NHmOVGrw29V+lR6/r8s4D1fby0ZQdeylHAAAAIB0CAgCBcgMZnRYgYyFq7aaPZbWNKYEMrKkc2it2dJjpBmJv3SuwYwiLw2aW21fi/ZyWZ3FKq2Tpdx8KB+cpj5En3xL3w0xfDMDDSyNv1zf1UjTnleTz82Zs+vyK0b4YD48J+A2fWZiuKKW9y11Gng7ISetUaeB53fgwN54wEOlbluyq4u+l3fb79LL6tz6T4iGTL3w036dYM/d36+SZu1Z1W/1uEoaDn3sDdHYp3KCpH2R3nggxwoQJupO+b2GknoXmo5Jv/NDR8BrukFd877T9WOYPPhuZ3ZPz+Hab7aCquPc3n8BAABQSggIAgUqtne1rJy7zBom3K89nDSQoT2c5ttH+OfMoTW93D2HFnLmxZ/YPeuWmL3RzOCElrd+lubBHnZQ0qORtN/jR3dJe0NVfNh0Yji0FbgpC2vkU/PTKwe7T8hAea3MMHaFw8bPcgUsC+0aCiq/hVYOTu9dAAAAoFQQEATyXO3MzA+q2sPJHCbcYM11pcEm96IQQ0mXbm29PYdWT2IOLXNeqkzztQUlzVDURI+f5N5YXsR7tLnm7hv0ang0TS+5HLPnEBzod/d301VMlyWtJJo3+VVjWhd2L6ryCZIaVrKGgybLRft90x7K6fQei+fX2J44+zqZrsG/Y3vlUL9r2PBbb8TrIifXkDN81ZVuTqRJN6hrfqzvJX6vIaf3rntoe6CCqmMAAADAIwKCQJ5IHU6qQZdZbT2SbkVa7X2zxpzrbKq9x3oAfuWA1bvJWQBB+UnX0R89Fn9InTRnhaw253ELng6Ftua/qpGm1sTqr5rnWl0JVx+gs+xJZ64WW75EVmq6ORhanQ1nTrOnH7pfmuMLZNRJe1dinjXHWOc3H+oiHtQx8nBTgxWo0WGot22JWItFZDBc+9VFedZs2SC3zZkaPy8VMq6n2tblVo9NV6DGyu8EmWHUnzW82rrWyqpvl2vMwOhg/q6hRBBKz2+1vbjFyIevek83qGt+rO4lytc19OJL1px+dVtls2uBGfN+2Wi0lRFfg8l14SxgEtQQZQAAAGA4oYqKCusvdQBjSoMUq525rdy0N1m5tSrs3XbgyBqOZz1QDqaTzK+JB2r8pDupsUfWm/PZpacr0bbvTUk3si6pd1s6utrnUHOHJZ1bpvyqfuPcGhPn5oc+2C/u2moFstJIOjc/+fVx7FDlO2Cc29MPGefmrDLsI79eOe1G7Dw5eXfy6Gw7afupC+fcUvOV+jPMfX7qIkNbH4j0ilTVSL/rWK/td8jzMhnn1pSoi0S6UdnZZK0E7a53r3Ws3Oc25LEerqtM/KTrJ79+rnk/6frh677j8xrKfC0n6l1lPs7iuT2knIOfdP2UAwAAAJAOPQSBPGEuFNKk8wHaO8yhpOukudEewugSO/qobOrolYH4sSoqA8bDYbMrGKj8pHu8q06azVVXHXaaHdtd+4Jl5Xed7IxE7T3KzkeWwUClvc3+XleVNdIdrXNJFR+OakiuO5Gy8hpp6myPD8/Nh/zmQ11oW1+p7c8pr36j/XYsk5XdiRWRHV7br/u8kn6+kbZ5vCsYqBKrL7uGSNs9ypR7wYgRX0N6fnp9tua451iGdIO65vPjXuLvGtJ5WTV/ffqfJXFabvdnvcrwm/uesNqZ+3o36yJ5mgAAAABgtNFDEABGQaK3UnLvM2V+1mp8VpV9zykUHqf3WK7rPKh0AQAAABQPeggCwKhIrJg73jWfmJo42fjMnBMvKv3HzV0AAAAAAASGgCCAkvHar2+031lGd/uYLL5svfG1RhZ2bpWe5yPm5/p1fac1n903LvtZ0tBEvz8PKAV+r4tS3wYAAADSISAIoCToQ/LVFc/EH5ZHe/tfXrtSvnn1b+Qbl6035xPTr799u9ne7jW/jiR9oBQMdx2wPXgbAAAASIc5BAEUPech2VFs20ApyPV1U2rbAAAAgBsBQQAAAAAAAKCEMGQYAAAAAAAAKCEEBAEAAAAAAIASQkAQQFqTGnvMFXA3t8239+S3QstvoQqF5snGp9rl+lDI3jN6wpN+L101H8jfXPlHew8AFKZC+Z01lvd8AAAQLAKCQJELhebLGuOhQx884q9hHkBCoakyozpsvi+ruk5m5fmDQKHlt1BpOa/4+X1SM8HYmGrty4YT2Lvr697rKRT6QiovOm2+v+zi/5AZ1HGgQnM2mPeKNXMo5yBQvqVtJL+zgmo7GdPVe/2Eamk5tJ6gIAAARYaAIJBn9EHhti124G7LCpk0Bn+Ax2JH5JUDUfP9QOQl2RfL77WHCi2/hWp+xxapnxCV7vpmee5w+jLWYN/f1Hya84BdLHamHPpgnPn+7ffPlleoY5Q4/V0xq61HNuvvCvu1ecsGmTVlBNF6ZE17/G1+3ih/D/e+QvqdFTu8W1bV75CoVEtLx1x7LwAAKAYEBIF8M3mOVJaL9EV6RcprZcZke3+WYrFd0v79KqkzXovmrpM+e/9wjnfVmd9zd8sue09+K7T8FprQgnZpqRWJdrfKIxmCgWr8uaflMvt9rkWP/5k09l4k/+M3Z9l7gNKkPb9X79kqTVVhKbP3qbLyGmnqvJ1e0mMgHE6ui+EU0u+s2OHH5L7uqEjtfbJxAW0LAIBiQUAQyDMTZ9UaDxW9crD1JemTsFTO+ob9CTA2zKHCy6tFTuyQ+x75rb0XwFipbV0r042vA5F10jz3WjOwZP6nT9M62Rk5YR0E5NCRR7YZf5mI1Cy/Q6YRcAYAoCiEKioqGHcF5AkNvCzu2ioL31oni1qPWe9luzQ3dspx15AiHZq0vk5kZ9MieWVWu6ysq7F6JvT3ys6H1siOo+kva6tXifEgaTxE1qXplRD/3N42ZTjWEZoyXxbXL5eFVdZ8SCJR6eu5X9q7jtjbFue4SlePlgEjv08b+d2XJr9e0vWbXy3f2tYH5KZh8pAo3/vl5Kzb5SaP5euFmYcGV5qGgch2ebq7M56HWW0Raarqlc65Rr7SDCVLV49eyzebtqO9Aw+2VEu0u0Fufji5XlXo65/KT6b+wd5K7+2TF8r/OH6m+V6HFbeMPy2vHblYdp73ifzX8X+wehV+9iXZfeR8eeqTRB5CoT/Kipkfy9X2tun9C6QxQy9BnWvw2omfy/VOmoa33/+yPBc9V15xpRuE0JQVsqlzifR3XCsHZz5p9t6Sfr1+98oMo91pW9YAjrtHUFBtcnA7ixo/+wnZ1Lo76V6i4sdWG8eW2zttfca5tO911YfP6ziXKN/EcdY9Impex0Pdj/LtXhIUL78vlP9zG7o96Lx7T66qMd9nMtCzTO6285HV76wArk0/6bpN+9HPZFt9WHrbZso9z6Y/BgAAFA56CAL5xB4uPBA9lphjaIhhw5X3vmo8tNgPKqq8RhZ2Pim3TRmd/723HtDXuh7CVFim1z2QlAd9+Fh8r3VcPK8Ga3hb+6DhbV7T9cPMQ1emIXbpyixslK9x/KDyHZxfP2pbU9I0lFUtkab6efaW8Sgb1bmlJsj4TMPFJ18h+gyn7UT5LV/lp+3Mv67a+Dcq+17IZe/AcXLZ5R9JiytwJ1/+g8z75icjmn/w2r/4SBrdaRouu/gzaQz/h70VvPJb7WCVuVErt9jBKlVWtTxexkG2ycHtzPgZVWtlfVdT0rykZmDAOTYlMJAqm3YWBMrXEZaFxn1jqHlm8+1eEoSgfg/5aQ9BCKrt+Ek31ZEXeo3fBCI11zGXIAAAxYCAIJBHrOHCUTm0zwq8vLlvvwzoQ0naYcPGH/7GH/POkLFFc5dJZ4/+qZ7p+OH5mW/QegBZYj58uIetWflIM2TtrV7Z2bEsMbRNj4voBzVyzWzzCJOfdP3kd2LDA7JQH376t0tnkyvNiFVm+mCdalD5psmvH9o75Joq401ke9Iwv+aO7dKn2bC9GdXzDEv5JGvbWv2xJ/FwO2mCWT79UVeAzmP5Wry3Ha2PK3RV4RO9sndw50BT7HfnmXP76avrfd3zJel6+eL4PnPeP7t3YMJpuezLp+Xt9y+QNuPY21++0P7eP8i3LzEPMMViZ8kjdhq3v3yBvGbvT0d7E377YuPN+18203R+dtuRL8trp6xjRkNZedjsFbSoQwfYhWW68ZCuvW6a7TJ26jWoNqntpclsZynXj6ZbvkRucbeH2bdbx7ryoK9mM+9p+GpnwaB8Rfa3Gve7fuONBiH3PClrGuenDQzm070kCEH9HnIM1x5ie1fH07I+096YiXrWl9M7UPma0zeoa9Nvum5Hfin7tFgnTGLYMAAARYCAIJAn9MFmRnXY+CN9v7xiddYQObZXDhkPfWXVc9I+7JlDkVp2mUPUtEfh/i1PmA8YmY7PKbs3oz4UO3lQmo99XauThovpvh0txj5XRMnM78tpHkB8pOtVvGz1Ya0xMTTXzEPr/bLTfLC+bnCvD1ce3PktD4/wQbeqVmbMTqRxfO+j0t7lGjJ2/IQMGF+cnzMxrBG51AfsqPQft975Kl+b97ZzhUw0A4LH5bBdFznz/gXmAiFRMw9nyqvvfcncfdl5p82vWbv4P6TykkQa0d+dI48cH8WFSIwH7U1bXAEWY/vnLzrBGUuQbbJ2pg5hNNJ1DV+10rXqePpMKxBmBlNutY915UG9aX910zT8trNAUL7G/l2yoVGDXr3mfxpNr9PA4KuyuW2FzHL3zMure0kAgvo95Ajqd8Awgmo7ftNNpWm+YQYEJ8oI1zsDAAB5gIAgkC+c4cIH9iY91Jx8y3iTYdhwUq8O0zHp1wfd0WD3LOl7ebe1PQyd32jNlh7peT4Sf6Wde8lnut5MlnLzofGlQfNoxcs4zbC63OZBf5bxEN9hPcAvXLXV7KmzpjHlAV4de0OcanQCG7rqtPOAbT3Un5CTTuDY4Ll8bWPadmyvvXe2/S43tDfho0e+JG/LaZk39SPpqvm93DXpc5lxfsBBiRTua1ilbluCaZPaXsZfru9qpGnPq8ntwZm77PIrkgM1/SfMYYBe+G1nQaB8LXoeGvS6W3t3NVk9Bs3pB9zDdYv9XhLU7yFbrn8H+BbUtekjXQAAULwICAJ5whoubDzQ1WmgKPEHvTm0Z5SGX/lhPUh648zxNL3cPcdTen7SLUQ6xGzl3GXWMOF+7dmjD/Das2e+fYSyHqjLwhqt0MBGrxzsPiEDdmA4HNaepIkHOj/lW+x0+PJ9L19oDRP+7LRcPf4zafzm+/I3V/7RPgIJdtDMI9qZX6NXvseP7pL2hqr4sOnEcOjivpcE9Xto7AXVdvylCwAAihsBQSAPOD03huJp+JUzfOqtN9L0mMktZ3iel6FTtfX2HE89iTmezDmO0sxZ5Cdd39IMEUz0+EnuJRMk7dljDhM2HuB1nicdvuheDCHeg+nyK2Ti7Otkuj6wm8PHXYFhVx37Kd+MMradN+RNc4iYnzmjvpA/P89+OwZ0+LE5TPifdN7BC2X3Z7qwyCm5eZR7CnqS4zYZbzv9yfNUJr0aHrXr2O7JVT5BUu8+1rDYZDlpZ6OtxMr3TXu4rtNLMb/uJbkX1O+h7A2xgIsvQbUdf+mm0mvHmlP2TSMlAABQ6AgIAvnAeYCKrIv/Ie9+mRODpx02nHgI0uFCq+3J1UdlmNOLL1nzRNVtlc2uCe31gWFW44ak1R0d/dFj8QfESXNWyGpzLqMUWaQ7HB2qe9CeXL2pNbEqp6ZZqyuUmmU/eGihH6HQNGloeUp27/6V/Lhlgb03mfbiWGPO8TXV3mMFGMzVpI3HM2fif2WuDmo8tM0wHtKsIZHWcWXVt8s1ZjBjME/lG+et7Wj+rDmjamROItsZnTw1zvj3tHzzkv+QcEogJmih8z+Xu67UIcJf2Hs0/2fKoQ+sPJV92dqXavYw9RaEINuk1XaWyEpNd4jrJR4sMvJwU4PVHrQt3LbF6Zmcnr92Rvnmunx1caI1W4x7oXFBOuelQsZ9pbZ1uTVs2RWMy5d7iSOn7SGo30NZsFZ01kBror1lK6i2k226cVO/K7PMgGAAc8oCAIBRR0AQyAfDzIOUeNBIPHip6eY8dPZcQeZwIWNnZJ207038oW6tKmkf48xxVbU2vm9zYyLK4+dYZz48VVZnTWhvfd9WaapLHsZl5T85v+tXLbHym8JPun7ya67KqW/MVTldaVaFjacoa4GAEZn8Pbm2ysrf+KrrZHaGB8Jyc46v5GHh6+u0r0avHHzROiahRhZWuVad1t4w5TVmuQ0YD34OP+Xr8NJ2HLteOmD8G5ZZ30tuf+m89am1mvBl4z+WlpnvS1fNB+brbyYlgnR+hL7+aTyNn8z8WK7WnRd/nDHdyy7WIcI6f6D1ub5axusCI1+Sf3rXOsYtFFog1fF6Wy4NWQScsxVUm3xzi7VoRpmm25k8z52+1sxJnOP+7u3mohPOVAXaFjRYNhDRuS6TZdPOKN+Ayte4D+g8pM55WWnb56YLRnSnnlt+3Ety3R6C+j2UDae3ojsf+sr2d2xQbcdPuqmmfq/G7FnY+9IeawcAAChoBASBPOCsWjk4IGR5c99+6w94cx6oDPqj0qfDhUYa2PJB58Oz5sKzHkYsmo/7k1Z3PN5VJ83mapiOqPHwYeTV+N50DyBe0/XDfHBsWic7I8lpmvloXDOi3oGmYy/IqxHrgfBk5CV5MU16saOPyibj4XVAh2zF2XmYm5wH5+EyaVij3RtGuSfy91u+gwzXdp7rkm4jO+H6Rrl+mJ4vOodfmy7s8Zm9YxTFPjlH/m7Qzx4nb79/gbS9fL68kq5OYs/Kuo377a3RFVSb1F5Af68r0BrpDlf/2iZXajtx2qS2hY5lslIrPEU27YzyzX35us8r6ecbaZvHNxnn5l49No/uJUG0h6B+D/ll5cNIP+n+nr2grk0/6bppr8s5tWGjGe2QHz9n7wQAAAUtVFFRkd1fxADGzKTGHrNXWV/HtWl7YQCZZNt2Qgva5WBLtUS7G+Tmh4/Ye4vDlNkbpfmeWhkv+2Xj/FVpg7nIHuVbnLK9l9AeCtO0H/1MttWHpbdtptzzLHUGAEAxoIcgAGBYsWfXSNt+7SXYKndNG71hn0Ga3fIrcy6zR8zghEhkI8GJXKJ84UZ7KFyhaXfKg/Vhkf0PEgwEAKCIEBAEAHiya9WD0ithqe9eL9cXSVBQnTy5XzbeVSltL/KgGwTKF260h8Ly2q9vlI7u2yR8YocsXbXH3HZL3QYAAIWDgCAAwJNYbLesqnxQenWqqSIYNfxi23dk3rzvyA9/eI+8mOXclMiM8oUb7aHwaLDvm1d/Lt89u0Pabnlc/uG1G+TqimfiQUD96t4GAACFhTkEAQAAAMQ5wT7HcNsAAKDwEBAEAAAAAAAASghDhgEAAAAAAIASQkAQAAAAAAAAKCEEBAEAAAAAAIASQkAQRSsUmip3PXVADv3KeD31M9m4YKr9CQAAAAAAQOkiIIjSMCEsNS1bZOOCkL0DAAAAAACgNBEQRNGKxY7IIzdXS+V3qmVp9wFzX811c82vAAAAAAAApYqAIErCkUe6pPuEvQEAAAAAAFDCCAgCAAAAAAAAJYSAIAAAAAAAAFBCCAiitNQulbtYbRgAAAAAAJSwUEVFRcx+DxS10LQ7pePB26RmgrUd7W6Qmx8+Ym0AAAAAAACUCHoIooQct78CAAAAAACULnoIomRcv/GAtNRGpbt+sTxymGYPAAAAAABKEz0EURJCoalyhQ4V3r+NYCAAAAAAAChpBAQBAAAAAACAEkJAEAAAAAAAACghBAQBAAAAAACAEkJAECXiCpmocwgCAAAAAACUOAKCKHq6oMj8u5ZKjb0NAAAAAABQyggIomhpIPCupw7IwUNbpKU+bOyJSveP91gfAgAAAAAAlCgCgigNJ6LS3dYqjxyO2TsAAAAAAABKU6iiooIICQAAAAAAAFAi6CEIAAAAAAAAlBACggAAAAAAAEAJISAIAAAAAAAAlBACggAAAAAAAEAJISAIz0KhqXLXUwfk0K+M11M/k40LptqfAAAAAAAAoFAQEER2JoSlpmWLbFwQsncAAAAAAACgEBAQhGex2BF55OZqqfxOtSztPmDuq7lurvkVAAAAAAAAhYGAILJy5JEu6T5hbwAAAAAAAKBgEBAEAAAAAAAASggBQQAAAAAAAKCEEBDEyNQulbtYbRgAAAAAAKBghCoqKmL2e8CX0LQ7pePB26RmgrUd7W6Qmx8+Ym0AAAAAAAAgL9FDECNw3P4KAAAAAACAQkEPQWTt+o0HpKU2Kt31i+WRwzQjAAAAAACAQkAPQWQlFJoqV+hQ4f3bCAYCAAAAAAAUEAKCAAAAAAAAQAkhIAgAAAAAAACUEAKCAAAAAAAAQAkhIIgsXSETdQ5BAAAAAAAAFBQCgvBNFxSZf9dSqbG3AQAAAAAAUDgICMIzDQTe9dQBOXhoi7TUh409Uen+8R7rQwAAAAAAABQEAoLIzomodLe1yiOHY/YOAAAAAAAAFIJQRUUFER0AAAAAAACgRNBDEAAAAAAAACghBAQBAAAAAACAEkJAEAAAAAAAACghBAQRuEmNPdLzfEQ2t8239wAAAAAAAGCsEBBEoEKhqTKjOmy+L6u6TmaFQuZ7AAAAAAAAjA0CgghULHZEXjkQNd8PRF6SfTEWtQYAAAAAABhLoYqKCiI0AAAAAAAAQImghyAAAAAAAABQQughCF90TsDahtvlproaKbP3DUS2y9PdnbLvaKIphULzZfWetTLd3jZF1kldyy57Izu6QMn6OpGdTffLyVmufPT3ys6H1sgOVx6Umd/WB+SmqnAiv8axTxvHuvMLAAAAAABQKughCF9qW7dKkysYqMqqlkhT/Tx7azSEpfLelHyU18jCzvakRUs0GLi4yzjOFQxUZcaxTZ1Pym1TWOAEAAAAAACUHgKC8Ex7/V1TZbyJbJfmuddK3ferzFdzx3bps9YNiYvFdkm7/fmiueukz96fK2Xl2jNxnZmPRXOXSWdE99bINbPNj00TGx6QhcZx0r9dOpus/FrHambDsnBUg5gAAAAAAAD5gYAg/KuqlRmzv2FviBzf+6i0d41sKLBvkXVyd8suOR6LmSsZ73+519xdHrbypb0DZ1SHjXe90tmYGM5sHtt6v+zsNzaqrkvqUQgAAAAAAFAKCAjCM+31t6GjVwa0d92qrdLzfI+saVwhs8Zg6G3fy7vtd5lMlnLtHRh5SfbFkucK1KDgybf03QQZP9ncBQAAAAAAUDIICMKX2N7VsnLuMmuYcH9YptctkabOV2Vz23z7CAAAAAAAAOQzAoLwTXvYmcOEG6w5+XT4bVnV8vxcpCPNsGAdTjz+cn13Qk4eM3cBAAAAAACUDAKC8Cw0ZYWsadMhwlPtPVZw8JUD1iId5ZOsfflAhzcftBcaaWqdJ5PsoKAGA2tb7cVG0gwnBgAAAAAAKHahiooKIiLwRAOCmzqXSJm9naxXOueuiQfYQnM2yJOrasz36Qz0LJO7u47YW95NauyR9XVh6eu4Vtr3Jpqu8/Pc6eqqyKv3rJXp5laKfl1sJJFfAAAAAACAUkEPQXgWO/qobNJFRXSF3rioDETWSbMrGJgvzEVQmtbJzoj2YHTY+SUYCAAAAAAAShQ9BAEAAAAAAIASQg9BAAAAAAAAoIQQEETBee3XN9rvLLneBgAAAAAAKGYEBFFQNHh3dcUz8SBerrYBAAAAAABKBXMIomCkBu9yvQ0AAAAAAFAKCAgCAAAAAAAAJYQhwwAAAAAAAEAJISAIAAAAAAAAlBACggBGXSg0VW7bEpGe53vktikhe29modA82fhUu1wfGv7YUvfFjQ3y9uOr5L07rrT3jL58yENQgjq3Yi6zbIRCV8pHrTfK50VwzefDuXAPBQAAQCoCggBG3+Q5Ulmub8JSOesb5q5MNHi44uf3Sc0EY2Oqtc/t8ztWmYGUt+1ASup2KQmFvi6fV1xkvj991dQxCUDkOg9OoOyja3J7Ltmk6+XczOCPtj/3a5i2mA/1lip0zY2BlLsXWh6ftMyXU5caG+OtfQVNz+HSyfLhYzfktG593fv03jmhWloOrScoCAAAABMBQWAUTGrskc3Pb5BZefwglui1F5E1c5LzGZqzwdzfk6tzOLZXDvXrm6gc2vdbc1cm8zu2SP2EqHTXN8tzhwevgXTW2x/Y75KNe/s9+52emx2kaa2VL1Lyr8GHT1vTf1ZoYrHfyTm/tspj3OtH5JzY6K8ZlQ95CEpQ5+YnXQ1kvvd4cfScy+TUXy+Vjy/9QC546BdyzluDy8IMoN6h5WAHwIzXe3fUyueXp17baYKz8VeDfJpyvIrfD/SYYe4JocuvlE895CP21m/kKw8dknEyWT7867+w946cl3ufI3Z4t6yq32HccaulpWOuvRcAAACljIAgMArC4bCU2e/z12QpN3vtiUyfOc96Y6udWWO/y41Y7IjsaKiSuu/XyY6jmYMfoQXt0lIrEu1ulUfSBAPdnIfgTA/JpeLMZ7bIZXd0yNce/429Z/TlQx6CMty5xWK/kQuNz/WYsjt3ybn2/uF4LbM/XnaRnLbfFyPtmfjhVcb1/MKzcl6GYOAnLUuNY5LL4fRVlfLhvTnogTd+mtkz8dzXj4lcOkU+z9BDUfP57r3z5eN0+VgwOOgXe2u/fPUF49501fyc97r0eu+LHX5M7uuOGjf0+2TjgtzmAQAAAIWHgCCAJH2RXpGq6+I9AUOh+XJNVdTYbzxIjiJzqPDyapETO+S+R4buRQig8JnBvnmTRd45JF/9xbv23mSnb1ggH+tQYuOYrzy00Q68bpOvvK6fZuiB9/ou87jk15a0AcfT06fIaTkmX/rbI3KuXCSnpl9if5KgPQ8/XD7ZDASOM9K+xM6Hvi554pCc+7Z1XKpxv4iYAeJT82rGrDfykUe2iXGHl5rld8i0Iu5lCgAAgOGFKioqhu52AxSg0JQVsqlzifR3XCsHZz4pTVVhkf7t0ty4V2a0PiALje2ByDq5u2WX/R1WAKrW+Owm4zOnN99Af688/dAa2ZfSi808tuF2uamuJnFsZLs83d0ZP1aH2T65auiedQM9y+TuriPmew28rd6zVsqNfSu3iCy286k07U2tnXLcNZQwNGW+LK5fLpXD5Ndrus5x0rFOZJV+vVba9xr79TxuPSGdB2qlqc74OtdI386Hl3JQQ5VFn/1zUmnvwIMt1RLtbpCbH7bKKB3tqTNgPJyPe2GbfO2Z38W3z31io1x40Mmn8QD/2Hw59c4huaStV850l6Pd4+hjSf5M95+6oVo++Z714K/GvX5Izn+2N2kYow7hfPd7FyX9PJWaL4cOM/xkQZWccvUsGvfOMTm/K3l4pJPnPxrff8kvRD756wVmbySl+fjq37rzap+fuWXTIEiG3mbmuRnpfTJMHvzwkwerzEQueOhZOXO6q4yNPFxg5MEdqHGX7/l/foP8+xDHKq/lm8jDT+Wc6UOn67d8HfHvy3Cs13SdtjSUbNuZirf1CqMMNNjmMqhdB9B2HJmuGUeivI7JV+40fl666/jSxGfDlX+qeBrv7JKyv30v7X1BOW3SSxtIlel+kQ0v9750pv3oZ7KtPiy9bTPlnmdHlgcAAAAULnoIoqiV32oHA82NWrnFFQwrq1oeX+FWA1uLu7aax7qH9paV10hT55ODVsKtbTWOdQXBVFnVEmmqTx5qm5XwHFm9Z2s8n0rTXt+aSNvM771rzWMG57c9/Tx/w6U7+QqxRgzvloORxLBhHS48cGCv7I+eMLYmyHhXXCLIcph/XbXxb1T2vTB078DYwWfMnjlOAMHZHunDts5j9qErGKgyDQf0ygw4NKYZZqgLDmQa7njZNPnwsaXxYKDSfLyb5VxkTtBj0JBLMw8/SDuvWjAuklONKWVs5OHjtOXwgfxx3g/k3WGOzaZ8TzWmS3c0yyH3/JSDHhtv6ynBwFRBt51T39Kbywdybl/63oFSOdUMno574cCgeRYT8zBOlj9UWvt8s4cL6xDceHopw4a1DKwFYD6QC579P9ZOH8b1HZVxxtdT3xr5XILZ3vuOvNBr3FlFaq5jLkEAAIBSRkAQRa2sPGz2wlvUoYOkwjK9Kmz2SGvu0cehsJRPMg+TiQ0PyEKNhvVvl86ma6Xu+1WyaO4y6TSHyYZloSvAZQ2hNd5EtkvzXOtYfTV3bJc+16ja2N7V8c86I7qnVzpdx+vL6R3opgG16cbj2s6OZeYxi5rWSZ9+4BrGa3qrN36MeZyZX/2gRq6ZbR6RxHO6hv0vG+V1+RUyyR4unG7hD6/loNxlET/OrIP0NOB5ha4qfKJX9mbuHBgY7Vn0h6uMN68fkkvu9DYc0DPtgfbEtnia7uGO6QIZGvw7pcEH+3vKHrLnpXOtRutn3rrMQy41mHKRfJxlwDObufM0AGUOuTTKeOhyuMg49iJvx/oq3zTp6jxvKUNFs50XcDhe03UCPfqyzkV7wSXapb4G9ajzWg6V1eacfe72oK9Lnjhmfe4SVNtRGmj7wkz7qJxz0tqXyVn/lj5gOO7f/t1+l+Kq+fFFP+KvNAuGWMOFEwFJK3iXOmz4a1bg1EM+0zp5WM59x/h66dfGbhGjI7+Ufeb/70xi2DAAAEAJIyCI4ta/XTZtcQWzjO2fvyjyptnbzaLBpxnV2muuVzobE0NddeGL/a33y05dDTdN0EyqamXG7G/YGyLH9z4q7V2JIcjZ08DhItlhR8JiR3eZPfbczEU5WlbHj1FmfjWQl9Hw6ca9+JL0lRvn13CdTO/fL68Mjg0kBFIOV8hEMyB4XA6n9AQaVVdNkc8rE8GAMw/ulwuf8TdE0E17HZ33+DNy3sFE8Eb3nfvPQxWwBn9+Gv8eXbH0S2Zgx79E7yYjzbbE0GczD3/7rFyggQpXoDFwr+8yF9HQ4Zjucvjjnw+et83LsdmUrznc0p2uPc/b6YppBbvqtNdyMHv86Zx9Ke1BaS82t+DbjhNoey9peK7b6T//qv1uaGnbzzDi5+cO9NnBu1y2BS2vM82A4MXyR2vXqNPfFW+YAcGJMvRAdAAAABQzAoIoajrU9bjr4TJ122Kvrht5KT43nkMfnE6+pe8SQ2VjsV2yoaNXBrTn4Kqt0vN8j6xpXCGzUoYVZy1NPva1aK+61Un7dQ7BNVt6jJ8fib+GnLPQY7pKz/FgxDi/Omu4cKLMEr0qAy+HMaQ9t77yxDGzd9DHy5fK2483yEc31srnORhGqnO7fdTakNRbacj54V4/Mmh45DmPay+uZwbtH54ddEmTZjxQIV+VLzKsrJpr5/6z9yGXXo/1W76De5u9J+PMcihsvsrhnfflLPttZmPfdjL2AEwxqE5f3xXv+Rh/te5PDjw6w4V/fTi+PxG8y7zaMAAAAFCoCAgCWdAhsCvnLrOGx/aHZXrdEmnqfFU2t823jwiWtWjKWplenpgPcMQmTZAyiUr/cWvT6m2YfriwY6zLIUg6TPOSO7dZw4TfuUhOfa9SPrz3HnnvjivtI/wLXV4r7947X05dmpgPELlD+Vq8l4Md5CswmXoAeu1BmI41XNj4+j39D4BEENUcTp00bNgOGBMkBAAAQIEjIAg40gwL1uHE4y/XdyfkZMqoQ+09aA6PbbDm79Ohxe6FSgZLXpBjJGrrl5gLeQz0rEuav8+aKzE3rHn/6mRHygrLqfyXgxdvyJs5nePKeYhPN0wvc1DE7CGkw4RbrbnSdFjk6auqPC2ecOpbg4MTpxZUmkGHcS9Yc9Y5vZXK0szXFqg0Qzvjc7jJv8uZ2cyNlgdyUr52T7Ghhq6OvaF74nkvh8zXhbXARxqBtR0nL0PMrfdv75tDmdMN4dV5Pz/RlX/lmHzpkLXPq8Rw6Mycn5noDZk6t6A38bLy1CszGIk5Wt80SgsAAAClioAgSp41PFbf1UhT6zyZZD9o6kNTra5KnDKcWHvnrWnTobFTzW2lQbFXDiQvVOIWjVqfVc5KpJ8L/dFj8eG8k+askNW3DjFkOMeyKQevNB1rjqsamZNIPmuJh/jJ8slf/0U8mKAP55+0zLdWLnUNFdQeVh/doUOEv25uK03DWsX0Ijn959Y+5QxjPPWtGjNdM7hwR4O5EmsmZ/1bItj0xTW18qE5j1vwdCi0Nf/gZPkwpRxO/bW9YESaIaGFxl/5JoI6Osz2k0YrmOZnOPNoOuttZ9GTRP1lMlw5JF0XN1jloGXwaavTMy4h6LYTz8sQPe9ib+2X8zUPl1qrbMfzoPXmXMdpViAelhMETje02HiZi7G48nXus4eswOT3lpo9ht31oOX80Y1D9CL2EHDWMv3UuIdoD8WR9EjOaOp3ZVY+zNEKAACAMRWqqKjgr0EUHWtI7RKRnmXmSr6hORvM+fV0xWH3tq443L43ZjyAzZfVe9bKdPv7k/TrYiNrkgKCmrb20BtMF+5IHOtwfl4qJz8qnofIOqlrGXpRjkmNPbK+LvNwYee8lNd0rTRFdjYtStsrcFCZZlEObs45uPPqFlrQLgdbqiXa3SA3PzzypYatYZRWsGeQd3ShhF/EAwlDHquLKtzpOjZ0pXz4mBWMSPLOByK6gq0uWmGvAPvFjQ3yrtmLKb1zn9goFx5MSVeDFI8PvZBJ6Jobh5wnz52HjPlVKeXgh588OOXgPl/lpDHSYzNxpzHksSll7qt8AzrWkel7si2HTG193OvHRK6aLGela5PmVooRtB1HujpNNfR1fEguaetNBPY9XkPOz01tYw6nPD2X8RA/z/m+TD9LJZ9j8v0mF6b96GeyrT4svW0z5Z5nc5cuAAAACgs9BAGDuUBG0zrZGdHebY6oDETWSbMrGKhiRx+VTbqYhq4+HGcfmyEIpsNvmwd9T/aOd9VJc48u6OGwf37Hdte+YGVTDr481yXdJ0TC9Y1y/TA9obzQ3kWXPLRLztVAXdwHMs54eL8kJZChx35VFxUxe0857GNTHs7NBUge0nkG7R3GcefqUM02a7VatzOf2SKXvKCLlTjsNJ+wehyNBiu/u+SC14cvh0Ljp3zH9UXMMkiqY6NtnPvCtmEDsGPJnNtyUNtM5qcczOtC9zvpaRk8sU0uefZ9e0dC4G3n0AFrWP73qjOuVuxcx6l5sK65RDDQD2t4dOahxuP6jprldvqyr1k7DGYZm/OLppbFIfnKs+l7l5q9h82VjA/J+UMNa9bVje3zG5fjHrva831ObVjkxA758XP2TgAAAJQkeggCGBPD9UhUue4lCCC/eeklWKi89A4MGr0DAQAA4KCHIIBAaY+U29o2JM01GJoyX24xhzwPXqzFLfbsGmnbr70EW+WuaSPvJQggv2kPSJ2z7/T3FnhavKdQ6DDgf9chxq/vGrNgYGjanfJgvXHf3f8gwUAAAADQQxBAsDQguLhrq7U4Swr3HIqZhELzpOPQfVIjB6StvlmeO8wtCyhmibkKj8lXHvqFnPNWYV/zuujJh/ca55Myx+FoCk0z7qPdxn30xA5ZesvjLCYCAAAAeggCCJauGPz3D62Tvn7X/IzG+76O4YOBKhbbLasqH5ReXXWYUcNA0TPnKrxT5/s0Nk5a+wqanoO56MrYBANNeu88cUDaCAYCAADARg9BAAAAAAAAoITQQxAAAAAAAAAoIQQEAQAAAAAAgBJCQBAAAAAAAAAoIQQEAQAAAAAAgBJCQHAMhUJT5a6nDsihXxmvp34mGxdMtT8BAAAAAAAAgkFAMF9MCEtNyxbZuCBk7wAAAAAAAAByj4DgGIrFjsgjN1dL5XeqZWn3AXNfzXVzza8AAAAAAABAEAgI5okjj3RJ9wl7AwAAAAAAAAgIAUEAAAAAAACghBAQBAAAAAAAAEoIAcF8U7tU7mK1YQAAAAAAAAQkVFFREbPfY4yFpt0pHQ/eJjUTrO1od4Pc/PARawMAAAAAAADIAXoI5pXj9lcAAAAAAAAgGPQQzCPXbzwgLbVR6a5fLI8cploAAAAAAACQe/QQzBOh0FS5QocK799GMBAAAAAAAACBISAIAAAAAAAAlBACggAAAAAAAEAJISAIAAAAAAAAlBACgnnjCpmocwgCAAAAAAAAASIgmAd0QZH5dy2VGnsbAAAAAAAACAoBwTGkgcDXfn2jHDy0RVrqw8aeqJw9+xzrQ5t+DgAAAAAAAOQKAcEx9C+vXSld/3eVnH12h8iJqPG1R66ueCYeBNSv7m0AAAAAAABgpEIVFRUx+z1GkRPscwy3DQAAAAAAAOQCAUEAAAAAAACghDBkGAAAAAAAACghBAQBAAAAAACAEkJAsABNauyRnucjsrltvr0HAAAAAAAA8IaAYIEJhabKjOqw+b6s6jqZFQqZ7wEAAAAAAAAvCAgWmFjsiLxyIGq+H4i8JPtirAkDAAAAAAAA71hlGAAAAAAAACgh9BAEAAAAAAAASgg9BMeYzglY23C73FRXI2X2voHIdnm6u1P2HU1UTSg0X1bvWSvT7W1TZJ3UteyyN7KjC5SsrxPZ2XS/nJzlykd/r+x8aI3scOVBmfltfUBuqgon8msc+7RxrDu/AAAAAAAAyE/0EBxjta1bpckVDFRlVUukqX6evTUawlJ5b0o+ymtkYWd70qIlGgxc3GUc5woGqjLj2KbOJ+W2KSxwAgAAAAAAkO8ICI4h7fV3TZXxJrJdmudeK3XfrzJfzR3bpc9aNyQuFtsl7fbni+aukz57f66UlWvPxHVmPhbNXSadEd1bI9fMNj82TWx4QBYax0n/dulssvJrHauZDcvCUQ1iAgAAAAAAIBsEBPNBVa3MmP0Ne0Pk+N5Hpb1rZEOBfYusk7tbdsnxWMxcyXj/y73m7vKwlS/tHTijOmy865XOxsRwZvPY1vtlZ7+xUXVdUo9CAAAAAAAA5B8CgmNIe/1t6OiVAe1dt2qr9DzfI2saV8isMRh62/fybvtdJpOlXHsHRl6SfbHkuQI1KHjyLX03QcZPNncBAAAAAAAgTxEQHGOxvatl5dxl1jDh/rBMr1siTZ2vyua2+fYRAAAAAAAAQO4QEMwD2sPOHCbcYM3Jp8Nvy6qW5+ciHWmGBetw4vGX67sTcvKYuQsAAAAAAAB5ioDgGApNWSFr2nSI8FR7jxUcfOWAtUhH+SRrXz7Q4c0H7YVGmlrnySQ7KKjBwNpWe7GRNMOJAQAAAAAAkF9CFRUVRHDGiAYEN3UukTJ7O1mvdM5dEw+wheZskCdX1Zjv0xnoWSZ3dx2xt7yb1Ngj6+vC0tdxrbTvTTQF5+e509VVkVfvWSvTza0U/brYSCK/AAAAAAAAyE/0EBxDsaOPyiZdVERX6I2LykBknTS7goH5wlwEpWmd7IxoD0aHnV+CgQAAAAAAAAWBHoIAAAAAAABACaGHIAAAAAAAAFBCCAhCXvv1jfY7S663AQAAAAAAkD8ICJY4Dd5dXfFMPIiXq20AAAAAAADkJ+YQLGGpwbtcbwMAAAAAACD/EBAEAAAAAAAASghDhgEAAAAAAIASQkAQAAAAAAAAKCEEBIEiEApNldu2RKTn+R65bUrI3ptZKDRPNj7VLteHhj+21H1xY4O8/fgqee+OK+09GGtOnbzdWitfFEkbDqqd0X4BAMWomH+/8bsbo4F2VliCen4/87LLLmu13wMoUKEpt0rj//cquUAulAs/7ZU9//K+/clgGjxc8fON8v9MeEv27X9R/u979ge2z+8wfjE0zpBPwh/K+X3vDtouJaHQ1+WzRVXyH+eL/OnSM2TcriMyzv4MYyN0zY3yzn8pF3nnkFzS1itnxgp/Gtxs2tkXRjl88MMF8vtFxrW5wHp98d6rck6/fYAhH9uv1t/b9y0YlFfkN+rNP8osWPlavqHQlfLR48vkQ/u+bL4K6O8nL79b8kGh/H2WTXsYybkFdV0U2v1sNPObD9e8BvZ+d/d3fZ2vl3bm59wK/d43Vvw8d4em/X/kez9YIkt/OFX+7SfGM7y9f6ToIYiCNKmxRzY/v0Fm5XHvoESvvYismZOcz9CcDeb+nlydw7G9csj8BRCVQ/t+a+7KZH7HFqmfEJXu+mZ57vDgYMpZb39gv0s27u1E5NC66afvoaW/YD5tLY7eW7HY7+ScX1vlMe71I3JOEQSf8on+AfPe4zfK5x7bSejyWnl3+WSR13cVTTBQ+W1nWm5aDqcvtXdkQPsFMNr83teRP7z+bskHxfz7jd/dGA2F1s6K9XeLl+duR+zwbllVv8N42q+Wlo659t6RIyCIghQOh6XMfp+/Jkt5ufVu+sx51htb7cwa+11uxGJHZEdDldR9v052HM18Qw8taJeWWpFod6s8kiYY6ObciDLdqErFmc9skcvu6JCvPf4bew9y5Y+XXSSn7fdexN7aL18z6uIyoy6KJRjo8NrONOD+ecVFxrsP5IIntpnf47wuPDi4TGi/AEaT3/t6sYnFfiMX2vfksjt3ybn2/nzn93dLPiiE32/Ztgd+dxeOQr3m1XDtzM+5BV0Oxf67xetzd+zwY3Jfd1Sk9j7ZuCA3wVECgkDA+iK9IlXXxXsChkLz5ZqqqLHfuJhHkTlUeHm1yIkdct8jQ/ciBJCvvmb13ng9Iucd/J21CwCAEeF3CwAUgiOPbJNe42vN8jtkWg56TIYqKiqKq5sFAhGaskI2dS6R/o5r5eDMJ6WpKizSv12aG/fKjNYHZKGxPRBZJ3e37LK/wwpA1Rqf3WR85vTmG+jvlacfWiP7Unqxmcc23C431dUkjo1sl6e7O+PH6jDbJ1cN3bNuoGeZ3N11xHyvgbfVe9ZKubFv5RaRxXY+laa9qbVTjrt6GYWmzJfF9culcpj8ek3XOU461oms0q/XSvteY7+ex60npPNArTTVGV/nGunb+fBSDmqosuizf04q7R14sKVaot0NcvPDVhmlo/NuDCyfLONe2CZfe+Z38e1zn9gY/19iHTL84WPz5VSaedz0f5k/aVkqH0vyZ7r/1A3V8sn3Jsf/h2fc64fk/Gd75Zy3Et9vDln53kVJP0+l5ssRuvxK+WRBlZy6KvE/R+PeOSbnd/0iKV0nz380vv+SX4h88tcL5GPje5Tm46t/686rfX7mlu31XWbPtHTMczPS+2SYPPhhlYPIBQ89K2dOd5Wbke4FRrrnpaQbRB7U4Hr7wCiviFFe/2dQLz0vdezU41CyrWOvzKHH91bK6QzzEOr8HR9e9YFR9j+Nl7PXcgiynan49wzZHrNI1y5jJ696fue+8Kxc6KoH5acu4mVWYZRZyhC0Qdd3QO3Xq3y43hJ5+KmcM/0G+fch8uD7Pumx/Srf9eYxXT/8XvNe26/y3NbHuMz83Ev88lu+w8nqvq7l4PEa8lW+2dyj4nVhlW3q3yXZ8nS/zpP8esmrn/uO33uq8nJt+v395rWd+f4dkMU1NFwZZ3VuQV4XOf4dEFT7DSq/2cj1Ne+Vn78f/LYzh5dzc3gqBw91kfXvFg917OTR6+/YIOpNpd4/ne3Utptq2o9+Jtvqw9LbNlPueTb7n6/oIQhfym+1g4HmRq3c4gqGlVUtj69wq4GtxV1bzWPdQ3vLymukqfPJQSvh1rYax7qCYKqsaok01ScPtc1KeI6s3rM1nk+laa9vTaRt5vfeteYxg/Pbnn6ev+HSnXyFWCOGd8vBSGLYsA4XHjiwV/ZHTxhbE2S86z4XZDnMv67a+Dcq+14Yundg7OAzVvdx++bqbA91U/Li1F8vlQ9dfwSo01dVyocL/sLe8k9v+p80zjdv4EnpXjpZPrz3hvTzTFw2zfgFsNT1B6eVj3f/Ort8mHloMc4tbR5+IJ9eniYPnl0kpxpTys1I9+OUcwsyD4PrzfgZV82Xd1tqBs0RmTd1PJyTh+Xcd4yvl06Rz8dbuxz6B8IfrjLevHNUzjlp7VN+ysGUw3amAcz3dM5O4zXg/BFn/Gzdjr9GMGenFSC1yjjBaHvfW5DUdvzUhR4bL7OUP9BTBXsN+TH215s61XiP8Yd9ah5G5zr2U2/K93XhgZ92pry2X+Xn2LwpsyB+Z+X6nuqTn2vIT/n6PbfBdWGV7Uh+Z/kx1vkN+neLeW15uKcqP9emV37amcXH74A8uIaCuC78pKsGt0njZ2S4nwVxvQWZ3yAE3XZONf4g538/BCWouvCdroffsUHWW7bP3Ude6DWe6kVqrhv5XIL5uCAT8lhZedjshbcyervZQ216ldUj7efhJ2V9XVjKJxkHHRWZ2PCALNRoWP926XzI6t3m9BjUIOHC+nmyw+5NaA2hNd5Etkuzq9fepDkr5JZErE1ie1dL3V7r/ay2iJFOb1Lvukw0oFZmXDI7O+6XHXuPmD0BV3euNfKuw3h3J77/rV7Z+bOfmMcoK78a1KyRa2aL7LN/tmO4dPfbx6n9L/dK061XyCR7uPCh7t8aJ2h/aPNaDspdFg5daEXrIB09lysmGG9O9Ip9eqMqHmR5/ZBc4vofly+uqZVP/tx8mz3936/dB+JDXOJ/HFw1Wf5QKXLOQXN3nN7kT4vOkfOs+T36Pz4fGn+EnrpqqnFD/z/mpLrWPBjGyzg+/r9c1rcPcvqGBfKx/hHyziH5Spf1v5xWHhaYf4R+bPyhc94w/5M2FP0DZ9zru8z/2Ronl6Q9t6DyoP9L9aFZb7uMerP+Zy2RbqV8Utlr/MKyj/VYx+YvOvt7rJ54x+Qrd/5i6MmMfdbxcHQi5fN3H5OPl0+WU9MvkfPeSvzPolRONev63N2unnw+ysGR63bmh5909Tw+adS8JtpZ/PxuqJYvrMMSvNZFZbVVZq42qXQFS3NhGJegryE/xvJ6sxh/bKbmwfh5H37PeFBNbase+Wq/Puotm+vCM4/tTPd7bb++js2jMvNyL/Et1/dUn/d1X9eQj/I1eW47Af5d4keh5dcnL/dUPWev12bQf595ya8px9eQ8vU3QUDXRVD3s8Dab778zvIjgLZj8fb3Q1B/e/rhtS78/m4J9HdsYPWWpSO/lH0nbpP6CZPMYcOHM5SJF/QQhD/922XTFlcPM2P75y+KvGn2drNo8GlGtQameqWzMTHUVRe+2N96v+zU1XBdc+rFVdXKjNnfsDdEju99VNq7EkOQs6eBw0XxQF/s6C6zx56buShHy+r4McrM78s6Qj+T4dONe/El6Ss3zq/hOpnev19eOWbvTyeQcrhCJpoBweMjumGM2FVT5PPKS+wNkTMP7pcLn8n+QV8DO+c9/kz85qx037n/PFQB6y+Tn8a/J/bWb+RLr5tvfdNfBtYk3EaabYk/RMw8/O2zcoH2QjN/oWT/P0f6S00n+9Vfau5z++OfW+UYZB5OfUv/mDLStX+pKivdiDlZ8Klvpflf3byoYw8OHTHP4XTFtKT/MXTO+UuHrG2VVTno8TlqZ/HFVIxXfKJmo13odvzVuj+eN1/GT5NT+sDkamdKz++cZ4xyt9uT8loX2iY/mWeXmatNqtT/hRyVa8iPMbzeHOawEXcefmG1s9S26pXX9uun3lR218XwNA3P17yP9uvn2PwqM+P4HN1LlP68QO6pHvm5hvyWb1bndlVuf2f5Mdb5DfR3i2OYe6rJz3XsUdb3ag/51f1jfQ0FcV2Myv0sh+13VPKbY17rIlu5/vshKEHVRVC/Y4Out2xonOINc7DhRNGzHgkCgvBFh7oety8wlbptsVfXjbw0qPeeNt6Tb+m7xFDZWGyXbOjolQEJy8JVW6Xn+R5Z07hCZqUMK85amnzsa9EVeVcn7dcefmu29Bg/PxJ/DTlnocd0lZ7jwYhxfnXWcOFEmdm9Kg2Bl8MY0v+N+soTx4xf0BfJx8uXytuPN8hHN9bK5znowq7/k/NRa0PSEJch55tIs7T+OY/rH77PZNHTwpmEe3Ca+oviTP2DU74qX6QMS/Xj3H/+P/a7TILJg/6h9YWma1zPHz52T3L5Ov+beOnX4n9g5FUde6D5NX/hu4YNJ/4HO1GWfsshLqftLEB/frHZK2P4dmbxVRfvvC9n2W8zC/4a8mOsrje3s/7tXfud4z0ZZ6brX1bt10O9ZX1deOS5nflpvx6PzbsyC+BeEsQ91bssriFP9xKL13ML8neWH4WWX79yeW36k9292msexvYasgVwXZgCuJ8F2n7z4HeWH0G2nVz+/RCUoOoi6N+xeXHNB4SAIPKCDoFdOXeZNHdsl77+sEyvWyJNna/K5rb59hHBshZNWSvTy9MPuc3KpAnmkOL+49am1dswKof2ZZ7Db6zLIUja7fuSO7fJJU8cknPf0XlhKuXDe++R9+640j7CP2fOmVOX6v8CY6wVWh2f++wh849THUphMocLfyAXPJvLh5L8dvrPv2q/G573urAfxFBg8qPe/Fzzftqvn2O9K7y2Xli/N/2Vr99zC+J3lh+Flt+gBHNtBmfsr6Ggrotg72e5b7/cfzE6ir3eCAgiOGmGBetw4vGX67sTcjKll632HjSHxzZUyaK5y8yhxe6FSgZLXpBjJGrrdT5AkYGeddI891qp+7729DPy0THUkGF/zHn/vl8nO1yrBafjvxy8eEPeNLsVW/MMjJz9P06XXix/tHa4ZP4Fbf6vrA4PaNXhKdvMIRunr6ryNNntqW8N/oPx1AJ7zpkXdhl/ZGy0hrfo0JcnRrkLd5phJ4n/qfp3OdO1OEVgcpyH+P+gv3MoqWyTXmmGEvmv46F7UwVax/biIs5QCnOoQcpiItmWQ6EY92//bn5NGr6Vgfe6yHx/sIZzpJEP15Afo5lfZzjdO+8N285S75P+2q/3egvyuvBzzftpv16PLcQy82N0fm966CXr6Rrydy/J5tzMesny75KRKrT8ZpLu7zM//FzHvgVwrx6da2goQV0Xwd/Pctt+uf8Oy8ffD6NlZHWR+XdLkHU89tf8YIn1Ad6UkeaCgCByzhoeq+9qpKl1nkyyfxFbi3TYi424httq77w1bTo0dqq5rTQo9soBXTsnMaTWLRq1PquclUg/F/qjx5IW81h96xBDhnMsm3LwStOx5hmokTmJ5LMWv+nKZPnkr/8i3v1a/8j6pGW+2S173K8Px2+6+j8rH92hQwO+bm4rTeOcX39gvLtITrsmFHb+MDz1LWs1KE3z8zsaRCeAzuSsf0v8otMJij805xQJXnzYqXZPTykHncDWnMw6TVf0XAoyD2e9bdTPpZXy75ruMH+s+aljh5m+2UMvke9MgqjjeP7MYcN/YQ4Xdrdbh59yKDjOXIrfWyrv3XhlUvv5/MYb0/6RPlxdJN0fbrAe8HSoxaetOiG0uRk3kvar9wUdsjGavWNG55pPPBRruX1oT7bvHsrm5z7ptf36qTcV9HXh6Zr30359HFuoZeZHUL83zXMc4r7u5xryW74OL+eWze+soBRKfrP5+8yTLH4PDWc07tVBXUPDCeq6CPJ+FkT7DTK/QQuu7VjloLQsnMV6cjscf+SyqYvhfreooOvYT73pvebTIP9OnfpdmZWj9QFCFRUVI0sBJcEaUrtEpGeZ3N11REJzNpjz6+mKw+5tXXG4fa+u6DNfVu9ZK9Pt70/Sr4uNJFYHdtLWHnqDpV9J2Pl5qZz8qHgeIuukzl7ROJOhVuhVznkpr+laaYrsbFqUtlfgoDLNohzcnHNw59UttKBdDrZUS7S7QW5+eORLDesv93fvtX7RDPKOTvCbWAVqyGPNyVxdx2Za8eodvclfJOaEufbS7F/c2CDvfi/zH6LnPrFRLrSXbY+nqxNmPz70BMa6StVQ80K48zDkCl0p5eCHc27uc1BO3kYjD/rL7JOWpdYfzmkkla+POnZkKuds6zgbTtnJ68fklPEHZNp8+imHgNqZw0v6ftPNfPwHcsFDP41P6O7resvQHsYZ5SxXTZaz0pWZuZUiQ/tN/p7kfGYjH663Ics3pb4z5iHNfTIX13H6evOerh9+r3mv7Vd5PTYfyszLtZ6NwO+pGco422vIT/nm4h5lSf87y4vMbcziLod8yK/DS3vzc99xzi21PaW7pyrP16aP8vXTzvzk11e9+cmvn2NH+boY8f0sqOstoPz64afe/NSFH0Omm/r3Q1Bt0s+xWdRFpvSzTdfP79hs6i25bY78Hp1q2o9+Jtvqw9LbNlPueXZk6dJDEIEwF8hoWic7I9q7zRGVgcg6aXYFA1Xs6KOySRfT0NWH4+xjMwTBdPht86Dvyd7xrjpp7tEFPRz2z+/Y7toXrGzKwZfnuqT7hEi4vlGuz/A/K37o6nSXPLRLztU/BOM+MH4J75JLUh6I9divPnHM6tofZx+bcoPU/9X9ykM6v4i9wzjuXO2i3WatEOV25jNb5JIXdJJih53mEzo33Oiw8rtLLnh9+HIISlB50P99Pb9tm3zFSHe48vRTxw5zPplB35Ms6Dp2ehGcMv5wzNRbwE85FCKrHvSaS24/577wbFIwxU9dmPcH3e/UrZH2uU9sk0uefd/ekZBN+zW/Z4yGaozqNa/lpve/v03+330rD97uk36vY+/1Fsx14fea99p+lddjC63M/Aj8nurhvu7nGvJTvn7vUX5/Z+VaoeXXz33HLz/XsVdB3auDvoa8CPK68Jqu3/tkEO03qPwGJai2M64vYrbzpPLVsnhhW07/QylXsqkLb79bgqnjrOpNpyUy8qHGjXjkSDIddTmnNixyYof8+Dl75wjQQxAoEsP1SFS57iUIAGPli2tulH9fPllOB/A/r2PB+R/obHsIAAAAoLjlsnegoocgUGD0fwVua9uQNNdgaMp8ucUc8jx4sRa32LNrpG2/9hJslbumje38GQCQjc/vWGXOyfKuGQzUoRqFHwwEAAAAhhKadqc8WG888+9/MCfBQEVAEChEl9dIU+dW6Xk+Yr6e7LTmaxzo+cmwQ4t3rXpQeiUs9d3r5XqCggAK1DidA+ohetMBAACguL326xulo/s2CZ/YIUtX7TG33VK3vSIgCBQYXTH47x9aJ339rvkZjfd9HYkFVYYSi+2WVZUPSq+uOsyoYQAF5pzHO+SyOzrka63PyDlZzi0FAAAAFAIN9n3z6s/lu2d3SNstj8s/vHaDXF3xTDwIqF/d234whyAAAAAAAACQR5xgn2O4bb8ICAIAAAAAAAAlhCHDAAAAAAAAQAkhIAgAAAAAAACUEAKCAAAAAAAAQAkpqoBgKDRV7nrqgBz6lfF66meyccFU+xMAAAAAAAAAqnh7CE4IS03LFtm4IGTvAAAAAAAAAFBUAcFY7Ig8cnO1VH6nWpZ2HzD31Vw31/wKAAAAAAAAoIh7CB55pEu6T9gbAAAAAAAAAEwsKgIAAAAAAACUEAKCAAAAAAAAQAkp/oBg7VK5i9WGAQAAAAAAAFOooqIiZr8vOqFpd0rHg7dJzQRrO9rdIDc/fMTaAAAAAAAAAEpQkfcQPG5/BQAAAAAAAKCKuofg9RsPSEttVLrrF8sjh4v2NAEAAAAAAADPiraHYCg0Va7QocL7txEMBAAAAAAAAGysMgwAAAAAAACUEAKCAAAAAAAAQAkhIAgAAAAAAACUkCIOCF4hE3UOQQAAAAAAAABxRRkQ1AVF5t+1VGrsbQAAAAAAAACWogoIaiDwrqcOyMFDW6SlPmzsiUr3j/dYHwIAAAAAAAAo4iHDJ6LS3dYqjxyO2TsAAAAAAAAAhCoqKoiYAQAAAAAAACWCVYYBAAAAAACAEkJAEAAAAAAAACghBAQBAAAAAACAEkJA0DCpsUd6no/I5rb59h4AAAAAAACgOJV8QDAUmiozqsPm+7Kq62RWKGS+BwAAAAAAAIpRyQcEY7Ej8sqBqPl+IPKS7Iux6DIAAAAAAACKV6iiooIIGAAAAAAAAFAimEMQAAAAAAAAKCFF10NQ5wSsbbhdbqqrkTJ730Bkuzzd3Sn7jiZONRSaL6v3rJXp9rYpsk7qWnbZG9nRBUrW14nsbLpfTs5y5aO/V3Y+tEZ2uPKgzPy2PiA3VYUT+TWOfdo41p1fAAAAAAAAIBeKrodgbetWaXIFA1VZ1RJpqp9nb42GsFTem5KP8hpZ2NmetGiJBgMXdxnHuYKBqsw4tqnzSbltCgucAAAAAAAAILeKKiCovf6uqTLeRLZL89xrpe77VearuWO79FnrhsTFYruk3f580dx10mfvz5Wycu2ZuM7Mx6K5y6Qzontr5JrZ5semiQ0PyELjOOnfLp1NVn6tYzWzYVk4qkFMAAAAAAAAlILinEOwqlZmzP6GvSFyfO+j0t41sqHAvkXWyd0tu+R4LGauZLz/5V5zd3nYypf2DpxRHTbe9UpnY2I4s3ls6/2ys9/YqLouqUchAAAAAAAAMFJFFRDUXn8bOnplQHvXrdoqPc/3yJrGFTJrDIbe9r28236XyWQp196BkZdkXyx5rkANCp58S99NkPGTzV0AAAAAAABAThRdD8HY3tWycu4ya5hwf1im1y2Rps5XZXPbfPsIAAAAAAAAoHQV5ZBh7WFnDhNusObk0+G3ZVXL83ORjjTDgnU48fjL9d0JOXnM3AUAAAAAAADkRHEtKjJlhaxp0yHCU+09VnDwlQPWIh3lk6x9+UCHNx+0Fxppap0nk+ygoAYDa1vtxUbSDCcGAAAAAAAARiJUUVFRNBEnDQhu6lwiZfZ2sl7pnLsmHmALzdkgT66qMd+nM9CzTO7uOmJveTepsUfW14Wlr+Naad+bKFrn57nT1VWRV+9ZK9PNrRT9uthIIr8AAAAAAABALhTXoiJHH5VNuqiIrtAbF5WByDppdgUD84W5CErTOtkZ0R6MDju/BAMBAAAAAAAQgKLqIQgAAAAAAABgaEW5qAgAAAAAAACA9IouIPjar2+031mKbRsAAAAAAAAYiaIKCGrw7OqKZ+JBtGLbBgAAAAAAAEaqaOYQdIJnjmLbBgAAAAAAAHKBRUUAAAAAAACAEsKiIgAAAAAAAEAJISAIAAAAAAAAlBACgkAaodBUuW1LRHqe75HbpoTsvZmFQvNk41Ptcn1o+GNL3Rc3Nsjbj6+S9+640t4DeBcKfV0+bV1ltKEG+fTy/LzeuB8AAAAAyHcEBIF0Js+RynJ9E5bKWd8wd2WiwcMVP79PaiYYG1OtfW6f36HBC+NlB8BSt0uJBnM+r7jIfH/6qqnyeR4ETELX3GjWx0fX5DYvQaXrx2jmwQn0Bv6zxk+TU5fqm4vk1PRLzF2jwdd1rPeBCdXScmg9QUEAAAAAeYmAIEyTGntk8/MbZFYeP7wmeu1FZM2c5HyG5mww9/fk6hyO7ZVD/fomKof2/dbclcn8ji1SPyEq3fXN8tzhwWv0nPX2B/a7ZOPefs9+p+d2pXykwYXWWvkiJf/xHlFpPis0sdjv5JxfW+Ux7vUjck6MNY3g08nDcu47+uYDObfvXXPXaPByHTtih3fLqvodxt2jWlo65tp7AQAAACB/nDFj1mw54wzigqUuHA5Lmf0+f02WcrPXnsj0mfOsN7bamTX2u9yIxY7IjoYqqft+new4mjloFVrQLi21ItHuVnkkTTDQzQkcZAoslIozn9kil93RIV97/Df2HsA7DSqf19phtKEtct5box9Q9nodxw4/Jvd1R42b032ycUFhB/IBAAAAFJ8zvl1VK0t++N8ICqJg9EV6Raqui/cEDIXmyzVVUWO/8fA9isyhwsurRU7skPseGboXIYDSc+SRbWLcraRm+R0yrcB79wIAAAAoLqFHf7I1dvb5X5OD+1+UvgP/aO9G0EJTVsimziXS33GtHJz5pDRVhUX6t0tz416Z0fqALDS2ByLr5O6WXfZ3WAGoWuOzm4zPnN58A/298vRDa2RfSi8289iG2+WmuprEsZHt8nR3Z/xYHWb75Kqhe9YN9CyTu7uOmO818LZ6z1opN/at3CKy2M6n0rQ3tXbKcdcQ0NCU+bK4frlUDpNfr+k6x0nHOpFV+vVaad9r7NfzuPWEdB6olaY64+tcI307H17KQQ1VFn32z0mlvQMPtlRLtLtBbn7YKqN0dB63geWTZdwL2+Rrz/wuvn3uExvlwoNOPq+UDx+bL6feOSSXtPXKme5yDH1dPmlZKh9L8me6/9QN1fLJ9ybLaXOPDsM9JOc/2yvnuHpO6dxu737voqSfp1Lz5QhdfqV8sqBKTl11USLdd47J+V2/SErXyfMfje+/5Bcin/z1AvnY+B6l+fjq37rzap+fuWV7fZdclqGXoHluRnqfDJMHv+JlVmGUmTkPXcKg8vFYDspXuvlwbs6x8bbzgVFnEaPO/k9S2/PDamciFzz0Uzln+g3y707axrldYJxbam8+z+3MbqfppJ6X8lNvfni5jtOZ9qOfybb6sPS2zZR7ns3+5wMAAABALp1xwVcvkrPPCsl/+na1vQujqfxWOxhobtTKLa5gWFnV8vgKtxrYWty11TzWPbS3rLxGmjqfHLQSbm2rcawrCKbKqpZIU33yUNushOfI6j1b4/lUmvb61kTaZn7vXWseMzi/7enn+Rsu3clXiDVieLccjCSGDetw4YEDe2V/9ISxNUHGu2IHQZbD/Ov0monKvheG7h0YO/iMNUTWDro520MFEbw49ddL5UNXMFCdvqpSPlzwF/aWfxoo+qRxvhnYS0r30sny4b03pF8E5LJp8uFjS+PBQKX5ePevs8uHmYcW49zS5uEHWa8sawXi7DJLCZil8lMOvtMd43NTg9uOkZ+r5su7LTUjnqfyVOMP5F132sa5fZxybn7K14+g0lXZXsdHXug17hIiNdcxlyAAAACA/HHGnj0ROe/CC+Wscy6wd2E0lZWHzV54izp0YFlYpleFzR5pzT36CBmW8knmYTKx4QFZqNGw/u3S2XSt1H2/ShbNXSad5jDZsCx0BbisIbTGm8h2aZ5rHauv5o7t0ucaVRvbuzr+WWdE9/RKp+t4fTm9A900oDbdeMTd2bHMPGZR0zrp0w9cw3hNb/XGjzGPM/OrH9TINbPNI5J4Ttew/2WjvC6/QibZw4XTLfzhtRyUuyzix5l1kJ4GPK/QVYVP9MrezJ0DA6M97v5wlfHm9UNyyZ0bzcCEvi554pCc+7Z1TNa0R9cT2+Jplt25Tb7yun4wWf5QaR6RRIN/p+SD+PeUPbRLztUPXKsIx2K/kQvj6dmfZ3D6hgXysQa13jkkX3nIOjcrDzpn20XycbYBz8pq+VDLzJWuvi554pj1eSqv5eAj3Xw4N+3ZZh77+q5424nn4dJK+SRNHXt3kZy+9CIZZ6dtpvuCdW6DVgT2WL5O4M39usRMMwOf7TdwR34p+8z/q5jEsGEAAAAAeeOM6xfMks8+/kw+++QjexdGVf922bTFFcwytn/+osibZm83iwafZlRrr7le6WxMDHXVhS/2t94vO3U13DRBM6mqlRmzv2FviBzf+6i0dyWGIGdPA4eLZIcdCYsd3WX22HMzF+VoWR0/Rpn51UBeRsOnG/fiS9JXbpxfw3UyvX+/vJIhpmMKpByukIlmQPC4HM5yiGVOXDVFPq9MBFrOPLhfLnwm+8U6zAUbHn9GzjuYGEKs+87956EK+Jh85c6fxr8n9tZv5EtmAMY/7eH1eYX2NDTSbEsMfTbz8LfPygW6uqwr0OiV2XNsnnYdTU5XjbO/unktBz/p5su5nfqWfaxreLCVh4gZqD31rex7mCpzSO3jvzHTNtP9hZXu6Ypp8d6HXsvXr6DSHQm9771hBgQniqvzMgAAAACMqTM++f2H8tmpP8jh1161d2E06VDX466AUuq2xV5dN/JSfG48hz5snnxL3yWGysZiu2RDR68MaM/BVVul5/keWdO4QmalDCvOWpp87GvRXnWrk/brHIJrtvQYPz8Sfw05Z6HHdJWe48GIcX511nDhRJklelUGXg5jSHvcfeWJYzJOe5UtXypvP94gH91YK59nOeTUTedg+6i1wUhzVfyVaQ430+tH5JyU+jnnce2d9cyg/cP7mjXkNU2aGtg5U4Nm8lX5Yry5y7933pez7LfD8VUOntId+3PT4OEX5pDiyfLhY/ckn5szx+OlXxvRsOGz/u1d+53jPRlnnlsy3+3Mo6DSBQAAAIBickYodI78/oP35bXI/7Z3oRjoENiVc5dZw2P7wzK9bok0db4qm9vm20cEy1o0Za1ML0/MBzhikyZImUSl/7i1afU2TD9c2DHW5RAkHUp5yZ3brGHC71wkp75XKR/ee4+8d8eV9hH+hS6vlXfvnS+nLk3MB1gc7GCcR97LwV+6wciHPPgTVDsr3vYLAAAAALl1xj9F9sk/dG2SP/3pT/Yu5K00w4J1OPH4y/XdCTmZMipOew+aw2MbrPn7dGixe6GSwZIX5BiJ2vol5kIeAz3rkubvs+ZKzA1r3r862ZGywnIq/+XgxRvyZk7nBbN7UV16sfzR2uGSOeBj9izTYcKt1lxpOuz09FVVnhanOPWtr9rvEk4tqDQXYxj3QmJ+OXMetkzz7AUlzdDZRO+2f5czT5q7fMhcvtYQ2mTey8FfuqYxPLd4T8R3kueeTHq17s96peG0xk+TU3pu77wXTzeodpY37dclMd/omzJ2uQAAAACAZGcc7H2RYGCes4bH6rsaaWqdJ5PsYII+aNbqqsQpw4m1d97/n727gY6qvBf9/xtFK75crS/VNDqAcIXjf12jLY2RkLA8FYvIur5cDUshQBPP/1SD1f+Sl7s8ahL0+L9gWEvEaM/tCQVC6jH1arkL8QV7/ENEA+VU9KzVA71SZCSNtmqxVbFHPPPfv/0ys2cyk+xnMjuZZL6ftYbM3tl55tnPfvaevX88L8uatWvsZHtZaVDs9Z2pE5X4xWLO78pnJNPPh57YgUR33gkzF8vSW/rpMpxnuZRDUJqOMy5YlcxMJp+zZJfRifLpD/4q0WXTHh+u0enKOeatfYmAiraE+uR27SL8DXtZaRonveVM4HDsm846NeZ3f7R/Hv2WM4OspvnF7XX2TLfZnPC7ZPDmq8ur5Yg9Rl34tCu0M/7gRDmSVg5Hf+BOyJGhy+1AUsr3emfMRe1a+lnTEmeCjSwGKgeTdAtl305435k85I+ahzx0Me8rOaal5uPTeidIN/ZX/+as9Amrnpmkq+X/mXU+aNfiwbSuzWryd2VGIYw3CgAAAAA+kbKyMp5QhoHTpXa+SOdCeybfyMxH7PH1dMZh/7LOOLxqW9x6aJ0tS198QKa6f5+iRycbWZYSENS0tYVeXzpxR3Jbj/d56bz8qEQeuldITWP/k3JMqO+UlTXZuwt7+6WCpuukKbK5YW7GVoF9yjSHcvDz9sGfV7/InFWyq7FSYu11ctNjg59q2Onu6ARP+vhAJ4z4eSJY1O+2OmHEHb5tIxfLEW98OL8PNDB0pjMJxHPOJAxf3VAnf7g6e6Bw7PrVcvqutHTf3irnPdn/RCY6s21/47j585A1vyqtHExkK7Mxbx8QuWSinODbN6NyMEi3EPbNCTIvcAKQGfj3zUS/ZZZWR0zKNxPv79O3yyXd1LJLPXfyYcoPn5KNtVHpap4u92zJX7oAAAAAMBjHuT9R4OwJMhpWyOZubd3miUlv9wpZ7gsGqvg7j8ujOpmGzj6c4G6bJQim3W+X9/mb3B1sq5HlnTqhh8f9/JZNvnXhyqUcjDzfJu2HRKK19XJtHlpVxt/bIec8vFXGaqAu4WMZ8/ZWOSctUKTbfl0nFbFbhnncbdMCGvYEJA/rOIPuCmu7sdqlstmZ/dXv+OfWyTkv62QlHjfN9bszzlgbBie/W+W0twcuBxN2+ep+eOVglfPY9RvlnC0fuSuSTMrBJN1C2DdtUXhq80Y5w8pDPo/pmD3d9n6l1EnNx8sb+wSMw6pnOaV7eJ+MdY/HmBxaaPZHW3HPrI6KHOqQHz/vrgQAAACAAkALQSCLgVokqny3EgQwMKcloMhpD/9ETnmvcL/CaB0IAAAAoFDRQhBFT1vxzGt+JGWswcik2XKz3eW572QtfvEty6R5h7YSbJI7p4QxHhtQvJzx/W5IGSvTHpfQ7hacywQsQycy5Q55qNa6hux4iGAgAAAAgIJDQHCY7X3rBvedg+VhWr6gShpaN9jLnS91y9OtzniNF533ekrX4kx/v3XJQ9IlUaltX5k9fRfLLPux3P/ym3srRc6dKEfuXWBP+qG/773XnWTn5Z2yb+/1zoauwX5evpYjU66RlvZ5Ej3UIQuWvGivAwAAAIBCQkBwGOnD46VlzyUeIlkenuU3914sP314hVx03kr5zfvL7Z/SE7N/Bvv7k2RJ+UNy4olvyN9d+vMBt2eZZZaDL/+fGw7Y42q+P+2AnPf6RPunjo94uKkyL+nne9mmowcc2inNNz/JzMIAAAAAChJjCA6TlIdHC8sss8yyh+WRvQwAAAAAhY6AIAAAAAAAAFBE6DIMAAAAAAAAFBECggAAAAAAAEARISAIAAAAAAAAFJF+A4KRyGS585mdsvuX1uuZp2T1nMnubwAAAAAAAACMRMFbCI6LSlXjOlk9J+KuAAAAAAAAADDS9BsQjMf3y9qbKqX8O5WyoH2nva7qyln2TwAAAAAAAAAjT+AWgvvXtkn7IXcBAAAAAAAAwIjEpCIAAAAAAABAESEgCAAAAAAAABQR84Bg9QK5k9mGAQAAAAAAgBEpUlZWFnffDygy5Q5peWieVI1zlmPtdXLTY/udBQAAAAAAAAAFz7CF4EH3JwAAAAAAAICRyKiF4LWrd0pjdUzaa2+VtfsC/xkAAAAAAACAAhG4hWAkMlku1K7COzYSDAQAAAAAAABGKGYZBgAAAAAAAIoIAUEAAAAAAACgiBAQBAAAAAAAAIqIQUDwQhmvYwgCAAAAAAAAGLECBQR1QpHZdy6QKncZAAAAAAAAwMjUb0BQA4F3PrNTdu1eJ421UWtNTNp//KLzSwAAAAAAAAAjTvAuw4di0t7cJGv3xd0VAAAAAAAAAEaaSFlZGRE+AAAAAAAAoEgwyzAAAAAAAABQRAgIAgAAAAAAAEWEgCAAAAAAAABQRAgIAgAAAAAAAEWEgCAAAAAAAABQRAgIAgAAAAAAAEWEgCAAAAAAAABQRAgIAgAAAAAAAEWEgCAAAAAAAABQRAgIAgAAAAAAAEWEgCAAAAAAAABQRAgIAgAAAAAAAEWEgCAAAAAAAABQRAgIAgAAAAAAAEWEgCAAAAAAAABQRAgIAgAAAAAAAEWEgCAAAAAAAABQRAgIAgAAAAAAAEWEgCAAAAAAAABQRAgIAgAAAAAAAEWEgCAAAAAAAABQRAgIAgAAAAAAAEWEgCAAAAAAAABQRAgIAgAAAAAAAEWEgCAAAAAAAABQRAgIAgAAAAAAAEVk1AYEoxP+JG1VH8vfX/yluwbF7Ni3H5D3vv+4fPDdcndNYRtp+QUAAAAAACNHpKysLO6+HzIarGs8/5js3X+WrP19/x8fiXwpi6f/WS51l20fnSb1vz7BXegrEvlK/tu3PpFrTtalr0nba6fK6/Eh380B5bJvxS4SKZePFi2Qz9xlFYltlPN/sdtd6isSOV/+dP1/lyNnWO/lX+Ws9f9TxhZgffAUUn6nzFklDy2qlOg4a+FQhyy4+UnZV8BlBwAAAAAABjYqWwjG48fL7o/H2O/f/+jEggwGFgsNbv35hsft1m6Hb7hejkUi7m+GTjx+WMbGfm+/PyH2ZkEHA1Wh5DcyZ5VsbHSDgQAAAAAAYNSI3P7De+LdXf8s//Ef/+GuCp9JC0G/RIu6UdiKbrTuW+Ss6+X9/3qVnBD7V/k8eq6c/r8flNM+yk+Ay2st+PkALQSRm2tX75TGapGu9jq557H97loAAAAAADDSHfftimqZ/zf/jxx3HPOLIP++HH+JfCn/KmP/+U05Wb4hn48vdX+DEeFQh/x47W/cBQAAAAAAMBpEHv/HDfETTz1bdu14Rfbs/Gd3tcNpySfywpuny+5zPpW/Pf8vcp7+4vOvyQv7T5VnPk229MrW6i/yjc/kHyf/Rd4/fLr83cHj7XUm6foN1Ioup/EGT/1S/lv0qFxz1jF3zRjZe/gUWevmNVem6QZpIeileZmVpl1elvetMnveKrPX08pMx1G8YvwXcq1Xtpb3PzpZno+NHdS2Jryx8D7500a54J9/57yXV+S8n2+WMb5usDqBxvuXiN16cOz4/1s+uuS/yL9b6yNH/lVO3/E/s7YoHKiFYE7jDZ5VLn+6dJYciX7DWZbfy8lvr5Mz/+Wwvezxtvvc2k7zqk608vufrPyOzZDfIOma5lfL9/O/rpM/DZCHZPmukzHjr5U/BSxfu4XgOMYNBAAAAABgtDnutK+fKSeeEJH/69uV7qq+Lpv8kTT6gkVy8l/kmss+kZtOHdx4cJdN/iSUdIOKnPqFPHTZn31BO3VMLj3/s0HlIYx07YlSJjtpJsrLcp5VZvWXfSrT0sbmu+KvPpF6f9lazjvrc6mPeqGjJJNtjZw5VT4/Q+SEI79Ljot3xiVy9Ez392k+r14rvW6wSsXP+C/yyX+9X/581hDVB7t784JE0E7FtVXjJXUpebADndXOdv4S+ncrvx/91/9bjqYdi6DpmvCCrR9mzEPfMrM/r9ravk/59s0vAAAAAAAY3Y578cVuOeX00+WEk05zV6U7JuedrC3GTpPm186S2147XdoO64Qdx+Syc/wBL1Oa7rG8phuPnyBru86Ueut122unyV53fSZOgO1zOwjm5cH5O81H7q0Dw0rXdlRbUJ5up5dI8yP9xV/k2+fYW9i0teG3z7LefHRy4vP11bz/ZNl71NnGY7KtKae78O/l5Hd77OUT3n1bTsjSbVgDVv9+hsiJsY1Ssv5Oia7/H3L22793Alk5djOOx3fLmT9ZLBdYr+j6jXKKuz4TJ8h3lR0s8/Lg/N3/kLPe/sDZyO9P/ypn7Pgf9jbedmfHdD/+ixy90N3GYpKuSX6//FadMwvxkVfk7P+dTPPsmFNmn1z6HXfLpD7lmyG/nsiUO+Svq90FAAAAAAAwqhx37ZwZ8vmfP5fPP/3EXdWX3d331ydILB4XncH3jXfH2sG28878UqKDaF0UVrqBnPKlXHay9fOj0xJ5UJqP1w+ekrXb8oBCSlf//plfW3//+2RQ0S6zD7/mLmVw1r9LuS+4Gvv9SbL2YJbu0ybbBqCBsKPaIu7I2zL2Y3flx3vk5CMiX0anZpxt+MS3/4ec+4vddndibVF48q9etINi2bbPK7c1o3bR9fKg7JaN//IPKd1qdd1pv7DWHUh297Xz++6/uks+BukG5ZVtRP5Vzvr55kT3YDsP/7xOzrDKWKKX9W2p6MuDP79fnpEMuE754VOy+5c7ZVf7PKk6tFPa76O7MAAAAAAAo81xn/7piHx+9C+yb+8b7qq+3v9MW+75HSe9n7tvByGsdAM5+Su7Fd/eD090lvMlrHQtOobgnd/+k7RVfZx46fiM6bSl5OP7vybvyzG5ZvIn1nZ/kjsnfCHTMnRXNtnWiNddOLYnJQg25k/Wmyzdhk844rQkTPqdtc59G7YzzrVb8Z387i+d5QHomIAf3/CAvPf9xxOvWPV/cX/rY5huMN+UL62yldibMjYtWJcoYzlXjqWVcX7zAAAAAAAARqrjIpGT5E8ffyR7u/8/d1VxuOCUr9x3+RVWut64hJeeHKw7dfz3p8h9r53udP39XMcv/FzqL/tI/v7iL90tkky2DUq7C2sg7N8v+e8pQbMPo9bnDaIbcFi+PONc993AvDEBPzsjOSZgNibpFoJ9j90i5d+plAXNHRIbVym1fzPL/Q0AAAAAABgtjvuX7u3yT22Pyn/8x3+4qwLwusUePT7RJTabK842CJAZpDtY733mdL0975TBjIPYV1jpXhF1xyU8nByXUF+37c/eZVi7FNtdf//FGW/whc91spCjGSc2Mdl2IInuwv0I1A3YbWUof/pdopVhWE444ozn5+8+m83nl7pjAr6dHBPQHsNvR98uwybpGsvULdgq+2P/Sd99IGO8rto52LflCfnJDuvNuAkyJezu2gAAAAAAYEgdt6vrlQDBwGRwS7utLnYnzfB3i/UCYZeefdQe/08n15h28Z+kPmWm3XSp6XqTcYTR3baPP5zojFd4/ify9xOSYxba+Z4wiFmGw0rX9f5nxyWCpdFvfCGLL+jbZVhbE955sXb7TQZjNeC3+2Nn0pYSDbq6TLYNzDdunhcs8790MovM3YaTQTPtkvuROxnHkHR1/e2b9niF2qLxg2+XJ4KVdnDz23+bcTZgnT3ZC1Qem3i9fHRJhi7DOaQ7EJ18ZKw7IchHf/2dlDQ//2tnspFM3YkBAAAAAABUpKysLGvUIDrhT9J4fpaA3kenSf2vk5NO6Gy1i6f/WS51lxM+HyOiswnrBCIHnaChUbrf+CzjOHkef7om26rs24+RF948PecJQIKma5LffsvMsnf/WbL29266dvdiJ7ja19ek7bVT5XU3WGSybVCRiX9rj6d3yo475cwDff/22LcfkN5LvuFMIvIvhxPLmWhQ8fxf7HaXkmln46WpTLZV2baPyO/l9P/9YGICkP7yq9L3O2i6RvsWKZePFi2Qz+ylVJEjOtnI/0wEBL38ZstXejl4rl29UxrHdciCm5lYBAAAAACA0eQ492dwn4+Rvdpt9d9SW/HZk1O8qWPQuSvE3e5XzszBfu/9Yay88NEYed8/gYid7ukpwcCw6dh5zrh5/slNNB+DmGXYEka6sYP/SZoP6+QfHqv8PrLK1/qc5DpH/NOT5B90opCUCVrc7dMCfCbbBvX5+P9iz4A79rfuijQnvPu2aO358oxvOisyiBz5vZzy9kY575+HbiKM+IF/kJIdr8gp1md7NGh38tvrUmYDHvMvK6Tk7X+190HpNifGNtp/m6lta9B0TWgrwbP+90Y5I5aapubjPF8wEAAAAAAAIF2gFoL+1mdAvmVrwYbhZbcQrN4pzeXL5XkCjAAAAAAAjBrmLQQBFJFK+f6ds5hYBAAAAACAUYSAIICMtv64Q3T+l2jtfbJx92uy+5k7CAwCAAAAADAKEBAEkFF83xNyX3OHxA65KwAAAAAAwKjQ7xiCAAAAAAAAAEYXAoIAAAAAAPRj9y93uu+CKf9OpfsOAAoTAUEAAAAAAPqhAcGgQT6TbQFguDCGIAAAAAAAAFBECAgWiOiEP0lb1cfy9xd/6a5BUJHINbL6mVVybZ5mwJ1Q3ymdL3XLmubZ7hqMBBw3AACA8I2Ue658PyMAwGhDQDAAL1h35zcG/jKJRL6UO61tdfvEa4AgXyTylZSfecx+f95Z/y7T+NIKLBKZLIt/dp9UjbMWJjvrBkPTm1YZtd+XVFwpMzIci0hktiyzboL0RijxynJDZLItHN5N5rKZwc8DjhuGQ2TmI3bdMKmrxY4yCxfla44yC1fkG58FvocerLDv1+EIcs+VTVjnW9Z09dlgXKU07l4ZWlBwypxV8swzO+0uwrufuUOm8BwHYAQhIFgA4vHjZffHY+z37390orweZ1jHoGa3rJPacTFpr10uz+9LLTcvsJT66pQ1zYtlxqTMX9bx+H55fWfMft/b/apsL/Bjofu45qVHjG7GRiOO28ihDxLz1jnnY/qNu3dD30mdxhCiTmKwtA7NaNbrulOP9LVmnVVnJuXhfyqBIWByXzKS7rni+16QJbUdEpNKaWyZ5a7Nn8icVbKxsVKi2jABAEag46bNuEqOO464YL7E4yfI2q4zpd563fbaabLXXT+Q2MH/ZP/N3/36BHcNBqJfwo3VVtm1N8natGBgdlEpqZgvDa2rst70HGyrkZrvVchdjVvdNani8a2yyvq9bjN31grZ467PxGTbXESj1v6474sdx22kmCilpc67qdOvcd64qqdXue+AoUSdRO60RfnSFzdIQ0Xqdb2ktMq617iNQHKByvV+fbQyvS8Z6J6rkMT3PSH3tcesC/p9snpOfs/H2Vc6k4Z0tdfZE4iU3/SE7KNhB4AR5LhvV1TL/L/5fwgKYkTR/41fvMj6Ej7UIfet/Y27NrM9LVfYNy1OcGehbO7WtVVy+VX2rwEMgz3dXSK+rkb6UH15Rcxa77Q6AIYadRK5qG56QKZaP3u7V8jyWb77jYYV1v3GIWcjAMNq/9qNYl3hpWrR7fnv0ms9i/x4gGcRAChUkcf/cUP8xFPPll07XpE9O//ZXT0y6dghjeeLvPDm6bL7nE/lb8//i5ynv/j8a/LC/lPlmU+T/2PjbHtM9u4/S9b+Prlexzr5x8l/kfcPny5/d/B4e51Jun46Psni6X+WSz86TeoztPxL/N5dtmXZ1hM59Uv5b9Gjcs1ZzpiDImNk7+FTZK2b11xocK267ja5saYq8b+Dvd2b5Nn2Vtn+jrNvM5q7paGiS1pnLcvYNcD5H3Lrpti6Ia5x/7cwMmm23Fq7SMp9/2ve29Mlzz5speGmq7Sbwsoakc0Nc+X1Gavkbi8f1rabrW07fNt6tHXgrsZKibXXyU2P7XfXpnLSjdoBwVXbkmloF7Cnl1SlrE/k315y+fYlm0z7nU2Qbfsei5h1LNbLo00vyEG33L3896e3c6Hc1ZYslyDpKi+Ppdbf371O5NamB+U66/gprROPNrWmbh/wGJswqQ8cN0chHLegvLxKywqRJfrTOQ/t8rnlkLTurJaGGuun71pjl4O1TzcGvpbcL4dn+Moty7UkaPmqxLaV1rZuazJPn2tMnss3MmmxPNo6X3qsz9k1/Wm7JZL0bJLl9dtkmnusNRjhb6lR7GVmgjqZmm4Q1Mnkds79Ucz+zkrPm1+h3UeFQcfEvmL8F3LtmdZ98snuSlef+23d9q8+k2ut+1n7ntryvnVf/bx1X/16gd2vq8S+eWla99/vfzRW/uHfTpRYhuNpwjvO3ve21uE9nffLKt/9gDKvD/2fQ6b3JYk6ai+5gtwb5fkaZZKu35QfPiUba6PS1Txd7tmSeZuB6DiB2hLQc+3qndI4rkMW3Pxkn5aB6dsCQCE67rSvnyknnhCR/+vbo+eCddnkj6wbAu8L23LyX+Sayz6Rm06NuCtyc9nkT0JJN6jIqV/IQ5f92RcMVMfk0vM/G1Qeqps2WA877s2Cy+5WW5vsOhWLaQuJcXL+RGe5j4kXin4n98YO2Iv6ZX3rvQ/YNzcp6dpdaDJ31y2/9w3rBsaXD2vb61qflnkZxvtzmujHZPvLZv8jZ99w3KI3P12y6xVnXSHpeyys8qt4QFa2NciEQfyPpnG60ZnWTd8G382pUydWNiXrRC7H2ET5vU8Hrg/DjeNmwL1WWI9ssqs72UVTu2b27twmO2LaoiZ5rbHz22aVQ8b8ZqoPUavupJWbXXf67lvQ8rUfPrxt0x4+0oVZvqW3uIEXe6FabnYDL6qkYlGiLCgzQ9RJd4056qQnKtdZ90wZr8uuQruPyjcnwPeJ1Ot9clowMJ1u+9++ZW3rCwaq86z76voCvV9P7Ju7rPff5531Z2n81lGJ9nPcB+IE153jnBSVqTUPphy3XOpk0HMoDGGdbybpptv/cpf15CBSdWX+xxIEgJHquBdf7JZTTj9dTjjpNHfVSGd9QVs3Iu9/dJo0v3aW3Pba6dJ2WCfsOCaXneMPpJnSdI/lNV2T8Uvsm6fJn9s3Il4enL/TfAymdaB2ibLedG9K6eqyvGWT7PH1knrXfiCKSukEZ1n/V1En6EjcrEwYZ3+J98R8Abr3umRzy8Jk95lZC6U1a3dd6ybA+mL3utzY23ZqBqwbmhkXOZu49GbgQh2891CXbMvcODDF1CVvJAb5flpvumSTtDak/g992GPGBaFl2mAfi2S3I6fMrHIonS83u2UW37Y0UaZOeWqLg+Sx01dKK7OA6fppEGmqddvkHT/t+mSXSfpsckbH2ITWB6eFSX/1geOWaviPm5kdr3WJXHCh9RDtdM3cvb1vgH983YNynd709+h5m1YOVn3Qh/B0fa4lGfbNqHyvus3Z1pcHfS1v0Q5IGYRUvvY50blQ5tqfaz0wWg9P2hpiuXtueNdnyix31Ekz1EmrzjRZ19ke640GIV98WpbVz84YGCyk+6hQnPOF1J9l/fz8ZGl707lH1Vfz/q85v/e5YPxnco0GDX3b2vezHzn31ddE/93eLjf5v1/X1oj2vqXff2t+T/5crjvH2c6UEwibbx9377gljnNnhu7mhufxQOeQ6X2J0T1XWNco03T99v9Cttv/vzMhL92GI1PukL+udhcAYIQ67to5M+TzP38un3/6ibtq5LO7D/z6BLsJv87g+8a7Y+1g23lnfjmo/8ULK91ATvlSLtObJ+tmxMuD0ny8fvCUrN0gAquolmlXJW8YD257XFa1+boAHDwkvdaP0qizzXh7Oq30m8yY9Bx03ukMZB2NS6XDF7HTdfbDVhZ2t4TGrXYXH3vbdevtm42SyplpN9cXyng7IHgwt4F7rYeEhnuztLAaRs7g9dbNmK+bk10OTU45pA92H1Ru6epN4dzE8Yu/s9VuOeOXyzE2Ebw+DC+O2yC88qrsKbWuPXVXytSeHfK60zAmQR+WplVqqwlrv+qTQxg45XC/bLYfwtOCncp6AEqpO+6+edcvFbR87Qc2t1WxPw/qXfenX6jlaz0APbrOFyywln/2ihdocFBmg0SdNEOdtNZvlUfqNYDTZd0nacsuDQy+IWuaF8sMf8u8grqPyi/7P60v+Iv17mvS9quxKV1+33N/enTb8jM1MJe6rX1f/W+nyAufWwtn/btMG0R+832/fsXZ7r75ugc7+XXSvfTsHAOYE2dKuQbKfXVd6bHb3mYde189zaU+BDmHwhDW+WaabjpN87d2QHC8ZGuoG4R2PdbuwLva50nVoZ3Sfl/f7sIAMFIc9+mfjsjnR/8i+/a+4a4a+d7/TP8n0O846dUbjEEKK91ATv7Kbh2498MTneU8sW9kW5yb2OuWbLD/t3pZfdpNrDrwW9F7duXd3O/p7krcZDo3tofksO/hSbvnLlvXmWidZ7fQ62eskpT/FbcdkB7vQwdBWysk/sexQScVcVoO3F0X7g2RCS3T8y/Qd1XSYD1IpJSZN16L3WrF7EY253S7X+0zxtH2Ri3DpSnrTY+xibDqQz5x3AZHrz+7uq1rT43TNfNgIo9eKxp39tcM+6U39oftJ82+XfD2vPaC+y6znMq355Dd1SiIsMo3tYz6Ljsos8GgTpqhTjp0PzSAc5e2VNKW2dZ3lT30ir+77gi+jwrs8+PlsPs2u/+QEvs/uE+U1/vUh+Pld0f13VfyzVPsVTnJ5/26BjC/OVbf/UXqp38kbVUfJ17/6I0DPvar3BoGuK1CB6rrHtP6EDTd0IR1jTJIFwDQv+MikZPkTx9/JHu7/z93FQrRBad85b7LP+0ycPeshWJ3E+7R/93Wm1j93+3Z7hbKuaksieodu97cd8mu9kPSqy0prFXRaDTlC9obE2VqqbYKKBzxd/bLT92WA4XW0mykKdRjjP4N+3GzH4CSrWCcFgCZu2YWBjeYERDnhRphZUadLAJDV2YH39kqq+oqEt2mk92hR8d9VGZukA9GnCBwMCOrPoR1vpmlG5Z9j91iTxayoLlDYuMqpfZvGJMQwMh13L90b5d/antU/uM//sNdNQp53W2PHp9o6p/NFWcbBN4M0h2s9z5zxgk875TBjIOYnf7vtt1N2LqJ1XE7tAuPf0DwxP/iX3ChjL9Ku1JZN60HtsnuHl93l/d+m2gZUF3rjonSmRwTxW6hF2SMD4/XlcKXruO38m4exwApBIny7UkdyzHlVfd4hpYXKvsg5YNLt395OcYmstaH4cNxGzxnDKOa/mfBzNCdMNk6KLVFTRBm5eu2sCkdZz3ap3K6K6YqmPKlzHJGnQxJkZXZu253Xa+VYiK/BXEflW9uC7yTv5LznRUJTnfbDDJ0C062xjtefveZvSqrobpfT7Ra/PzkxPiBfV7/clJOzwFe1/ogXXiH5jzOfl9iJqzzzSzddHq9ccYgf9dKafD2bXlCfrLDejOKnkcAFJ/jdnW9MgqDgcmgWeTUL2WxOxmHv7utF2C79GxndjC9CZl28Z/sGc+yS03Xm+Qj3914M/rDic74J+d/In8/ITkGip3vCbnPMqz/K7fMHudmsrvGucl+fafzP9ve4NfKniHP+hKeZn3pOt2CnO1KKm+Ty+0b+r56YgcSN6ETZi6WpfbYH9kkb4i068BSd6Dl9C4Pmj9nDJAqmZnMdiB6M1DdtMjuSpS5a9Pwccp3vtzddI1MSO+ynYUza6E+TGSf3TCXdE2YHWMTqfXBG3h72LvApCmW43ZV4zPywgu/lB83znHXhM/pvqnvqqRByyFx3dPz2J2kIEM3xCCClm/iId7Kw43uMANaH+et63YGNs8ivPOif8VUZtRJ6uRwl5lOzLZs3SMyz7oZ8V/LI9Y9lXev4Q/GOfkd/vsoT77OoWRX37/IteOde2W9T77p2x87k3H46IR6//KRvvuL1P/Vv6fcz17xV+5kI77uxIVwv374qDN5yN9qfgc5A3IKHbPU+lFSs0HW+Caj0XNjRr1VrzLU6bDOY7tuDnBfElRY51uu6SZM/q7MsAOCOY5BDgCjUKSsrGzUXBGjE/4kjednuUH46DSp//UJ7oJ+2X4pi72xP/w+1y/9Y86AxAedmxCjdL/xmfzj5Cz/G2rxp2uyrcq+/Rh54c3Tc5pYxGmm79ww9tUlrbOSs/FOqO+UlTX6f3Ix2dww1249obPkeWN82INZu7ORJbfNTMf1W7UtPd0MuldITaNvchNXZM4q2dVYKbH2OrnpseQgxH79ptujAxIn982/H5n49y20ba0bwFvbNjgPRxn4y8yTLf1c09WHm6U69lKWcvczOcYmTOoDx21ojlskMkce2Noozv32IfnZnTfLuv5aT/XD+XxJXEPSedckccsisW/u71OkncfevqXvg1feOZdvlutkb3eXSEWV9Pi2DeO86FMmafvjLXtpF0OZUSepk/a6YS6zfvfLZu1bg7Vvbr1KplsA91F5PIdU5NQv5KHLnMCb3/sffU3krL/I+/vPkrW/d49Ftntw9blONnJqIiBYEPfrka/kv33rEydYmcFe376Z8h//VMk6onKpD0HOIU+2fKScb1nz6kjZNqRrlEm66XQykI21Uelqni73bMm8zUB0MhHtLuy5dvVOaRzXIQtu7juxSPq2AFCIjnN/jl7WDcPew6dJ87+l/q+g/g/l42+eLHsTgwy72/3KmTHM770/jJUXPhoj7/sHJLbTPT3l5iJs8d+fIs37Nc/+wZI1H7nPMhx/53F5tKVLerUJfkLM+mLVZvvJG3SVnDXQ17XH/d9N5R/M+mBbjSy3Z9zzuGm2bPKt60dPTPZo14GmLK3Bnm+Tdis70dp6udbkfzK9dH0PH4VC/+fzpzpTYbdVVu66gWjXtuV9jl+qXNINYtDHOIt3t6+3J35J2Sf7uC0cMNg1HIrhuMXjW2TFau0XM/S0ddEjDSucyYAS3DwP4jw2KV+9Tt6t5eMdL62PLQvlbr0IpQnrvDBRDGVGnaROquEuM/9+pXy+lba9vS8YqArpPirf51D805PkPuseNXGvrPfJ+0+X+2LJ/9j2OPfgp9n31knWffZHeh+eDAaqQrhf1xaQ/+tXp0ubpu2uyxfnfkDH8E49N/Z03p/yHxRhn8dB7ktMhHWNMknXT//zYGZ11Dr1OuTHz7srAQCjs4XgYP6nDkMv2/9kDiRIK0EA+THpqtWy/J5qOV92yOrZS+SVHB/ggXyhTgKOXO+jOIdQLPLROlBlbCFYvVOay5fL82nnDy0EAYwEo7+FIEat+JZl0rxDWwk2yZ1TBjfeCYDMrmr8pT3G1Fr7oVGkezUPjRhe1ElgcDiHUEwiU+6Qh2qjIjseGlQwMLtK+f6ds5hYBMCIREAQsvetG9x3jqFefu6HT7nvHCZ/v3XJQ3LiiZ1S275SrnWDgiZ/r1hm2Y/l1OWWGx+2fx4+vENW31kuN6y+3l725PvzWGbZr79lrZMl33xYml9JPuDlM33FMst+hb58a4vZ9VnPH72ue+eQ6eexzLJfIS5HplwjLe3zJHqoQ0686iT3N4707XOx9ccdop29o7X3ycbdr8nuZ+4gMAhgRCEgWOT0y/DSsucSX4rDsXzDY7fIReetTCyb/P2be0+Syy79Qk488Q2R/eZ/zzLLLA+8rA+Nf/M390jL/7o+L+mxzPJgljVIfc0135HvlL+Wl/RYZnk0LOt91E+X/DzQ9q80f8e+ruuyXtfTf88yy6Nl+c2nTxI5tFNO/M+9/W6fq/i+J+S+5g5JDA8KACPMqBpDEGa8L0MPyyyzzLKHZZZZZtnDMssss+wZ7cv90XEBTTCGIIBCR0AQAAAAAAAAKCJ0GQYAAAAAAACKCAFBAAAAAAAAoIgQEByBJtR3SudL3bKmeba7ZmCRyDWy+plVcm2RznyVS5kNp5GW39GMYwEMTljn0Gg8N4v9uxoAAABDh4DgCBOJTJZplVH7fUnFlTIjwEOD/s3in90nVeOshcnOumKSS5kNp5GW39FsMMciMvMRO1ixbGZ+j99IS3c0K/Yym2Dt/5p13XYZeK/0sgjrejZqr5P6HT2uUhp3rzQKCk6Zs0qeeWanPeD97mfukCl8bwAAAGAABARHmHh8v7y+M2a/7+1+VbbHB54TZnbLOqkdF5P22uXy/L7im0MmlzLLN23JsualRwI9tBZCfkczjgUweHoerVxSJSWl7ooswjqHRtp1Paj4vhdkSW2HxKRSGltmuWv7F5mzSjY2VkpU/9MPAAAACIiA4Ah0sK1Gar5XIXc1bnXXZKcPCo3VIrH2JllbhMFAj0mZhSEajUqJ+z6I4c7vaMaxAAYn2TovJptbFtrnh/data3v90xY59BIu64HFd/3hNzXHhOpvk9Wzxk42Dj7ykr7Z1d7nZR/p1LKb3pC9vGfFwAAABgAAcFRTB/aFi+yHhQOdch9a3/jrgUAYDAmSqm2DOxeLx3b9jurkFf7126ULutn1aLbg3X/tb7nf8z3PAAAAAxEysrK+G/kYaRBu+q62+TGmqpES4Pe7k3ybHurbH8neWgikdmy9MUHZKq7bOteITX9tIzQ1oG7Gisl1l4nNz2W+aHN7vZVE5U9LVektOzQsbGeXlIlvZ0L5a625N8Gza9xupNmy621i6S8ItniorenS559eFnGcii1/v7udSK3Nj0o11l/ozQfjza1ykG3ZYRpmdn7ZqV34wB5CMrb1/74yyGn/KYci5hVBuutMnghUQbKORYimxvul8MzfNtb+7bZ2reOtH0Lmm4uvOPsHTNNe0/n/bLKVxdU0PoQdN+G7FhUWp+f1oWyzzkQcN+USbomjPKb5/oQmbRYHm2dLz3W5+ya/rQ0aF3o2STL67fJNPd87rXK2t/qy85DgHMzzLpuVGa5HONEHqxtM1xTTQVN1/RarRLnR7/nhNk5pIJcH4b7Oml6LVEm9cxvyg+fko21Uelqni73bMm+3bWrd0rjuA5ZcPOTtAwEAABAYLQQHGbVTRukwffApkoq5ktD7TXuUu6cbkQx2f5y/loNhJFffVi69d4H7IfAlHRLq6ShdVXm8ZmiM62Hwg2+B0cnHyubcsuHnYc2a98y5uFpmTcpQx6GWd9jYeW94gFZ2dYgE/qUWVTK703b3tq36zKUr1m6wTmBIOc4J0Vlas2DKeVrXh+C71sY7Id9r8zSAkXpTPbNJF0TpumGVR9Kb3GDgfZCtdzsC+6XVCxK1Am7zIzOzfzX9bCOseqbB93/wX8H5DtdPX/XuBOHPO0F5Kyy8k8o0rlucc51Iuj1wZRZ/Q3nWmKWh6T9L3dZ3+AiVVcGG0sQAAAAMEFAcBhpS4fLK6w33Ztk+awrEmMwLW/ZJHucsdIT4vGtssr9/dxZK2SPuz4bfSi9UAcYP9Ql+erRZZJfY+91pYxFNXfWQmnt1l9UyeVX2Vuk0Afbqdajkvc3cxvcMvHNNmlSZuPrHpTr9EG/Z5O0Njj75uRBdywq1+XwEB3ftjSxP86+dEmrr9z05W9FYpJfbaXSYB+LFYljkchv6Xy5OVOZWfunLa90+2zlm0u6QThBkvn2A7GXh0TanYecjfxM68MA+xbmsZCrbnPKzFd39LW8RTv8ZRB030zTDcog3bDqgyopjdotqebanxuVqRVOK7Xlnc45VzrB3iynczPvdT2kYxzWNTXUa3VARtczg+vDcF8nTa8lgzqH9v9Ctuvuj5uQtdtwZMod8tfV7gIAAABggIBgIaiolmlXXeQuiBzc9risasverSqYC2W8HRA8mP8uRHnOr84W2dG4NGUsKl2347X+Ah/6EDY38Tfxd7bKLvvhzJw+jDoD5Ftp1ie709l5aLpfNvdYC75AYyGonq5d1qz8+rqcOfldbz8gT52eIYBpPZBqN0zd3l++pdHkscwp3SAmzpRyDer48qA07e1t1rH3dWHUdcb1IcC+hcEOZNzilpmv7qh33Z9+QffNNN2gTNMNrT6onk3y6Dpf62Vr+WevWPmIJQNAOZ+beazrYR3jFKF8B1jymG78ncflLjfglQjEWeXsD4TV1D2eKEsjBtcHE2FdJ00M5hzS7X5rBwTHy0RnVYJ2J979y52yq32eVB3aKe330V0YAAAAZggIDiNt6fBIS5f0aiuXJRuk86VOWVa/WGYUYPdUFWZ+deyoZes6U7qf9TtOU/ersj3t4Wd7oz6ULu2zfmDeAPl909QHssPv6btxcn76E9kw0QDF+RfouyppePGN1DLzuvJdcGGfrmh7XnvBfZdZrukGMmGc3fpnoDx4TOtD0HRD03PI7toXhNG+GaRrJEC6odYHS+/ObSnBo/RlR27nZih1PYRjHNY1daR9t5heH4II6zppIuxzCAAAABgMAoLDTLsf3T1rodOVq0fHS5ovDa1vyJrm2e4WhSWM/HpjR00t9Y8dhdFkfFSbqwYzsuqDG7AKKPi+maUbXFjpjmZhHWNHWN8BI+m7xeT6AMe+x26R8u9UyoLmDomNq5Tav2GcQQAAAJghIFgAtKWL3ZWrzhlbSLvB+QfVz81v5d0Bxh7qT/X07A9og8lvpnSra92xozqTYyzZ3dKyjc8VlgxdD5MtPA7J4QP2qkHITyvDRMuontTxwVJeOXTdCytd5XUDDdLtbmjqQ75afB6QHu22WjpO0sM/TlfBVMH3zSzd4IKnG2Z9MJbnc9Ns38I6xkmDuab2ZzDp9vcdkG8m14eghq7+Zr+WDDYPWsedsYDftWphZvu2PCE/2WG9yfG7HgAAAMWLgOAw0pYky5q1G9dkd43zAPH6Tu2YlhxUPxeajjP2UJXMTCbfh/cgNnW6M9uhPoDMaO6UxOyfPib5NUnX0xM7kHgwmjBzsSy1x+0Kn3avc8YfrJKGpmsS3bc0z9U682mWLosmYjGnjMpnJNMfDDu90vlyt+Y3j90Aw0pXXnnVHi+rpGaDrKmfnVLGM+ofyRigCKs+5PNYJB74rbpzY50TzNDuovPWdTsTCWQx0L7lmu5ATNMNrT4EFOa5GXTfwjrGKqzvgLCv1XmXw/UhiLDrb5BryaDyMPm7MsMOCIYwFjAAAACKXqSsrIy7zGHidC1zWpP01SWts5YlHnR1psL+xlDT2Tr9MxuqyJxVsquxUmLtdXLTY6m/8+hslEu9sYz8evQhxpkF1EvXKL8G6U6o75SVNdkfPnXm0VXb0tLVwewb+x8c36TMsuZX9ehkAsl9y0W2vKTkwSi/k+XWtg1OQCQDf5l55etfp7zPyzVdU9n3LyabG+YmJg4wqQ8m++bJ+7HIcl70dneJVFRJT4b8ZuPfD5N0TZikG0Z98D5f3DJMP1bespe2ybkZVl0f6mPsSL2mmjBJ1+Ra7QlyHTY5h1T27VOvDybphnWd9GTLS655SKcTh2ysjUpX83S5Z0vmbdS1q3dK47gOWXAzE4sAAAAgOFoIDiOdtfFRHfhdu6MlxKyHTO1qNrgAlO35Nmk/JBKtrZdrs7ResAefb9AxptwV1ufv0a5u9c4MiH4m+TVJ92BbjSzv1AHwPW6aLZt868Ll5HeFbO7WFh8eNx+DDAYqHc9reZ+yy5229vlp/UJptfKbzzIKK13llIHWidQy3tN5f8osomHXh7wfC+u8uFvz5qVn7d+eloVyt558aUz2zSRdEybphlkfggrr3DTZtzCPcRjfASbpmlyrwxT0+mAi7Pob5FqSax40kDizOipyqEN+/Ly7EgAAAMgjWgiOckFaCQIAgMIRtHWgslsIVu+U5vLl8vwg//MKAAAAxYMWgqNcfMsyad6hrQSb5M4p+R9DCQAA5E9kyh3yUG1UZMdDAwYDkyrl+3fOYmIRAAAABEZAsAhsXfKQdElUattXyrUZgoJ737rBfedguf9lU/n+/EJbDirfn8ty6rKJfH92+nIQ+f7M0b6M4qDHvaV9nkQPdciCJS8Gqhdbf9wh2tE6WnufbNz9mux+5g4CgwAAABgQAcEiEI+/IEvKH5IuHe4qrdewPlxcWvZc4iGD5YGXTQRJbyQvBzVQOiwPbtnEQGnlumwiaJosJ5cx+ulxvuzSL+S7J7ZI881Pyj/tvb7feuGJ73tC7mvuEHfCaAAAACAQxhAsYt7DhYdls+WB5PvzCm05qHx/Lsv9L/cn35+VvhxEvj+z2JYxOlEPAAAAMNQICAIAAAAAAABFhC7DAAAAAAAAQBEhIAgAAAAAAAAUEQKCCN2E+k7pfKlb1jTPdtcMLBK5RlY/s0quZaZEACgauXxfjCZ89wEAAGCoEBBEqCKRyTKtMmq/L6m4UmYEeMjRv1n8s/ukapy1MNlZ5/EeFpfN5GEpDJFJi2WNPozXpxV8SCIzHxmy4xmJzJZl1mfp5yVeRRp0GKyhPG4IVyGdF7l8X4w6eukdVymNu1caBQWnzFklzzyzU3b/0no9c4dMIaAIAACAARAQRKji8f3y+s6Y/b63+1XZHh94DpvZLeukdlxM2muXy/P7Rv6cN/qQO6O50w60eQ/ca9Y9IjMmZQ66adBzzUvW73mgwyhmel5g9Mvl+yKIkXRNje97QZbUdkhMKqWxZZa7tn+ROatkY2OlRPU/0QAAAICACAgidAfbaqTmexVyV+NWd012+mDTWC0Sa2+StaMiGDhblr64QRoqolLirlMlpVXS0HpbxgfUaDR1W+RHPL5VVln1UOvi3FkrZI+7HkMvl/MC4Si088Lk+yKokXZNje97Qu5rj4lU3yer5wx8Lsy+stL+2dVeJ+XfqZTym56QfXkKpgIAAGD0IiCIgmF3FV5kPdgc6pD71v7GXTuyVTc9IFOtn73dK2T5rCvsB137wbthhWzuPuRsBBQZzgugf/vXbpQu62fVotuDdf+1vjd/PEq+NwEAADA0ImVlZfw3MgLToF113W1yY01VosVFb/cmeba9Vba/k6xKTgsg56E/wXr4r+mn1Ye2DtzVWCmx9jq56bH97tpU2vVrZU1U9rRcIT+LrpK7vXz0dMnmh5dJhy8PKjJpttxau0jKfS2Req1tn7W29fKr4+Y92jpfSno2yfL6VjmY1rJiRnO3NFTEZHPD3D7pDyTo3+qYbE8vqXKXMuvtXCh3tSXLxT4WTQ/Kjf3sm59XFtdZ2ztisqfzflnlT9MtC0n7LGc/rDcawGl6oU8ZBZGoO5XWMSt1V7r0eK7alkyzbz2LWfVsvTya42enS9TPfupkkLpjwivbHmtfd01/2m4dJ3ad2ybTrOOox0UDZP6WUUGPsXNeiFXP7pfDM3zllu28MChfo+MWsMyCnhfOdl3SOsv6+wzHPdNxDJqHZJnNlddnDHwtMRG0fE2Pm4lczqEg54WJvnmwjkUevi+CpJvzNXWAMsvpPM7xWjLlh0/JxtqodDVPl3u2ZN/u2tU7pXFchyy4+UlaBgIAACAwWgjCSHXTBmnwPYSpkor50lB7jbuUO6fbU0y2vzxQK4eYlN7ytPUg7ctHaZVc17oqpauhPtzdeu8D9gNaSn7tbom+bQ9sk9091s/Sapk20Vnl0QfVy+1A2PpBPJxH5TqrfCbksRukvW9t2bpcPi3zJqV+lvMQ65RFUlSm1jzYZ9t0GrTwgoH6gH4whwdO+0HbqztpQaVM+tYzaz8rHpCVbQ15LcdsAtedHGjdtYMI9kK13OwGEVRJxaLE8TA9xlpG5femlVuG80IFLV+T42ZeZgOfF7GYjic3Ts5POy8TJl4omq3e2AF7MZfjVn7vGxmuJZnKNziz+hv8uJkY7nNI9c2D1vHBf18MXbrZy8zoPM7xWrL/5S7r206k6spgYwkCAAAAJggIIrBkcGxTSje/5S2bZI8zDnyC6bhU+tB0oQ6IfqhLtmVuHOhjPViVOq0wNB9zZy2U1m5dXyWXX2VvkPRel2xuWZjskphhWx3I/qdPaecs68F8xkXOSs9VV9qtVva89oKzbGhHk7XvGmzUh8oXn5Zl9bMzPozHty1N5NHJn7aKSpaxvvwtWcbXWQ+fGgnp2SStDc52zr7pgXACLR7ngXS+/TDq76Jpb9/Zf/dMr0Wm/t2gWgxddZsTVPTlV1/LW7TcU2nLnkRrRH9edd9K58vN6cc4LAHqTi7sutu5UOba+x6VqRVOi9flnc6xK51gb2Z0jD0atBvovDAqX4PjZgtYZkHPi3djWj+TZeLMbtyZDNZNGGfX656Y7z8RjI6bXkvSysw9Dn2uBQHlUn+DHDcThXAOhfV9ETRd02uqaZkFPY9tuV5L9v9CtuspMG5C1m7DkSl3yF9XuwsAAACAAQKCMFdRLdOuSj4sH9z2uKxqG2z3sgtlvB0QPBisy5P10KZdsg5a22pAb8drToCiNJrMl67vaFwqHb4Io3/bFK+8aj+EllTOTAlMVE+vsoMhP3vFXWFIH3Qfqbce/jq7pFcfGms0APKGrGleLDNybIGkAb5pldoSxXrArU92kbP3rel+2WwHWq5MtjyZOFPKNbDkKzOl229vs8onS8tHfzBwMAP82wHJW7TrXmp+1bvuTz+7zHVbXzc9Z9/W28do6vTBt0YdiFHdMWXVp0fX+QJYbv1ygl8O42PsCXBeBC1f0+NmUmaBz4uDh6zfJ/M/3p5GNT1YF5Oeg847kzx47G6j/jJb55RD+rUgqJzqb4DjZqIQzqGEUL4vLHlO17jMApzHStPI9Vqi2/3WDgiOl/RGstqdePcvd8qu9nlSdWintN9Hd2EAAACYISCIwOyH+BbnAf66JRvsljrL6nMPbA1G0BZ7OnbTsnWdVl67E69M40rpvv1MW3b4ug1rN9sbK0R6d25LPCDmQh/qNPB21/cqZHmD0zLK7t6Wc7fEiVJqB/he7TOumn7W4ff0na+bpduKyqiVY+WDdjDQC1TkRc8hu/tbfzQIdf4F+q5KGl58I/W4eWOMXXBhToEaU0Hrjqn0+pS5fhkeY9dAxzin8g1w3DwmZRbovDjwW9HYp/KCpHu6uxLBOidAeEgOOz2GbabHLaV1oe2A9HgfaijX+ptrC+RMCuUcCuv7Iox0cymzYOexI6xrCQAAADAYBARhRLth3T1rodM9q0db9ugDvLbsme1uUTi8cfOmlrrjPA3g3e077IdMr/XR+BnVUiJd8qy/FcggHXxnq6yqq0h0K8vU7TPfnKCJoZ3r3VZoi2TZzME9wCeCWyOIad0ZncyO22DKLPt54QTnSqIa+dT8dMmu9kPS6wbuo1Hrs3wBS45bYQnr+2I0fw8Fte+xW6T8O5WyoLlDYuMqpfZvGGcQAAAAZggIwpi27LG7Z1kP8DoWkgaO/IOo5+a38u4AYyWZqq51x83rTI4JZY/flG38M3dyEaf1kdtlM0MLrXx41+2WmL2lTj8TKXgydBlNtnRJtpryurCZdT88ID+t11Zb1sP2ksFNsJBocVU6TtIfiZ1uekmJ1m89qeODpbzqHh9Ui80gjOtOWAIe46DMyjf4cVP5KLP08yKRX2t5vI7nqcE/+zz1dRt+77eJ+pCX4+Z1sfelG1Qh1N9COYc8mp/8f1/kkm72a2qYZTaYOqnnujO27rvW2ZjZvi1PyE92WG/y+N0JAACA4kBAEIFpS4dl9hhfk901zoPU6zudVj0pg6gb0nScsZKqZGYy+bzoiR1IPMhNmLlYltrjovWlebAnF9EB5Os0KBCTze25d+XTwe+XrXtE5lk75A/6Razyq25a5HRDyxB0cGZW1YBH5hlYtcvcLndA+oam5Db68FitM12mdzX1xkes2SBrfJM36PYz6q38ZXmAtrvmaVBQW2wNYtbVxMO2ld8b65wgjnahm7eu2xnEP429/9YxuFv3bZBBg8EKWnfyzfgYGwhavqbHzTNQmZmeF05+x8m06VVut0znmlNSeZtcbgdG+zI7bslAue7fUncCnly78RZC/S2EPIT1fZFLunZ59HNNVWGXWU7XksnflRkmY+sCAAAABiJlZWXcZSIQp+uT87DcV5e0zlqWCFDojI39jZFkD+Tvm+FRReaskl2NlRJrr5ObHkv9nceb6EJnc1y1LVl1vc/zp+ttm016GkqDFUu9MaO0tUh9a+IhzlRKWhlZZdZglVnapB7Zys6/b/2m3WOlW588Fir78YjJ5oa5iYlFvGMs/s9KHPfUY2wiW93p7e4SqaiSHt+x0KDXrW0bnKBXBpmOWxAmdTKXujOQ9LJNr7Pespe2yTE2OS9MytfkuAUtM9PzIplusq76j2Wux63fbbtzn1XbpHxNjpsJo2PsK8tMcs5DlrrjSL2WmOTBJF1PtvRzOS9Mz2OTOplOJw7ZWBuVrubpcs+WzNuoa1fvlMZxHbLgZiYWAQAAQHC0EERg8Xcel0dbuqRXuxEmxOxZaJfnGChK8XybtB8SidbWy7VZWnGYONhWI8vtWUw9bl5bNvnWpUq2zLIeFvsZJD4Iu4VdwwrZ3G19rrvO1uPmI0MwUOn4WMv7lHMqf9pJbrppwUDlpKnjbaVuv6fz/qyzDHv0uN9td2+rkoa2VX1ntg3AScMqd2+frHzsaVkod+sBT2O31NQZaNPLbQjlUnfyzfQYB2VSvibHLWiZmZ4XyVlbfV2k3Vavyj8pyKCPm+6fdu1syr1lcCHU34LIQ0jfF7mkG+yaGk6Z5VonNUA5szpqVfsO+fHz7koAAAAgj2ghiIISpJVg2GY0a5fI3FvDASh82VrnAYUgaOtAZbcQrN4pzeXL5Xm+swAAABAQLQRRUOJblknzDm0l2CR3Thl8K0ET2iJjRnOnPT5ab+c/EgwEAAy5yJQ75KHaqMiOhwYMBiZVyvfvnMXEIgAAAAiMgCAKztYlD0mXRKW2faVcmyEouPetG9x3jnwsd77ULU+/uEEaKqJy0Xkr5dF1yW6I+Ujfj2WW/Vge3uVbW6533znynf5oWzaR788uhuXIlGukpX2eRA91yIlXneT+xpG+vWfrjzvEnjal9j7ZuPs12f3MHQQGAQAAMCACgig48fgLsqT8IenSocPSeg3rA9GlZc8lHozysXzZkml2EFDHdtKfN1z6c3lurxMkCPL3LLPM8shc1vP9p0t+Hnj7Yl82MVBaLGdefvPpk0QO7ZQT/3Nvv9v7xfc9Ifc1d0hiuE0AAAAgAMYQxIjhPRB5WGaZZZY9LA/tcn/y/Vks978MAAAA5IKAIAAAAAAAAFBE6DIMAAAAAAAAFBECggAAAAAAAEARISAIAEVqQn2nPcP2mubZ7pr8CCtdAAAAAEB+EBAEgCIUiUyWaZVR+31JxZUyIxKx3w9WWOkCAAAAAPKHgCBQYLR11ZqXHhkxgZSRll844vH98vrOmP2+t/tV2R7Pz/xSYaULAAAAAMgfAoJAgYlGo1Livh8JRlp+kXSwrUZqvlchdzVuddfkR1jpAgAAAADyg4AgAAAAAAAAUEQiZWVl9OfCqBOZtFgebZ0vPS1XyK7pT0tDRVSkZ5Msr98m05oelOus5d7uFYkWTNrtdWVNVPZY26/aljwlIjMfkaeXVElv50K5q22/u9YZJ6267ja5sabKbR0Xs9JbL482vSAH07pI9t1Wu1JukmfbW2X7O8623uf0x5+HSGS2LH3xASm11t29TuRWd5+Upv1oU2tKPiKTZsuttYuk3NomkYeeLnn24WWJPJgwza8yyUOQMvPkfd/culNi15fUclQzmrut+hSTzQ1zpSOH9JWXZ++Yaf3Z03m/rPKVl7LLwTq2N/azb6Z13as7U+0ll/X7miyt+YIei5zSHWDflHNuilXe98vhGb58WNtutrbN9RgAAAAAQDGjhSBGtdJb3ACJvVAtN/sCZyUVi2TepNzGvatu2iANvgCJSNRK7wFZ2dYgE9LG0uu7rX72fGmovcZdGoToTFn64gZfYMlJe2VTMm0NvNx67wP2Nil5KK2ShtZVQzL2n2kegpZZKPt2YJvs7rF+WvVl2kRnlUeDXpdXWG+61w8iGKgBPCfPSVGZWvNgSn20963NKoeM+/Z0n7o7dHU987EwYbpvWj7l96blw9r2uiGqvwAAAAAw2hAQxKhWUhq1W6rNbemylqIytcJpBbi8Uyc9iErpBHszI9o6rsEOCq2Q5bOusMdKmztrobR2W2mWzpebr3K2U8kA0qbEtvpa3rJJ9jjzLtji25YmftfarWu6pNW3vb78re08GpiZKjHZ3LLQ3mZuwwrZo79In931va7ENvZ2dn71F1VyuS+/QeWU34B5CFpmCfnet/h++elTTn0pn3GRs9Jz1ZV2C7g9r73gLBtyApjz7aCWttpLqT+dh5yNXOPrHpTrSq03PZuktcG3ndYzK2/XpQXkgtb1eHyrrEqUlVtfsjA5Fibpmu6bKrG298pssMcYAAAAAIodAUGMbj2b5NF1v3EXLNbyz14ReTeWGnwxUT1du8p2Sauve7AGkXY0rbeDIFOnZ2g5VVEt065KBpcObntcVrXlY8IFDcTNlY5tTvAt/s5W2WUHSpI0bx2NSxPbKDu/r2ngaGjklIcAZRbavr3yqn0sSypnprT4tI+9W4dyMnGmlGsgrNvpwuuvP9vbrP3wugFHJsu0Sm3dZx3f+mTXXHvfmu6XzdqCMT3oG0JdT8hj/c1p35SvzPzHuDSaFrQFAAAAAAyIgCBGtd6d21LGgEtfNqXBjPMv0HdV0vDiG9L5Unfi9bQ3ftoFFyaCSNpq6pGWLunVVk9LNljbdcqy+sUyI8fum310vyrb0/Zne6O20lqasl7HrFu2rjM1vwOMAZhvQfNgWmZh7Jvm4Wfass7XbVi7+t5YMcg6NGGc3Tpw4BaGE6XUDhz2Pb4aDDv8nr4bJ+f7ujTnu66rcOqv+b6pXFtlAgAAAAD6IiAIhEy71949a6HTzbJHx4qbLw2tb8ia5tnuFuHyxqybWuofs25omeYhaJmFuW/vbt9hB8K8bsPjZ1RLiXTJs/5WeIbGR8e570aO4a6/AAAAAID8IyAI9KN6emoAJ9GCqSd1TLWUV93jfVpm6d/Z3SzrnLHStFtk/xM99G0hlavqWnfMus7kmHX6csaay5f+85tLHoKUWaj75k4u4nQbdru5ZmjVZsLrvhu4m2uGrrPJVqqH5PABe1XozOtvAAWybwAAAABQjAgIAhYvUDN1ujNLsAYmZjR3Jmdt9YnFtCvpfLm76RqZMEBARFuwLWvWLpaT3TVOcOX1nakTPfjZ6dst06z008dRG4Se2IFEoHLCzMWy9Jb8dBk2yW+QPORSZmHsm36mPbmIThRTp2P/xWRz+yC7rXpjE9ZskDX1sxPlZde3+kcSATbtquuMBVklDVrPfNtV6+zBWbrc5lsux2IghbJvAAAAAFDMImVlZTx1YdRxupLOF+lcaM92qzMD67hyOgurf1lnYV21LS46m+pSbwxAv56YNudK/J3SwMWtbRucwEUGXprKy4e2YutLJwRZ1ifw4eUtXWoe3Px2r5Caxv4nd5hQ3ykra7J3qfXnNxdB8muSB5MyC33f/PVCW4XWtw56XL5s5SU6W3TDXN/EIlnqpOrRCTmccjCu61k/35FSzwyOhVG6AfdNecc4/Vim7ycAAAAAIDhaCAIWe/KEBh0jzV0hMdmj3VDrnZmD/eyWY/ULpbU7Jr3uumzi7zwuj+qkDIl0lfV33drFtW8wUOmYbcv7/E3uDrbVyPJOnRjC435+y6YB8x9EkPya5MGkzELft0RrNsnLJB3KKS+ta9rKzqP17f5EMFA5dXKFbLbqWZK7f76AWZhyqb9BFMK+AQAAAEAxo4UgAPRjRnO3NFRkbs0JAAAAAMBIRAtBAMggOY6kdnf9R4KBAAAAAIBRg4AgRrW9b93gvnOw3P8ynLHpOl/qljf3XuxMKtOzSR5d95u8lZ3pMWHZbBkAAAAAMDACghi1NFBwadlziYABywMvw3HReSvlN+/fYv/UiUSe23t9v2UXVPrfsZzfZQAAAABAMIwhiFHJCxR4WDZbLmZhlZVpuiwPbhkAAAAAkB0BQQAAAAAAAKCI0GUYAAAAAAAAKCIEBAEAAAAAAIAiQkAQSDOhvtOeZXZN82x3zcAikWtk9TOr5NpIxF1TXHIps2JHmSFXw1l3iv1aBwAAAIwWBAQBn0hkskyrjNrvSyqulBkBHnr1bxb/7D6pGmctTHbWFZNcymw0mzDzEVmzrtsO2HivZTNTy4QyQ66Gve7oNW5cpTTuXhlaUHDKnFXyzDM7Zfcvrdczd8gUzg8AAAAg7wgIAj7x+H55fWfMft/b/apsjw88587slnVSOy4m7bXL5fl9xTdHTy5lNlppy62VS6qkpNRdkcVoLjMtgzUvPUKQMyTDXXfi+16QJbUdEpNKaWyZ5a7Nn8icVbKxsVKi+h8sAAAAAELDLMPAIOjD6y7r4TXWXic3PbbfXYtipC23bm3bINeVxmRzy/3Ssa0468OM5m5pqOiS1lnLijo4PNpN+eFTsrE2Kl3N0+WeLfk7zteu3imN1SJd1jX1Hq6pAAAAQGhoIQjkyO4qvKhS5FCH3Lf2N+5aFK+JUqotA7vXF20wEMVj/9qN0mX9rFp0e/679FrX1B9zTQUAAABCRQtBjGoatKuuu01urKmSEnddb/cmeba9Vba/k6z6kchsWfriAzLVXbZ1r5Caxq3uQl9BWgfaXUhrorKn5QpZtc33eTMfkaeXVElv50K5qy35t0Hza5zupNlya+0iKa+IJtPt6ZJnH16WsRxKrb+/e53IrU0PynXW3yjNx6NNrXLQbfVlWmb2vlnp3ThAHnLh7Z+XV5GY7Om8X1b5ykAFzYNTviKbG+6XwzN8x8PadrO1bUeG/CbKo98yCF5mQY9FZNJiebR1vvRYdWHX9KelQbfp2STL67fJNPdveq3PuMv3GUHrQ1BeveuPv06a1DMVNL+mxy3o+aZMyyxonVRBtg3rfMulrnvCaCVotxAc1yELbn5S9tHCFAAAAAgNLQQxqlU3bZAG38O+KqmYLw2117hLuZt9ZaX1b0y2v5y/lixh5FcDA7fe+4AdbEhJt7RKGlpXZR7rLTpTlr64wRegcPKxsim3fNh5aLP2LWMenpZ5k3JvYeQExJz9S4rK1JoHU9I1z0NUyu9NOx7Wttf5ykw/e407ccjTXrCm4oGUCUU61y2WCYNpQRXwWJTe4gYD7YVqudkXZCupWJTYv5zqQ1gC7Jt5fgc+bp6g55tpHoLWSWWybVBh1PVM9r/cZV0BRaquzP9YggAAAADCRUAQo5a2qLm8wnrTvUmWz7pCar5XYb+Wt2ySPc6Y/Anx+FZZ5f5+7qwVssddn40+cF+og94f6pJ89Q41ya+x97pkc8vCRJpzZy2U1m79RZVcfpW9RQoNiky1HvW9v5nb4JaJb1ZTkzIbX/egXKfdaXs2SWuDs29OHnTHonJdjgFPJ1Az3w5iaCs4r9zstDsPORu5csmDTg7ipTtQmQVhWs9UkGOhSkqjdiu8uS3akTMqUyucFqTLO539K51gb+YwrA8DiW9bmkjLSUfHEEzWYX35W6x6gu6bcf0NcNyMz7eAeTCpkybbhn2+5VTX9/9Ctms2x03IS7fhyJQ75K+r3QUAAAAAoSIgiNGvolqmXXWRuyBycNvjsqotcze74C6U8XZA8GD+u7XlOb86K2lH49KUce103Y7XNHCUjQZ05ib+Jv7OVtllBwjMadBjWqW2frLSrE92xbTz0HS/bO6xFtIDQEFNnCnlGvjodrrEHnSPhaa9vc3aZ/ezcs6DL11/mZVGneMTf+dxuSs9SGP9jS4nXnWPp3R/NRfwWPRskkfX+VqrWss/e0Xk3Vh6YCmX+hCWgfctp/wOcNxSBDjfjPIQsE7aTLYNKKy6nolu91s7IDheJjqrcqJdj3f/cqfsap8nVYd2Svt9dBcGAAAAwkZAEKOWtqh5pKVLerVFzJIN0vlSpyyrXywzcuyGF7Yw86tjlC1b15nSlbXfMd+6X+0zQ+z2Rg1wLc1h5lhvso2+aWpA4fB7+m6cnJ9LRGHCOLt11Z7XXnCWs8otDwOnOwQCHovendtSAo/py37G9SEsAffNNL9Bjpvp+RY4D4HrpMVk28BGcF0HAAAAMGQICGJU066Md89a6HQD7NFxueZLQ+sbsqZ5trtFYQkjv94YZVNL/WOUjQ7jo9pMEyZGWn0IM79BzzeTPJjUSeqvY99jt0j5dyplQXOHxMZVSu3fMCYhAAAAEDYCghj1tFWM3Q2wzhlHS7vM+SdZyM1v5d1BjJ1VPT17IGAw+c2UbnWtO0ZZZ3KMMruLqz3W3BDK0E1Ruzeef4G+OySHD9irjHjdYfvr1pgihDyMNENTH3Js8ZlB2PkNcr6Z5MGkThrXXxNDUNc1PWcs1XclH6fOvi1PyE92WG/yNCYhAAAAgOwICGLU0lY9y5q1C+Bkd43z8P/6zgyTLBjSdJyxs6pkZjL5PrwH/qnTG+yZZvUBekZzZ3I2WB+T/Jqk6+mJHUh0IZ0wc7EsvWVouohq10xnXLgqaWi6JjHjrua5WmfCzdK9MZBXXrXH7Sup2SBr6menpD2j/pFEUCfUPIxQYdWHWMypr+UzkuWcD/nOby7Xh0B5CFgnbSbbBjSkdX3yd2WGHRAMYSxVAAAAAKEiIIhRrbRCuwDq+GDJcb9W1mjQrEt2veJsoyIzH0mOC/biAzJVV1Y8kFi3pr5v1G/rqzutf6My4+p+Wve4D/xi5WPli29YaW9wgnY9GnToK2h+TdJ1AjQiU+1x0tw0l8yXqRoYGASTMtvR5M0e+4CdX+dvvDx3SWtTbuOXeePAqZKatLRrUltLhpUHE7nUs3wLqz54vGC1/3gMZt/CzG/Q880kDyZ10mTbQjjf0k2+usq6Alql9eqLzgoAAAAAIwYBQYxaOgPso9bDdq/OqpkQk95u7fa3bPAtZJ5vk/ZDItHaerk2S0so+4G/Qccnc1dYn79Hux3Wr3ce2H1M8muS7sG2GlneqZMneNw0Wzb51oXLye8K2dztD1i6+agf3LHQceCcMeBS097TeX/KLK1h5mEkCbs+OMcjvR7nLqz8mpxvpnkIWieVybZBDUVd1xaHM6ujIoc65MfPuysBAAAAjBiRsrKy4ngKBkIQmbNKdjVWSqy9Tm56bL+7FgBGtyk/fEo21kalq3m63LMlf7cR167eKY3VO6W5fLk8XyRBegAAAGA40EIQGIT4lmXSvENbCTbJnVPMx/sCgJEmMuUOeag2KrLjobwGA5Mq5ft3zmJiEQAAACBEBASBHOx96wb3ncjWJQ/JiSd2Sm37SrnWDQr6f49wpZc1y/ldNpHvz2a58JYjU66RlvZ5Ej3UISdedZL7G0f69rnY+uMO0Y7O0dr7ZOPu12T3M3cQGAQAAABCQEAQMKQPvZeWPZd4+H1z70ly2aVfyIknviGyv+/vEZ70smY5v8smBkqL5dGx/ObTJ4kc2ikn/ufefrfPVXzfE3Jfc4e4c9MAAAAACAljCAIGvIdez0DLCI/psWB5cMv9yfdnsTy6lgEAAAAUHgKCAAAAAAAAQBGhyzAAAAAAAABQRAgIAgAAAAAAAEWEgCCAjCbUd0rnS92ypnm2u6awjbT8AkAxGs3Xar6HUGiok8gVdQcoDgQEgVEuEpkty6wvdP1ST7wG+HKPRCbLtMqo/b6k4kqZEYnY7wvVSMsvoHI5N5FZZOYjdvktm8m5ny6seuY9LJqU+Wi+Vud734b6+sA5NPpwb5TZUNb1QvieD+tabbJv3O8AhYuAIIA+4vH98vrOmP2+t/tV2R4v7LmHRlp+AaAYhXWt1gfeNS89MqwBD76HzBXCcRvNqJPI1UirO1xLgNwREARGuXh8q6z6XoXUWK+5s1bIHnf9QA621dh/c1fjVndNYRtp+QVyPTcBE4VWz8K4VkejUSlx3w+nfO5bMVwfCuW4jWbcGw2vkXweD1R3TPYt7HLgWgLkjoAgAAAAAAAAUEQiZWVltB8HCkRk0my5tXaRlFck/6ert6dLnn14mWx/J3mqatP4lTUimxvmyuszVsndNVXO9ta2m61tO3zb+ukYHktffECmdq+Qmgz/45f4vbtsy7Ktx8vzdVaeHTHZ03m/rGrb7y47gu6bJ0i6pvnVMVGqmx6UGwOX7/1yeMZtcmPA8g3KZN9KOxfK3etEbrXy7W3f271JHm1qlYO+Lhz2vtX58mql2du93truhZTtlOmxCKpvHpy8Ptvemkh3RnO3NFR0Sess67MydEHJVEeD5jfX86I/kUmL5dHW+VLSs0mW16eWuXL2J2Z/5mDqxUDnpgr1uFn1qyFRH/2S++aUb1T2tFwhq7YlP0/HY3p6SZX0WnX1Ln8dDpjfnOt6pXV8S92Vrj55G7K6nvl8C/NaYnLOe4LUs6D89eFn0f7Pt8Tnusu2ga7VA1xLvHrXnz510q3rA30HmNRJ433LoU7m87gpo3Moh3rWH9PjZnIslPn3RbBzM0id9JgeY2/7/u4JPEG2zel8C3BeDL7M+rkvMShfE4l0h6GupwtyHudyfRhI8rgNfG9kWnc8JteoQOUQ4Fjk/B0Q4Bh7ecz3dQcoRLQQBAqEfknder0kyw8AAFNHSURBVO8D9heO92WiSkqrpKF1VcZxMcrvfcP6kve+1CzWtte1Pi3zJvXdNgxOsMTJc1JUptY8mJIH030Lmq4JOw9tG+ygR988ZCqzqFW+1vZ9yjfzsQjKeN+iM62bkg0p25dUzJeVTde4S47qprS8WmmWVDwgK9saZIIvv7nUs6D65sHJa0NtMq+xmI5JM07On+gs9zHxQtF79t7YAXtx2M+LA9tkd4/1s7RapqXlWW8YL6+w3lg3k4MJ7AQR1nHznxf5lFN+A9R1TTdRz9Ie7tKFVWYq6PnmCOdaYpaHsMSk9JanM5xv+d43py74ryWm/HU9JV27PmS5PgS8/gYVZp0MyuQcUoVRzywBrw9m5Rv83AxaJ03zYHJPMNLujUzqTljn/Eiq6+b110z5vZmu1UP3zGAirGNhnG4o1x2gsBAQBArJe12yuWWhPcaGM87GQmnt1l9UyeVX2Vv4WF881g1Ob/cKWT7rCmfbTg22WDdrMy5yNjFkMsaH8wU43/7y8/KQyHPnIWcjv4D7ZpKuSX7H1z0o1+kNYc8maW3wpdntlNl1GW46+5Rv1mMRjHGZWfTGY6r10O2V3dwGdz99s77p/5I22IGptDR130rny83p+TWqZ8Ekg2ObEnnQ1/KWTbLHGZfa9m5M9zMqpROcZc1750udyRvSCePs8umJ/cZZVsN4XujA2j99qst6l+Hvr7rS/l/0Pa+94CyHLYTjJlfdljgvEnXHq2OiLTkH0fLRML9B6rrm167rvvNYX8tb9BhlEEZdNz3fLHm/luSQh3Do+RYdcN/MvluCXUvi25Ymfud8ptbX5Pb68rcMyek7IECdNB4bK4zz2ITBORRGPTM9bp5A1wdlet0JcG4GrZMJAfNgck8w0u6NTOqOcfkGNcx1PSehXR8yXKsz3BsZX89CEPRYmF5LcjnGYV13gEJCQBAoEBp46GhcKh3bkl9eum7Ha1kedC12U/jGrXazdXvbdevtL6qSypnh/2/mxJlSrjeR1herlwel+djeZu2HL4hgtG8G6QalN9LTKvV/96ybhfpk9xM7D033y2ZtAZb+5a58efDntzSaW8A1t31zgzJu2cXf2Sq77JuMpOrp2mXC2s7X5cHZN6c+TJ2evKHX9ab1zEhFtUy7Klk+B7c9LqvafF1CDh6SXuuHV4bjo+Osf9ODbTHpOei8yyW/eT8vXnk149/b5W49aPzsFXdFiMI6bk75i+x5Ktn9RevYz+wHhX5acg4gt/z2X9ftB+Jb3LruO4/Vu+5Pv7DKzOR8S8jztSSnPIQl39dJz0DXEgM5fwcMUCdN6eeFev0dgOk5VFD1LMCxyKl8TepvgDpplAeTe4IRdm+UU93J8zk/0uq6fl6Y14dhfWYwENaxyC1da/swrjtAASEgCBQQHYNi2bpO6XypO/Hqb3yMlFZUtgPSozdwQ8FtyRW0dVTgfTNMN5iJUmrfSL/aZ9w6/dI+/J6+6xv8yHvLr1z2LUOetzfq/0AutdfrTe/5F+jaKml48Y3U8vXGgbngwpSbPdN6FoT+r/IjLV3Sqy0Klmyw0uyUZfWLZUZ6V5QDvxWvinoPI3u6uxI3pE6A6pAcdnoM24b7vNB9swNkvm7D2nXrxgrrBnvntsSNZdjCOG5Oi029EU52l9HPublGHxJTj4Mp4/wOUNcTeg6JhiuDyHeZ5XK+qXxeS3LNQ1jyfZ0MfC0xktt3QOA6aSCM89hYgHOo0OpZ0GNhWr5B6q9pnQycB5N7ghF0b2Rad8I5510jrK6HeX0Y1meGgMI6FjmnG9J1BygkBASBAuGNDTO1NDlORSHzWhYFYbJvJumONIWwb2HWM+2+cfeshU43nx4d12i+NLS+IWuaZ7tbKOcGtCSqTxj6MNIlu9oPSa8bbItGrXz5buAL5bx4d/sO+2HFa8k4fka19XDWJc+uS7/BDkdo5fDKP7qtQObLSvcm+Wn9HP1dhhvhoMLJr/vwGlCh1B2YC3YtGXmGv06anUMjTZjlG7ROmuTB5J5gNN8bqfyf8yOvrvOdNTJx3DDSERAECkR1rTs2TGdybAt7HIoMY51k5XUpee+3obda8loWBekWZrJvJukay9D1Jfm/hoNrDRVEGPuW+F/8ntSxd1JedY8n6kNe6lk/ND92N586ZwwVDTaVVCxKjBGYyO8FF8p4HYNPg3/2xB2+bsO++lsw54U7uYjTktHtZjWIgJmp0I6bO4Zgb4+/DYXOWrlwwJkCPdXT+z6ohpNftzVD6ThJv+12ugKlCiMPpudbGAohD0NhoGtJXwG6uA/zd0DY19+BBT+Hhq6e5T40QbqwyzdInTTJg8k9wUi6N8q17pif8/0pxLrevyG/PgzhM0NQgzsW2a8lYR7j4b+uA4NDQBAoMD2xA4kvpAkzF8tSewyUbJI3htpcfak74HS+u3Bl5I2rVrNB1tTPTjSz15vIGfWPZLyBC7RvOaQ7EO2O4oz5USUNTdekpFnd5A6oPRTBnRD2Tdkz95bOl7t13wKmYVbPBqb/Q7qsWbv4THbXODdgr+/UQFNyEhHl5HecTLNuyp0ut852JZW3yeX2A0hfw31e6L7Yk4vowNN1ehMdk83tQ3Cepcn3cfPG1Hn24ftleWLQ9RpZlWFQf++B1OtebNfb5k7pb4bifOY3cUNvncc31jnHWI/vvHXdzkDhWeS7zHI53/KtEPIQFpNriceZvVz/UyF5ffcrmO8AV77rZFCm51DY9Wyg45arfJdvLnUyUB5M7glG2L2RSd3JpXwHUmh13UR414fUeyNvkpoheWYwkMuxCHItCfsYD9d1HRisSFlZmflVHkDeTajvlJX2uF2Z7Wm5QlZtc79o+tu2e0VKyx6dVau/cSzsQYbdh3+TbVX27WOyuWFuYpBrk31TQdM12rfIbFnqjROSrkcHnV6WuOn18pstX+nlYCLwvnn5TTuemejN+61tG5yb9wwC1x1L+j4H5XSZcG4u+9JBmfuWr3+f/eXiL1+T/Pa7bYByHEhKHdL/Za5PTsSRC5P6G9Zx6y/dXuu8ePZh67il10l7yUdbF5ZGc86vUV3PUs96u7tEKqqkZyjqeg7nW/pnDfZaYpIHk3pmwmTfTPJgci3xZEs/JV2D7wCjOmmwb0bnRUjHzeQcMqlnuTA6bgGOhUn5GtXfnL7fMsv2eX2l3hOooNua1B2T88KozEyuUTmc80EUQl03ORamdSeoftNNO6+M6k5Y2+ZwLLKln3OdDOm6AxQiWggCBeJgW40s79RBlT0x66ZlhT2eSnJdP6yH8j3aXL1p6P6nT8d8ccZ70f+Z82g+7k+5iTXdt6DpmrAHrW5YIZu7U9O08+G74Q1bOPu2X35av1BarX0bqK4Mup5lEX/ncXm0xUpXu+gkuGmn3cx7Lc1SuiK5rR+Uf+DrQjovkq0prJvMIZxMRIV13N51ZxlUqcdOpKS0ShpaVyW6kjnnkNZde9Hilm19Mg1PmPXsbk3Dy4Me35aFcne7V6eSQsuDwfkWlkLIQ1hMriUe57qa/jepCuE7IKw6acLkHAq7ngU5bibCvO4ErZOmeTC5JxhJ90YmdSeXcz6IQqrrQYRVf9/dvt4+vinlq2XRGXxokKGUy7EI9h0QzjEuhOs6MBi0EARGoGz/SwsUs6E4L2Y0a3ej3FssFJLk/5Zb+9Ng7Y/vgdL+XZP1uwr+dxsAAAAYjWghCADAADRA5oyXp11Q/nHEBwMdyVkYz/eNLaTGT7R+Z4+zFJOeg/YqAAAAAKMIAUGggOx96wb3nWOg5VtbrnffOUz/nuX8Lhe7fJen6fJzP3zKfecYaPsgdFyazpe65c29F4s9eUbPJnl03W/ykvbwc2ZhvOi81+W61g32fupL92VlqzOmVG/n/bL0fxXXdSaIfH9m+vJIke/9Znlwy0Hl+3PTl4FCke+6nb4cRL4/M305iHx/JsuDWwYKCQFBoEDol8WlZc8lvjQGWr7ovJXy0yU/D7w9y+EswxG0vMJcvuGxW+zzwlvub3sTmuZv3nfS1olEntt7fd7SHk46ns7Sb6+Uu36eLDdnX5fbPze3LJQZP7y4330dLcsmgqZpujzSBN0vlodmOaiB0sl1GSg0Qeuu6bKJoGmaLpsImibLQ7MMFBrGEAQKgPdl4WF5ZC0Xu3yX51Av9yefaRUa030b7ctB5Psz05dHinzvN8uDWw4q35+bvgwUinzX7fTlIPL9menLQeT7M1ke3DJQiAgIAgAAAAAAAEWELsMAAAAAAABAESEgCAAAAAAAABQRAoIAMppQ32nPOLqmeba7Jj/CSrcYeGXXuW6xTIhE3LW541ig0FAnAQAAgKFBQBBAH5HIZJlWGbXfl1RcKTMCBJ8mzHxE1qzrdgJW7mvZzNS/yyXdQheJzJZlvn22XyEEMyJW+a6sscquZ5M90+3B+OCGfx3px0LLI1Mdw8g1Gq8PAAAAQKEiIAgUCW15s+alRwI9ZMfj++X1nTH7fW/3q7J9gOCTpr1ySZWUlLorsjBNF47IpMXyqFW+0r0iL8FAZXIsTOrOaEY5hIvrAwAAADB0mGUYKBIzmruloaJLWmcty+uDtrbqubVtg1xXGpPNLfdLx7b97m+Kj7YWXPriAzK1e4XUNG511458YdWdwdAWgk8vqZI9LVfIqm1Dk6dCLAcAAAAAyAUtBAEM0kQp1ZaB3euLOhgIAAAAAMBIQQtBoEDY3W5rRDY33C+HZ9wmN9ZUSYn+oqdLNj+8TDreST1VtWVeddODcmNF1NnO0mtt+6y17XZ3W68VVX96OxfKXW1OIC/Rws1ecg3Q2i1Iq7ic0p00W26tXSTXWfvniMmezvtllZtXj7ddeT/lkAu7fOt8x8H6/N7u9fJo0wtZu+zmu4VgkDwkW2hKn9Zydlfj1vlS4ht3MOixMK07KkidzEWiHCr7dkvvs885HLf+5HoOlVrr7l4ncqtVHl4d7u3eZOUjtct30Pqb0/UhpRycz3+2vbXPsTA9h4KemyrItqbXh6D1zLTMAAAAgGJCC0GgoESl/N4N0uB7iJfSKrmudVXKuGX6QKxBoAbfA7EqsbZtaH1a5k1KbhsGDTStcSfQeNp7kK94IHVijUHMhOsEsh7wBRFUVKbWPJiyb3Y53Ots17ccUsvMVHVT2nGwPr/E2seVbQ15meE3iCB50HHXflq/QvZY76cuSe6zUzbzrb+NyeaH8zPuYH/CqpNO8McthwHGqFSFcNxs0Zmy9MUNKXW4pGK+rGy6xl3Kpf4Guz6ovuXgfH5DbfLzlWkegp6bymTboMzrWfAyAwAAAIoJAUGgwGjQo7d7hSyfdYXMnbVQWrt1bZVcfpX9a9v4ugftFmE642xrwxVS870Kd1sdkD8q17kP/fFtS+3f6ctJR8c/c7b3Xv4WXvH4Vlnlrp87ywky5YNJuk6AQgNZyXJw/s7av85DzkZ+73XJ5paFif3JVmYmtFVYQ4X1Jv3ztXxL58vNOaZrwiQPWr6PtHRZ76qkwQ04eXVkT8vclJZQQY+Fad0JWieNXXWbUw6+dPW13N7fVGEcN9Ny8GjwbaoGY926ObfBLev02XMN62+Q64O2uLvcLodNiXLQ1/KWTbJHD0e6gHkwOTdNtjW5PuRSz4KUGQAAAFBsCAgChcZ6cL2rcavdoktbf+14zQl8lEYvsn/qg/a0Sm1x0yWt9cnuf/a2TffL5h5rIT3okGfxdx6Xu9If4K1863LiVfd4bq3SJs6Ucn3g95WD0v3b3rY0Lbi1XzoarXW+sQv9ZZar6unaRdQqX183U6d819v7OnV6jsEtA6Z50MCVHeioeECW1S+Wu2usOmKV4VBMuBFWnbSDSre45eBLV73r/vQrhOOWZOVj1txE3Yy/s1V22YGoJM2bcf0d4PqQoqJapl2VXH9w2+Oyqi21G65RHgzOTaNtA8q5npmUGQAAAFAkCAgCBWbPay+477LxJvF4tc9Mp/qwe/g9fTdOzp9orxp5JoyzWxUNXA4OHaNs2brOlO7KA4351h8NOpx/gb6rkoYX30hN1+sefcGFoXY/zTUPO5oW2kGRqTXaMssJjA2NkOtkzyHJ1LDNrxCOW4oMZbG9UYPlS1PWm9bfIOeF12K0V1vMLdlgpdlpB4lnZOmmGzgPJuem4XkcTG71LL95AAAAAEYHAoIACsr46Dj33cC8McqmlvrHKCtmbsBk1Bht+5MqzPqrLUbvnrXQ6Sbco+P2zZeG1jdkTfNsdwuHSR5Mzk2TbQEAAAAMPQKCwEiVoWtcspXUITl8wF6VpvBbDr4bc8YXC9Kdr7rWHaOsMzlGmd2NOcP4ckElWhrpzLy+NFNeuXaHDijXPFQ3aUs4Hbduk/RqS7m8TqQRoO7kVCf7c0B6tBto6ThJD1c53YOThu645e8cCqP++mmZ2N2E65xx9rT1aEnFopSJN0zyYHJummxrLO/1DAAAACg+BASBEUa7AzpjkTkTSHgBH30grm5yB9zP0KUuFnMG3S+fkfybgvTKq/Z4byU1G2RN/eyU/ZtR/0jG2Ul7YgcSgZ4JMxfLUnvcudzZZVU6X+7W8s1xNtTBMs3DhPpOe0KN3s77pWPb4/Jop/v3dYMPyAxUd3KtkwNJdgOtkhvd/dDurfPWdTuTh6QJ+7iFdQ7lu/5qq79lzdpFeLK7xinL13c6+S+d4KzzC5QHk3Mzh/N4IGHVMwAAAKAYRcrKyrhzBgqABnRW1kRlT8sVKRNB6MypOp5Xb+fCxGymOovoUm9ctHQ9OuD+sj4PxV466VLSzbKNx7+tJ5GX7hVS05g6YYHHNN3s28dkc0Ny1lyvzLJJL8ugNMBwa9sGJ8CQgT/dXMosCKM8TNJun/OlRFvH1bfagR3/3w82v9n+JqXu5FAng0jsm7vs6e3uEqmokh7/vhmUWS6MyqGf88FjUn+Nrg9Zysyhk50kj4XpOZS9/qSemyrottm3c+Raz0zKDAAAACg2tBAERiB70oCGFbK5W1v8eGLS271ClmcJvOiYYst1ogHtglngnLzq2Gep+7dHW7/5Ag4H22pkeadOnuBxy8DuMps7bU310/qF0mqV72DSGYygebADJHbwJyabH3aCgcr++4edcpi6ZJXxDL9+QepOLnUyCJ3R+m49nt5nW3ViT8tCubvd6ZLqF/Zxy/c5FFr9tcrs0T75dNP2BQOVaR6CnpvKZNugwqpnAAAAQLGhhSAAAAAAAABQRGghCAAAAAAAABQRAoJAAdn71g3uOwfL+V02ke/PTl8OIt+fWWjLQeX7c9OXg8j3Z7JcWMsAAABAsSEgCBQIfUC9tOy5xIMqy/ldNjFQWrkumwia5khdDmqgdHJdNhE0TZZH7jIAAABQbBhDECgA3gOqh+Vwl/uT789KXw4i359ZaMtB5ftz05eDyPdnslzYywAAAECxICAIAAAAAAAAFBG6DAMAAAAAAABFhIAgAAAAAAAAUEQICAIAAAAAAABFhIAgRq1IZLLc+cxO2f1L6/XMU7J6zmT3NwAAAAAAAMWLgCCKw7ioVDWuk9VzIu4KAAAAAACA4kRAEKNWPL5f1t5UKeXfqZQF7TvtdVVXzrJ/AgAAAAAAFCsCgigK+9e2SfshdwEAAAAAAKCIERAEAAAAAAAAiggBQQAAAAAAAKCIEBBEcaleIHcy2zAAAAAAAChikbKysrj7HhjVIlPukJaH5knVOGc51l4nNz2231kAAAAAAAAoErQQRBE56P4EAAAAAAAoXrQQRNG4dvVOaayOSXvtrbJ2H9UeAAAAAAAUJ1oIoihEIpPlQu0qvGMjwUAAAAAAAFDUCAgCAAAAAAAARYSAIAAAAAAAAFBECAgCAAAAAAAARYSAIIrEhTJexxAEAAAAAAAocgQEMerphCKz71wgVe4yAAAAAABAMSMgiFFLA4F3PrNTdu1eJ421UWtNTNp//KLzSwAAAAAAgCJFQBDF4VBM2pubZO2+uLsCAAAAAACgOEXKysqIkAAAAAAAAABFghaCAAAAAAAAQBEhIAgAAAAAAAAUEQKCAAAAAAAAQBEhIAhgyOkM0PPWdUvnS50yb1LEXZtdJHKNrH5mlVwbGXhbDL+vbqiT959cIh/efrG7BhgeXDsAAACAzAgIAhh6E2dKeam+iUr5jIvsVdlo8HDxz+6TqnHWwmRnnd8Xty+xg0/vu8Gn9GUMrUjkG/JF2Zn2+2OXTJYvCMQMuUjkYvlEzwH/K8TzIXL5DfZnfHL50Bxro3NerxnjKqVx90qCggAAAIAPAUFgCEyo75Q1Lz0iMwr4gTTZaq9bls1MzWdk5iP2+s587cOBbbK7R9/EZPf239irspndsk5qx8WkvXa5PL+v76ToJ7z/sfsu1Zj3P3TfWfm/oFo+9AIjWV918tkFBAwGKx7/vZz0lnNMxry9X06KM5E98ivIOe+J73tBltR2WFeaSmlsmeWuBQAAAEBAEBgC0WhUStz3hWuilNqt9kSmTr/GeeOqnl7lvsuPeHy/dNRVSM33aqTjnewBo8icVdJYLRJrb5K1GYKBfl4wIFuwAEPn+OfWyXm3t8jZT/7aXYOhFI//Wk63yl+PQckdW2Wsu360CXrOx/c9Ife1x6wL2X2yeg5BfwAAAEAREASQYk93l0jFlYmWgJHIbLm8Imattx6oh5DdVXhRpcihDrlvbf+tCAcSf2+HnO0GSOwgyfoD9vqx61cn1p13+zo55T1aswGj0f61G8W6sknVottlCl2HAQAAAImUlZXxBIxRJzJpsTzaOl96Wq6QXdOfloaKqEjPJllev02mNT0o11nLvd0r5K7Gre5fOAGoaut3N1q/81rz9fZ0ybMPL5Ptaa3Y7G3rbpMba6qS23ZvkmfbWxPbajfbp5f037Kut3Oh3NW2336vgbelLz4gpda6u9eJ3OrmU2najza1ykFf98vIpNlya+0iKR8gv0HT9baTlhUiS/TnFbJqm7Ve9+OWQ9K6s1oaaqyfs6z03XwEKQfVX1nscT8nnbYO3NVYKbH2OrnpMaeMMtHxy3oXTZQxL2+Us5/7fWJZg32n7+qbrhpoGx2D7cgTs+VLK81zfi7y6Q/myJ8vccbFG/P2bvn6j7rkeP+xuOBi+XROhRy1tjnmrhvzwQE5te3ncpIvyKiTbfzhapHTHt4ix0+tlE+vnuhsb217mrVtekBSx+M7er1vO4t+/qlbulLSVUHz4PG29/ZL5GMZ+/IWOd0qw3RBtvXK7Ki7bHt7q5yXpZWgvW9WuX6a5zIzFbQcwjrGKnAe+tSHj6360G3Vx39LqY9+iePS37EIuG8qkYcyKw/nuitd6eeTSbomcjnn1ZQfPiUba6PS1Txd7tmS++cDAAAAowEtBDGqld7iBgPthWq52RcMK6lYlJjhVgNbt7ZtsLf1d+0tKa2Shtan+8yEW91kbesLgqmSivnSUJva1TYn0Zmy9MUNiXwqTXtlUzJtO7/3PmBv0ze/qzKP8zdQuhMvFKfH8AuyqzvZbVi7C/fu3CY7YoespXFy/kR7tS3Mcph9ZaX1b0y2v9x/68D4rufsFn4aGPAv9xcYCOy8KXLkiQW+QI1OlFEuf/jBX7lLToDk0/rZ9jZe0EMdO3eiHLn3+gyTapwpR+sXyBFfkE+sbf+cYdujP0jbzqKff2RO8vOVaR50TMU/3Otsn2Tl6+o5fcZRNNk2KDu/jda+Zczv9zOkG7zMTATdtzCPsUn59q0PVn4umS1/aKySr3IsB5N9020TeUgLBqYzL7Pgcj3n97/cZV1RRKquZCxBAAAAgIAgRrWS0qjdCm9ui3YWi8rUiqjdIm15pz4WRqV0gr2ZjK97UK7TaFjPJmltuEJqvlchc2ctlFa7m2xUrvMFuJwutNab7k2yfJazrb6Wt2ySPb5etfFtSxO/a+3WNV3S6tteX17rQD8NqE21Hls3tyy0t5nbsEL26C983Xht73UltrG3s/Orv6iSy6+yt0gROF3Ljtes8rrgQpngdhfONPFH0HJQ/rJIbGcfg8w04Hmhzip8qEu2ZW8cGDoNvh2Vj+W09RvtgEPJw+54bOmz52rrL3cbe7s7NsoZb+svJspfyu0tUmgwZczbW+WcO1Zn3VZbdv3lEuvN27vt7by0z1m/W8a+72yTImAenEBNuR2k8fKQ2P7lPzobuUy2NRm37tj1c+TPGlD6YLec8bAvzbd1LLgz5c9pAU8VpMxMmOybLZRjbHAsLr9Bjtj1IW07LbNzy+XTHMvBFnTfyiudPPiOm77Ocbvg92FYZqHb/wvZbv+/xgS6DQMAAKDoERDE6NazSR5d5wtmWcs/e0XkXbu1m0ODT9MqtdVcl7TWJ7u66sQXO5rul806G26GoJlUVMu0qy5yF0QObntcVrUluyDnTgOHc6XDjYTF39lqt9jzsyflaFya2EbZ+dVAXlYDp5vwyquyp9Tav7orZWrPDnk9y/O+LZRyuFDG2wHBg7IvS1fIoXFAzrjjJ3LKLrcl0nu/lq/ZAY0knVX3lCefS2yjdN3YX/VTaG9vtSfc0G6e/m2//OY59s8Ul0ySL8qT64/ftUNOfy6166dRHs6fIkc1GOfLg9LtT3rOSsPfldNk24A0CPZFmbaGs8q2Odn12c7vj7bIaR9YC+kBV2VSZkEY7JuuC+UYG+Th6Le0aa5VZr7uwXa6P+q2g69Hv9U3iBpE0H2zg5fXuHnwHTc1xv3pFzTdoaTXyN/aAcHx4mvoDAAAABQlAoIY1bSr60H34VmlLzvc2XW7X02MjefRB8jD7+m7ZFfZeHyrPNLSJb3acnDJBul8qVOW1S+WGWndinOWIR/bG7VV3dKU9TqG4LJ1ndbndyde/Y5ZGDBdpfu4q9vavxqnu3CyzJKtKkMvh0Lw9n45Ka1sTnpSWzs9l7Jex0r7pKlO3n9ySeKlY5plM/ZX/+a+y05b3J2x/oCM0RZzixZYadbJJzdUyxdZuukGzsM3z7JbpAXJg9G2gZ3tdDfNULYaMDpeA4LydfnqfHtVQn7zYDHctzCOcdA8aDDuKy0z61p15Il7UvPgjdt47tm5dxs22bcPPpIT3LcDMS0zAAAAAEOHgCCQA+0Ce/eshU732J6oTK2ZLw2tb8ia5tnuFuFyJk15QKaWJscDHLQJ46REYtJz0Fl0Whtm7i7sGe5yKATeGHBHz/WPAZcfOjbaOXdsdLoJf6DjypXLkXvvkQ9vv9jdwmGSh2Pf/Lr7bmAm2440JvsW1jEuhPINvm9uIDegMM8LAAAAAINHQBDwZOgWrN2Jz79A3x2Sw2k93bT1oN09ts4Zv0+7FvsnKukrdUKOwaiunW9P5NHbuSJl/D5nrMT8cMb9q5GOtBmW05mXQxC/lXdHyFhfR+e4Y8C9nBzbzR4vLdu4aobsVnPaTbjJGYNNu9Qeu6QiZcIJkzyM+Z0zNl2QrrYm2xrL0C042RLuj3L8YXtVaEz2LaxjHDQPiZaTH6SOJ5nyatqR6EpsIvi+fShjNA/nniVfOisSnO7MqcI+L3KRHJv0XRm+XAAAAACFgYAgip7TPVbfVUlD0zUywQ1S6MNjtc5KnNadWFvnLWvWrrGT7WWlQbHXd6ZOVOIXizm/K5+RTD8femIHEt15J8xcLEtv6afLcJ7lUg5BaTrOWF9VMjOZfEE74XcfJgIyX11eLUfs8dZypy2sPrlduwh/w13jBIZOesuZeOPYN511foHysHu/PebcsasXyIc3XJzoZmqP7XfDDakz25psG5B2hXbGYZwoR37wVylpHv2BO9lIhu7EeZfDvuX7GJvk4YT3nclD/qhllkO5D2SgfUt2554on17vBDC1S/BnTUuciUayMCkz3e/Pbne6GKe3gs2Lyd+VGQUxNikAAAAw/AgIApYdTd6Muw/IyhffcMbje3GDNFRERXq6pLXpBXs7T2mFdo3VcfOS4/etrHEmJtn1irONnzeJSUlNMn19ranPLdrlBBhFptpj97mfv2S+TNXgZY7GR/VJuR8HD0mv9aM0mpxAxLQcTGx9daf1b1RmXJ38vEJkB2osR+1x/pxx0v6wqFzsySIG6ctLtItwMl077au1C+YB+dpuZxtlkgdvbEJ17OrZ8gd3TLreJxbIkatTu7CabKuz4HqfnRjX7pLZiXUf3pAMbI79kTdbc1qal1j79oEzcUbYTPYtrGNskocxP3cmXDmmZXavs53/9cnlySChybEw2bexW3bbE4hoANNO+97ZdgB3zNs61mWqnMpMJ1nROmA5lmlimUGafHWVdUWxrk6vvuisAAAAAIoYAUHAYk+Q0bBCNnc7gTZHTHq7V8jy+mUpk27E33lcHtXJNHT24QR321mp23q0++3yPn+Tu4NtNbK8Uyf08Lif37LJty5cuZSDkefbpP2QSLS2Xq7Nc2Agn45/bp2c87I/IPKxjHl7qz3uX6bZV4OKv7dDvr7eStduleVx077j5ykt6EzzYI9NaI9L6ARtHB/L2Je39Jk52GTboOxA2MNb5bS3U9O089ycum9hCrpvYR1jFTQP2kLv1OaNcoZVZoP9TD+TfdM6aa/36qSV57HrN8o5Wz5yVyTlVGaH98lYt06MyXMrUW3xPbM6KnKoQ378vLsSAAAAKGKRsrKyoXnyAgCfCfWdsrJGZHPD3KzjFEbmrJJdjZUSa6+Tmx7b764FADNTfviUbKyNSlfzdLlnC7c9AAAAAC0EAYRKW+bMa34kZazByKTZcrPdtbjvZC1+8S3LpHmHthJskjunFG4rQQCFKzLlDnmo1rre7HiIYCAAAADgIiCIUW3vWze47xwsD9PyBVX2WIO6rOMMPt36gEy1Vl903uspXYvT/15tXfKQdElUattXyrUEBQEY0GtKS/s8iR7qkAVLXsx+jQIAAACKDAFBjFr6oHdp2XOJBz6Wh2f5zb0Xy08fXiEXnbdSfvP+cvun9MTsn5m2TxePvyBLyh+SLp2XhV7DAALSa8pll34h3z2xRZpvflL+ae/1/V6zAAAAgGLCGIIYldKDSyyPrGUAGAyuOQAAAED/CAgCAAAAAAAARYQuwwAAAAAAAEARISAIAAAAAAAAFBECggAAAAAAAEARISCIwCKRyXLnMztl9y+t1zNPyeo5k93fAAAAAAAAYKQgIIjcjItKVeM6WT0n4q4AAAAAAADASEBAEIHF4/tl7U2VUv6dSlnQvtNeV3XlLPsnAAAAAAAARgYCgsjJ/rVt0n7IXQAAAAAAAMCIQUAQAAAAAAAAKCIEBAEAAAAAAIAiQkAQg1O9QO5ktmEAAAAAAIARI1JWVhZ33wNGIlPukJaH5knVOGc51l4nNz2231kAAAAAAABAQaKFIAbhoPsTAAAAAAAAIwUtBJGza1fvlMbqmLTX3ipr91GNAAAAAAAARgJaCCInkchkuVC7Cu/YSDAQAAAAAABgBCEgCAAAAAAAABQRAoIAAAAAAABAESEgCAAAAAAAABQRAoLI0YUyXscQBAAAAAAAwIhCQBDGdEKR2XcukCp3GQAAAAAAACMHAUEEpoHAO5/ZKbt2r5PG2qi1JibtP37R+SUAAAAAAABGBAKCyM2hmLQ3N8nafXF3BQAAAAAAAEaCSFlZGREdAAAAAAAAoEjQQhAAAAAAAAAoIgQEAQAAAAAAgCJCQBAAAAAAAAAoIgQEgVFAZ4Cet65bOl/qlHmTIu7a7CKRa2T1M6vk2sjA2wIAMBy+uqFO3n9yiXx4+8XuGuQD9wAAAEAREARGg4kzpbxU30SlfMZF9qpsNHi4+Gf3SdU4a2Gys87vi9uX2A9g77sPYOnLhcR7WPzkch5qwhC5oFo+1IfxG77hrglX5PIbhux4RiIXyydar/0vgg45GcrjhnAV0nkRiXxDvig7035/7JLJ8gXBq34ZfXfrd/+4SmncvZKgIAAARYyAIEakCfWdsualR2RGAd/IJlvtdcuyman5jMx8xF7fma99OLBNdvfom5js3v4be1U2s1vWSe24mLTXLpfn9/WdZPyE9z9236Ua8/6H7jvnQe2zpswPG4nfNVXLVzxo9GE/5N5eZwfavAfuD5tukC8uyBx006Dnh09av6csMYqZnhcY/eLx38tJbznfR2Pe3i8nxft+X+VitF5Tg3x3e+L7XpAltR3WHUOlNLbMctcCAIBiQ0AQI1I0GpUS933hmiildqs9kanTr3HeuKqnV7nv8iMe3y8ddRVS870a6Xgn+0NTZM4qaawWibU3ydoMwUA/7yEi20NGwiUV8tkFBKuC0NY3R55YIEcuOVOOuevUsXMnypF7KzM+oH55Xuq2yI94/Ndy+u0tcp71Krljq4x112Po5XJeIByFdl4c/9w6Oy9nP/lrd83gjfZratDv7vi+J+S+9ph1Q3KfrJ7DOQYAQDEiIAiEbE93l0jFlYmWgJHIbLm8Imatt27Eh5DdVXhRpcihDrlvbf+tCAP74ICM/eBMOTr1HHcF+nP0B7PlqPVzzNtb5Zw7VtsPuvaD98Nb5bS3P3I2AooM5wUwPPav3SjWHYpULbpdphB4BwCg6ETKysry0wcDo1pk0mJ5tHW+9LRcIbumPy0NFVGRnk2yvH6bTGt6UK6zlnu7V8hdjVvdv3ACUNXW7260fue15uvt6ZJnH14m29Nasdnb1t0mN9ZUJbft3iTPtrcmttVutk8v6b9lXW/nQrmrbb/9XgNvS198QEqtdXevE7nVzafStB9tapWDvi5IkUmz5dbaRVI+QH6DputtJy0rRJbozytk1TZrve7HLYekdWe1NNRYP2dZ6bv5CFIOqr+y2ON+TjptHbirsVJi7XVy02NOGWWi44H1LpooY17eKGc/9/vE8tj1q+X0XV4+vyGfNi6QP8tuOeOtSXLk6j/KGXf83O7S5f/dOc1dcnxi375hPfjPkU99rYDGfHBATm2z/u69vvkNQrt+/eHqM+28nfrN6+WPV0900rbSPc1K95S0dCMXXCyfzqmQo/3kQcfN+8O95XLsg9T8e3RcpiOXfCynPfyTPukPJOjfemXeH+/4eEzL1yuLP1vbOz6WsS9vkdP9abplIWmf5eyH9UYDOD/6tz5lFISd3+sr5dMy65id6650+euaSmzrHV8rr2Pe7pav5/jZ6ZwWarPlqLU/52VpiRSk7pjwyvYEa1+/9q3v263jxK5z++QL6zjqcdEAmb9lVNBj7JwXYtWzLXL8VF+5ZTsvDMrX6LgFLLOg54Wz3YHEtSZdpuMYNA/JMvuJnDR14GuJiaDla3rcTORyDgU5L0z0zYN1LN7eLadu6Uo5FonPdZdt/Z2bAdLN+Zo6QJnldB7n+VriCfLdncmUHz4lG2uj0tU8Xe7ZkvvnAwCAkYcWgjBSeosbDLQXquVmXzCspGJRYoZbDWzd2rbB3tbftbektEoaWp/uMxNudZO1rS8Ipkoq5ktDbWpX25xEZ8rSFzck8qk07ZVNybTt/N77gL1N3/yuyjzO30DpTrxQnB7DL8iu7mS3Ye0u3Ltzm+yIHbKWxsn5vmeUMMth9pWV1r8x2f5y/60D47uec7pouQ9G3nK2B4oT9rwjY2SifHp99laC+mClQcLMXQK/P8guxx/Ll9d833qQTj4MipXun++9PqWroZ2H+tn2A1rfPPi2PbxPxn5g/Tx3knxxvrPKow+qf7EDYd2DeDg/U/4856/yOr6iafk6D7FOWSSdKUevnjPgsdCghRcM1Af0XAJy9oP2D6z86jFLCyplktjWXda8HrtktvyhsWpIxqkMXHdyoHXXDiIoq8596gYR1DFfd3zzc8g6nvVp5ZbhvFBBy9fkuJmX2cDnhdMF8uvyVdp5mXD+2fKl9cPrMpnLcTtaf0+Ga8ngrlFm9Tf4cTMx3OeQ6psHrePlcsQ67oMxdOlmLzOj8zika4npd7dn/8td1p2BSNWVjCUIAECxISAIIyWlUbsV3twW7WQSlakVUbtF2vJOvZ2MSukEezMZX/egXKfRsJ5N0tpwhdR8r0LmzloorXY32ahc5wtwOV1orTfdm2T5LGdbfS1v2SR7fL1q49uWJn7X2q1ruqTVt72+vNaBfhpQm2rd7m5uWWhvM7dhhezRX/i68dre60psY29n51d/USWXX2VvkSJwupYdr1nldcGFMsHtLpxp4o+g5aD8ZZHYzj4GmWnA80KdVfhQl2zL3jgwN4e75NS3rQeasilZHyyPXW89HGkA4YPdcsbDTpfAkjs2yhlv6wO+EwjInfVgda7TCkO7Gzrp6vqJ8pdye4MkbWmzfqP9+ck86C+S2+pA9qe+cMB6l6ErdPlku9XK2F/9m7NsaOyPtjrBRn2ofOL78skNF2csM+9BTl9O/rRVVLIrpb78LVlMytd5IC23H0b9XTTt7V/+o7NRFl6LTP27QbUYKq90goq+/OrrnPVa7qm0lUuiNaI/r7pv55bLp+nHOCwB6k4u7Lr78kYpsffdqnOXOC1ez3nZOXbHvmlvltM5pEG7gc4Lo/I1OG62gGUW9LwY8zutn8ky0by//2RdMlj3zbPsen3C7/7gLCuj46bXkrQyc49DrsMi5FJ/gxw3E4VwDiX/M2V3Ig/6Omf9bhn7vrONx2Qcw6Dpml5TTcss6HlsC+lakrP9v5Dt9v9PTqDbMAAARYaAIMz0bJJH1/mCWdbyz14Reddu7ebQ4NO0Sm011yWt9cmurjrxxY6m+2WzzoabIWgmFdUy7aqL3AWRg9sel1VtyS7IudPA4VzpcCNh8Xe22i32/OxJORqXJrZRdn41kJfVwOkmvPKq7Cm19q/uSpnas0Nez/L8bAulHC6U8XZA8KDsy6FF10DG/sraoSwPlhqA+qJMW0pYD2DNyS5cGngb+6MtcpodCJg8qJYR+tCmXbK0tZqdrubH8uU3kw/xuv6UJ5+TU3YlH/r826bYvd9+CE0Pch791kQ7GHLqbneFIX3QPaPZevh7+YCM0YfGqzUAco98eHu1fJFjCyTj8j1/ihzVwJKvzJRuf9JzVvlkafnoDwYOZoB/OyB5jTaLTc2vGuP+9LPLXLf1ddNz9q3bPkZHvzW4VkBBGNUdU1Z9+vrP/QEsp345wS9HzudQgPMiaPmaHjeTMgt8XvzuI/uzvPwf++bXrX/Tg3UfW2XnvDPJg8fubukvs5875dDff3j0J6f6G+C4mSiEcyjhkknyRXlyP47ftUNOf27w3ZHzna5xmQU4j5WmEdq1JEd6r/NbOyA4XnSvAQBA8SAgCCPa1fWge3Os0pcd7uy63a8mxsbz6I3n4ff0XbKrbDy+VR5p6ZJebTm4ZIN0vtQpy+oXy4y0bsU5y5CP7Y3aqm5pynodQ3DZuk7r87sTr37HLAyYrtJ93NVt7V+N0104WWbJVpWhl0OYdu+0gxKZHyzPtlu8yNv7+4z7pQ9Cx2swo79ugAEEbbGnYzd90lQn7z+5JPHKNK6UBihO1ZYdvm7D2s3200usB7y39iUeEHOh+6yBt7Nvb5FzHnZaRtnd23LulmhYvm4rKqNWjmVz7GCgF6jIiw8+khPct9loEOor3TfrmnLkiXtSj5s3xti5Z+cUqDEVtO6YSq9PmetXbufQQMc4p/INcNw8JmUW6Lw4/GHis70g6di3DySCdU6A8I9y/GFnG2V63FJaF9o+lDF2+ZrLtf7m2gI5k0I5h+yg73on4PvnRQusz6+TT27I/T9CPGGkm0uZBTuPHWFdSwAAAEwREERB0C6wd89a6HSP7YnK1Jr50tD6hqxpnu1uES5n0pQHZGppcjzAQZswTkokJj0HnUWntWHm7sKe4S6HXOnDvN3N9pIK+XQQgb0weePmHT3XGddpIGPssRGTrY+OTZ0kx+SAnOpvBTJIx7/3azm9qSXRrWxwXaeDcYImht7qdluhVcgnlw82cOAGt0YQ07ozOpkdt8GUWfbzwgnOHTvvbOu95ueAfG3LRzLGDdx/eZ71Wb6AJcetsGi33XPu2Oh059XZ6a/WgK+2BL3Y3SI3YaUbBuokAAAoJAQEEZ4M3YK1O/H5F+i7Q3I4rYeMth60u8fWOeP3addi/0QlfaVOyDEY1bXz7Yk8ejtXpIzf54yVmB/OuH810pE2w3I683II4rfybthjBNndbDWApg/rGWTo0phsiZHaqicMR+e44+a9nBwTyh6/Kdv4Z+7kIk7rI7fLZoYWWvkwxu2WmL2lToAWlAHL1+vCZtb98EM5tVlbbVnHd9HgJlhItLg69yx7Agg/p5teUqL12wep44OlvJp2DKrFZhDGdScseT6HzMo3+HFT+Siz9PMikV9r+ZiO56nBP/s8TQbu5YMPE/UhL8fN62LvSzeoQqi/hXIOeez8aHfeJmfsPP2PBv+kG7kyTzf7NTXMMiuYa4lPcozhd2X4cgEAAIYDAUHkndM9Vt9VSUPTNTLBfYDVm85qnZU4rTuxts5b1qxdYyfby0qDYq/vTJ2oxC8Wc35XPiOZfj70xA4kuvNOmLlYlt7ST5fhPMulHILSdJwxgqpkZjL5vPK62R67usLpUuXS9V9zB0w/8oPkLKIayDiqMzHqw3ZIgbZMTvhd8sH+q8ur5Yg9Llpf+lBot3rUsRGv16DAx3Lalty78ung95803SCfXf6NlKBf5AItB7fMMgQdnJlVNeCReQZW4/L1xke8eoF86Ju8Qbf/4gYrf1keoO2ueRoU1BZbg5h1NfGwbeXXm5lau9B91rTEGcQ/jb3/1jH4o+7bIIMGgxW07uRbmOdQ0PI1PW6egcrM9Lxw8nuWfPGtiW63zN/LSW9Z152ySvmLHRjty+y4JQPlun9H3Al4cu3GWwj1txDyoC3jPrHHhPyGu8apU3rs+ky6YSCXdO3y6OeaqsIuM5M6qef5Z7c7XYxDafU4+bsyI8QxhgEAQOGKlJWV8e2PATldaueLdC60Z/KNzHzEHl9PZxz2L+uMw6u2xa0b2Nmy9MUHZKr79yl6dLKRZSkBQU1bW+j1pRN3JLf1eJ+XzsuPSuShe4XUNPY/KceE+k5ZWZO9u7C3Xypouk6aIpsb5mZsFdinTHMoBz9vH/x59YvMWSW7Gisl1l4nNz02uKmG9QHl08YF8mfZLec0dyUebJzuUM4DtN26wv2dPvQf8cZeSveBTlLw85yCGd5EFzqb4+m7kn+vM0TqmEz2BAHuzJHettmkp6FS8u3bn1z0WwY2qxwetsohbVIPb1/S+ffNtHyzpakTMpz28E8SE4t4x1P8n5U4xla6d+R23FLqic+Ytw+IXDJRTvAdi0RdyxLsyXTcgsheBo7B1p2BpJdtep31lr20TY6xyXlhUr4mxy1omZmeF8l0k3XVfyxzPW79bvt27rNqm5SvyXEzYXSMfWWZSc55yFJ3HKnXEpM8mKTryZZ+LueF6XlsUic9qfuY+3U3myk/fEo21kalq3m63LMlf+kCAIDCRwtBhMKeIKNhhWzu1tZtnpj0dq+Q5b5goIq/87g8qpNp6OzDCe62WYJg2v12eZ+/yd3BthpZ3qkTenjcz2/Z5FsXrlzKwcjzbdJ+SCRaWy/XZmkVMVjx93bIqXZLplR267KHt8ppb2vLDM/H9oy15+QYDDR1/HPr5Bx7FlOP+/nrd/vWpUq2zLIeFvsZJD4IfxmkfN4Hbj4yBAOVPT7WeivfduuszEzL10lTx9tK3X7sy1uyzjLs0WOs+bFbqzVe33dm2wCcNKxy9/bJysfY9RvlnC0fuSuS7JaaOgNterkNoVzqTr6FdQ6ZlK/JcQtaZqbnRXLWVl8XabfVq/JPCjLo46b7p107f5R7y+BCqL8FkQer7ny9z3XMPR6DCHDlkm6wa2o4ZZZTndRu8VY+1Jg8t6bXnhszq6Mihzrkx8+7KwEAQNGghSAwSgzUIlHls5Vgsfjidu0Smf9WGQAKR7bWecBoRutAAACKGy0EgRFG/0d/XvMjKWMNRibNlpvtLs99J2vxi29ZJs07tJVgk9w5ZXjGkhoptMvYF7fX2eOjjXl5J8FAAMCoEZlyhzxUa9037HiIYCAAAEWKgCCM7H3rBvedg+VhWr6gShpaN9jLnS91y9OtzniNF533ekrX4vS/V1uXPCRdEpXa9pVyLUHBPnTMJx28vfeJBXLkkjNFxw78+s+T3RABABjJ9N6gpX2eRA91yIIlL2a/1wAAAKMaAUEEpjeIl5Y9l7hRZHl4lt/ce7H89OEVctF5K+U37y+3f0pPzP6Zaft08fgLsqT8IenSWYfpNdwPd2ynQUwkAgBAIdF7g8su/UK+e2KLNN/8pPzT3uv7vfcAAACjF2MIIpD04BLLI2sZAAAUN+4dAACAHwFBAAAAAAAAoIjQZRgAAAAAAAAoIgQEAQAAAAAAgCJCQBAAAAAAAAAoIgQEh1EkMlnufGan7P6l9XrmKVk9Z7L7GwAAAAAAACAcBAQLxbioVDWuk9VzIu4KAAAAAAAAIP8ICA6jeHy/rL2pUsq/UykL2nfa66qunGX/BAAAAAAAAMJAQLBA7F/bJu2H3AUAAAAAAAAgJAQEAQAAAAAAgCJCQBAAAAAAAAAoIgQEC031ArmT2YYBAAAAAAAQkkhZWVncfY9hFplyh7Q8NE+qxjnLsfY6uemx/c4CAAAAAAAAkAe0ECwoB92fAAAAAAAAQDhoIVhArl29UxqrY9Jee6us3cdhAQAAAAAAQP7RQrBARCKT5ULtKrxjI8FAAAAAAAAAhIaAIAAAAAAAAFBECAgCAAAAAAAARYSAIAAAAAAAAFBECAgWjAtlvI4hCAAAAAAAAISIgGAB0AlFZt+5QKrcZQAAAAAAACAsBASHkQYC73xmp+zavU4aa6PWmpi0//hF55cAAAAAAABACAgIFopDMWlvbpK1++LuCgAAAAAAACD/ImVlZUSgAAAAAAAAgCJBC0EAAAAAAACgiBAQBAAAAAAAAIoIAUEAAAAAAACgiBAQBDLQGaDnreuWzpc6Zd6kiLs2u0jkGln9zCq5NjLwtqPRVzfUyftPLpEPb7/YXQOA86JwjLRjMZrrTlj7xvkWXLHfswAAAAcBQSCTiTOlvFTfRKV8xkX2qmw0eLj4Z/dJ1ThrYbKzzu+L25fYDynvuw8p6csjXSTyDfmi7Ez7/bFLJssXBg8YkctvsMvik8vz+1Ay0tIdzYq1zAZzXiA7L+hjUp9G2rEYqXXnK+tc/7DJ/X5zX+nHKax943wzvNfQe5VxldK4eyVBQQAAihgBQdgm1HfKmpcekRkFfGOYbLXXLctmpj1kzHzEXt+Zr304sE129+ibmOze/ht7VTazW9ZJ7biYtNcul+f39Z20+4T3P3bfpRrz/ofuu1SRCy6Wz26vkw99D1Uf3l4tX1wwdMdGH7o/fPKGQA9V8fjv5aS3nH0c8/Z+OSnOxOVAWOeFybkJx0i7Ro3Ea6rWyz8smijHznVXZBHWvhVCmQ33uWlyrxHf94Isqe2w7nAqpbFllrsWAAAUGwKCsEWjUSlx3xeuiVJqt9oTmTr9GueNq3p6lfsuP+Lx/dJRVyE136uRjneyP1hE5qySxmqRWHuTrM0QDPTzbsqz3bQrbU31h3tny58vOVOOuevUsUvK5cicv3KXwvfleamfP5Djn1sn593eImc/+Wt3DYAwzgvTcxOOkXaNGkn5TbbO+1hOW7/Rzrf3On1X3+/FsPZtuMusUM7NIPcaKr7vCbmvPWbdQN0nq+fwHwwAABQjAoIYcfZ0d4lUXJloCRiJzJbLK2LWeuvGdgjZXYUXVYoc6pD71vbfijCISORiOaItLKz3Y97eKuc8vDrxUHXO+t0y9n1nOwAACsfZTsvAt7vllF2/d1ZhRNi/dqNYd1RSteh2mUKrYwAAik6krKxs6PtVQCKTFsujrfOlp+UK2TX9aWmoiIr0bJLl9dtkWtODcp213Nu9Qu5q3Or+hROAqrZ+d6P1O681X29Plzz78DLZntaKzd627ja5saYquW33Jnm2vTWxrXazfXpJ/y3rejsXyl1t++33Gnhb+uIDUmqtu3udyK1uPpWm/WhTqxz0ddOJTJott9YukvIB8hs0XW87aVkhskR/XiGrtlnrdT9uOSStO6ulocb6OctK381HkHJQ/ZXFHvdz0mnrwF2NlRJrr5ObHnPKKBNt9de7aKKMeXmjnP3c7xPLY9evTmk9YXe5uvpM66Fqq5wXoIWDdi3+dE6FHPW1JhzzwQE5te3nctJ76emKnPbwFjl+aqV8erUTdBRr29OsbU9xt/Xy1R9vH5QdwHxithy1l1z95F1bkRy93vr8sr7dytLLIui+KZN0TRjl19vWK1v5WMZYD8df/9G/yfE5dF2LXFAtf7i3XE6wPudr3/q+HLHKQT7YLec075MvfjDHbkGqQWN/Sxg7D9bvPs1TffCY7JtRmeVyjBN5sLZ9e7ecuqWrz7YmTPIQlMl5Eda5qYIeNy+/X1p/f87PRT5165fSMv76j7r6Hme33LztNO2xL2+R032fr4KUr2ldT5bZT+SkqdfLH/upv8bXqID1IZcyCyKMuuMJeg456Z7Z93xN+x7zS+S7v7I1PBYqSD0zPsYBz4tCODdNpR8jb3mg78EpP3xKNtZGpat5utyzJffPBwAAIw8tBIdZ6S1uMNBeqJabfcGwkopFiRluNbB1a9sGe1t/196S0ippaH26z0y41U3Wtr4gmCqpmC8NtaldbXMSnSlLX9yQyKfStFc2JdO283vvA/Y2ffO7KvM4fwOlO/FCcXoMvyC7upPdhrW7cO/ObbIjdshaGifn++7NwyyH2VdWWv/GZPvL/bcOjO96zunG5D4QeMvpAaVEl6st/+as7Idu/2l9hq7F506UI/den2EMozPlaP0COeJ7GBRr2z9n3Db/7AegH7ifnxYoSmeybybpmjBNN7Gtu6zlfeyS2fKHxir5ahDl++U1boBEnTspJfBw7JIK+cwdV9Ius0YrDxnL7PuJ7ZKC14eg+xbWMVZ986D7P7hu9KZ5CE8456ZxnTxvihx5YkGifikt4z/8ILWMnQCeU25J1j5cPSelnpmWb9C67jla/335Q58yy1TXg8mpPgQss/AM5jx28prrOaT1wBvnttcLyFn1yxv31n41Ved8/Qtaz0yZnRcFcm4GFOReI5P9L3dZdzIiVVcyliAAAMWGgOAwKymN2q3w5rZop42oTK2I2i3Slnfq7VlUSifYm8n4ugflOo2G9WyS1oYrpOZ7FTJ31kJptbvJRuU6X4DL6UJrveneJMtnOdvqa3nLJtnj61Ub37Y08bvWbl3TJa2+7fXltQ7004DaVOv2cXPLQnubuQ0rZI/+wteN1/ZeV2Ibezs7v/qLKrn8KnuLFIHTtex4zSqvCy6UCW534UwTfwQtB+Uvi8R29jHITAOeF+qswoe6ZFv2xoEG3C5XH7wjJx121gxIWyr4xmsquWOjnPG2/mKi/KXc3iKFpm93Rb5jdcZtvYcHfTm/OyBnWNt66/Tlb+UQj/9aTnfXl9yxVca66zMqr7Qe9q2fH+yWM1K6Qh9wfp8u6L6ZphuUQbraCsPe1i3bZH4/th4ey+XTDMciqGPnnmm39iixP9d6OLUejrW1xzkv69hQ1kPkN+3N5Nj1c+TPdv1J5jeRB2u7P2d46B+oPiijfQvpGGsLoL/YedidyIOTbh660RueQ0EYnReufJ+budRJDQ4d1f+QcMuj5GE3774ZW52gWbkdyPDym0j75T/a26QwKN+gdd1hLev2/jJztzs69RxnE4vxsTC9pgYoMxNh1B0V6jkUkMm+mdQzo3RzOS8K4NwM3f5fyHb7/1Mn0G0YAIAiQ0BwuPVskkfX+YJZ1vLPXhF5127t5tDg07RKbTXXJa31ya6uOvHFjqb7ZbPOhpshaCYV1TLtqovcBZGD2x6XVW3JLsi508DhXOlwI2Hxd7baLfb87Ek5GpcmtlF2fjWQl9XA6Sa88qrsKbX2r+5KmdqzQ17vL/4TSjlcKOPtgOBB2TeILj650hkVT3nyuZTxmnTd2F/1UxDWA4h2u9MuSf5tv/xm8gE6DPbD3TXabNN6UGpO7Z42xv3pF3TfTNMNyjTdo99yt/V197Lz+6Nu++H06LcG0Vrog93y9Z//wV2wWMun7rby8bvkQ7Hm12ldmppfJw9b5LQPrIVMAYoA9SHovoV1jFNcMkm+KE/m7fhdO+T057J3NxxITnkIS57PzdzqpLX9HT9JlEf8vV/L1+wAh8/5U+SoBp59+VWa9knPWWXpO+7G5RugrvvZ3SL9ZfZzZ9+OlU3JqZWVcX5tAcosbCZ1J4/nUPy9HXK2G/BKBOKsvPgDYec17UjUESMG9cxETudFQZyb4dJ7s9/aAcHxorkDAADFg4DgMNOurgd9N8zpyw53dt3uVxNj43n0Ru7we/ou2VU2Ht8qj7R0Sa+2HFyyQTpf6pRl9YtlRlq34pxlyMf2Rm1VtzRlvY4huGxdp/X53YlXv2MWBkxX6T7u6rb2r8bpLpwss2SrytDLYZjp+EqfNNWldNHqbyyjsb8auCtyqD74SE5w3w7EaN8M0jUSIF0NhH2lD67WOXrkiXtS8+t1ozv37Jy7gY15a1/KA3X6ssMb0H+/nNTnPPm9HK8BQfm6fHW+vSphoPqQ076FcIy1BdAZ6w/IGG3puGiBtV2dfHJDtXwxiG6DHtNzKCz5PDdzrpMZ6s9JT2pg57nk+m+eZbfaCppfk/INVteTTvidL3ho+1DG2HU9d8b1IUiZhSzIsQjzHAqFYT0LItfzoiDOTQAAgJAQEByltAvs3bMWOt1je6IytWa+NLS+IWuaZ7tbhMuZNOUBmVqaHA9w0CaMkxKJSc9BZ9FpbZi5u7BnuMshOPdh9txJ8kVa4CYTb3ylo+f6x1cqVG7AKqDg+2aWbnBhpTuahXWMHdot75w7NjpdHD/QccTK5ci998iHt1/sbmFuZJ1DheHYN7/uvhvYSCvf0V4fwjiHwmJSzwAAAJA7AoIjSYZuwdqd+PwL9N0hOZzWs0lbD9rdY+uc8fu0a7F/opK+UifkGIzq2vn2RB69nStSxu9zxkrMD2fcvxrpSJthOZ15OQTxW3k3j2PuJFtypY6Blc3ROe74Si8nxyGyu25lG68tJ31bleXGC3aeJV86KxKc7lOpgu+bWbrBBU83cdw+SB2bK+WVa7c5Uxm6BSdbpPxRjg86NqXLbN/COsZJdn60i2OTM+aWdoXONNlEUENzDoUl+7kZZp30uu8G6S455OXrdTP94MOc9m1k14dgBnMOHf3W0AXpTOpZUEN3rR6ec3MwkmMivyujp7YDAIAgCAiOAE73WH1XJQ1N18gE96Ffb+KqdVbitO7E2jpvWbN2jZ1sLysNir2+M3WiEr9YzPld+Yxk+vnQEzuQ6M47YeZiWXpLP12G8yyXcghK03HG3KmSmcnkB2Xslt32eGvHrl5gt9rwdxv66vJq+eSGvi05Tvhd8uFXtzlij+M2eCe87w3Q/1eD7r6UeAiSifLp9c4DnnbN+6xpiTO4ehYD7Vuu6Q7ENF27rM4tlz/+wCqrYeiCp90BnXHLJsoRzUPi+qCz/rqTjWTo2hhE0H0L6xgrbbn1ye3avfEb7hrn8056y6mjqZNNmAvrHApLkHMztDq5e78zTp9eo6zrkb+ufXHDDRkDS+GVbzJYpHXNm4RisF08R1p9CMLkHPKCcUe/5cx4ax/b2+us83gIW07mUM+CCPtaHda5qfv9mXUMtGtxKC06J39XZgzjmMgAAGD4RMrKyvj2HwZOl9r5Ip0L7Zl8IzMfscfX0xmH/cs64/CqbXHrhnC2LH3xAZnq/n2KHp1sZFlKQFDT1hZ6fenEHcltPd7npfPyoxJ56F4hNY39T8oxob5TVtZk7y7s7ZcKmq6TpsjmhrkZWwX2KdMcysHP2wd/Xv0ic1bJrsZKibXXyU2P5WWqYfnqhjr5w9VZHrx0wPYnnQHg+93OorNznr7LybO3rX+d0tkOdXwse3B+3yyIyvtdOv+22bbxpGxrd8dzHtj9xrx9QOSSiXJChvxm498Pk3RNmKSrD2ufNi5wAm8ZpJd7EN7ni1uG6cfKW/bS1llEj3hjUKX74ICc0fzzREDQpD6Y7NtQH2OHTuqQ3DcTJnkwYXJehHZumhw3r+74ri/9yb5/H8tpD/8kMeFD0PI1rev9ppu2D9nz6sh0LLIZTJkFlUt+g9Qdk3Mo67XkAw1kOTNBe+l6gpSHyb6p7Nun1jOTdE3Oi0I4Nz2pxy/3a142U374lGysjUpX83S5Z0v+0gUAAIWPFoIjhD1BRsMK2dytrds8MentXiHLfcFAFX/ncXlUJ9PQ2YcT3G2zBMG0++3yPn+Tu4NtNbK8Uyf08Lif37LJty5cuZSDkefbpP2QSLS2Xq7N0hrA1PHPrXPHeNKWBp6PZczbu+WMLcmWL/Z2L+sg8R7dZqv9t4OZYddjjze13krfbvU1eDojpZ03Lz1r/8au3yjnbPnIXZFksm8m6ZowSVdb2pzavFHOeNvKp7tuqNmTBjy8VU6z8pDklpsvGGjKZN/CPMZf71MX3e0H8WAc9jkUliDnZph10vn8vteosS9vSZn9NazyHbOn267nKfuvde3ljYMKzo3U+hCEyTnkXEv0+Lor7GNrbdfszII7VILWMxNhX6tDOzcP75Ox1vZqTI6tvbPRniYzq6Mihzrkx8+7KwEAQNGghSCQxUAtElUYrQQBAADCRutAAACKGy0EUfT0f8jnNT+SMtZgZNJsudnu8tx3sha/+JZl0rxDWwk2yZ1T8j8mEQAAQL5FptwhD9Va9zk7HiIYCABAkSIgOMz2vnWD+87B8jAtX1AlDa0b7OXOl7rl6VZnvMaLzns9pWtx+t+rrUseki6JSm37SrmWoCAAAChgei/T0j5Pooc6ZMGSF7PfGwEAgFGNgOAw0huuS8ueS9x4sTw8y2/uvVh++vAKuei8lfKb95fbP6UnZv/MtH26ePwFWVL+kHTprMP0GgYAAAVK72Uuu/QL+e6JLdJ885PyT3uv7/deCQAAjF6MIThM0oNLLI+sZQAAgJGEex0AAOCXNSB40kknue9GnzVr1tg/77rrLvsnAAAAAAAAUCzoMgwAAAAAAAAUEQKCAAAAAAAAQBEhIAgAAAAAAAAUkVEVEIzHJ8nfdvxCdnRZr4718v/OmuT+BgAAAAAAAIAavS0EoxdI5d/9g/y/s5hEGQAAAAAAAPCMqoBgJPKO/MO870p11XelvuN1e13ljKvtnwAAAAAAAABGcQvB3zy5QTpi7gIAAAAAAAAAG5OKAAAAAAAAAEWEgCAAAAAAAABQREZ/QHD6PPlbZhsGAAAAAAAAbKM2IKgTjPyo6Z9kZ+wCmfd3/yA7un4hm35AYBAAAAAAAADFbZS3EHzX/QkAAAAAAABAjeqA4Ky6/y6V0feko+6vpbrquzL/R++4vwEAAAAAAACK06gNCMbjk2R81HrzWof8w/+JOCsBAAAAAACAIjf6JxUBAAAAAAAAkEBAEAAAAAAAACgiBAQBAAAAAACAIjKKA4ITnDEEAQAAAAAAACSMyoCgTigy6/Z5UukuAwAAAAAAAHCMqoCgBgL/tuMX0vXaP8jfzbvAWvOedKx72fklAAAAAAAAgFHcZTj2nnT8/UPyD/8n4q4AAAAAAAAAECkrK4u771OcdNJJ7rvRZ82aNfbPu+66y/4JAAAAAAAAFIusAUEAAAAAAAAAo88onmUYAAAAAAAAQDoCggAAAAAAAEARISAIAAAAAAAAFJF+A4KRyGS585mdsvuX1uuZp2T1nMnubwAAAAAAAACMRMFbCI6LSlXjOlk9J+KuAAAAAAAAADDS9BsQjMf3y9qbKqX8O5WyoH2nva7qyln2TwAAAAAAAAAjT+AWgvvXtkn7IXcBAAAAAAAAwIjEpCIAAAAAAABAESEgCAAAAAAAABQR84Bg9QK5k9mGAQAAAAAAgBEpUlZWFnffDygy5Q5peWieVI1zlmPtdXLTY/udBQAAAAAAAAAFz7CF4EH3JwAAAAAAAICRyKiF4LWrd0pjdUzaa2+VtfsC/xkAAAAAAACAAhG4hWAkMlku1K7COzYSDAQAAAAAAABGKGYZBgAAAAAAAIoIAUEAAAAAAACgiBAQBAAAAAAAAIqIQUDwQhmvYwgCAAAAAAAAGLECBQR1QpHZdy6QKncZAAAAAAAAwMjUb0BQA4F737pBdu1eJ421UWtNTE686iTnly79PQAAAAAAAICRod+A4Jt7L5a2/7NETjyxReRQzPrZKZeWPZcIAupP/zIAAAAAAACAwhYpKyuLu+9TeME+z0DLAAAAAAAAAApf1oAgAAAAAAAAgNHHYJZhAAAAAAAAACMdAUEAAAAAAACgiBAQBAAAAAAAAIoIAUEAAAAAAACgiBAQBAAAAAAAAIoIAUEAAAAAAACgiBAQBAAAAAAAAIoIAUEAAAAAAACgiBAQBAAAAAAAAIoIAUEAAAAAAACgiBAQBAAAAAAAAIoIAUEAAAAAAACgiBAQBAAAAAAAwP/fjh0IAAAAMAy6P/VBVhgRIgQBAAAAIEQIAgAAAEDGdr1+ZuWilR9+AAAAAElFTkSuQmCC;" vertex="1" parent="1">
          <mxGeometry x="650" y="-229.05" width="1024" height="690.65" as="geometry" />
        </mxCell>
      </root>
    </mxGraphModel>
  </diagram>
</mxfile>
